<?xml version="1.0" encoding="UTF-8" standalone="no"?>
<!DOCTYPE svg  PUBLIC '-//W3C//DTD SVG 1.1//EN'  'http://www.w3.org/Graphics/SVG/1.1/DTD/svg11.dtd'>
<svg xmlns="http://www.w3.org/2000/svg">
<defs>
<font id="FranklinGothic-Heavy" horiz-adv-x="1201">
<font-face underline-position="-103" font-weight="400" descent="-410" panose-1="2 11 9 3 2 1 2 2 2 4" units-per-em="2048" unicode-range="U+0020-FB02" bbox="-509 -628 2348 2014" x-height="1017" underline-thickness="102" font-family="FranklinGothic" ascent="1638" cap-height="1365"/>
<missing-glyph d="M384 128h1280v1280h-1280v-1280zM256 0v1536h1536v-1536h-1536z" horiz-adv-x="2048"/>
<glyph glyph-name=".notdef" d="M384 128h1280v1280h-1280v-1280zM256 0v1536h1536v-1536h-1536z" horiz-adv-x="2048"/>
<glyph glyph-name=".null" horiz-adv-x="0"/>
<glyph glyph-name="nonmarkingreturn" horiz-adv-x="512"/>
<glyph glyph-name="space" horiz-adv-x="512" unicode=" "/>
<glyph glyph-name="exclam" horiz-adv-x="646" unicode="!" d="M516 365v-365h-386v365h386zM563 1365l-114 -905h-253l-107 905h474z"/>
<glyph glyph-name="quotedbl" horiz-adv-x="845" unicode='&quot;' d="M712 789h-196l-49 576h295zM328 789h-196l-49 576h295z"/>
<glyph glyph-name="numbersign" d="M707 772h-161l-27 -151h161zM1107 621l-38 -213h-199l-74 -408h-229l74 408h-160l-74 -408h-226l74 408h-224l39 213h224l27 151h-221l39 212h221l69 381h225l-69 -381h161l69 381h229l-70 -381h195l-38 -212h-195l-27 -151h198z" unicode="#"/>
<glyph glyph-name="dollar" d="M488 1335v171h192v-167q323 -36 422 -307l-313 -98q-48 127 -196 127q-124 0 -124 -80q0 -29 21 -49.5t116 -41.5q217 -47 311 -84.5t156.5 -127t62.5 -211.5q0 -171 -121.5 -286.5t-334.5 -139.5v-173h-192v173q-362 43 -455 381l350 65q45 -154 227 -154q142 0 142 78 q0 41 -33 64t-117 40q-330 67 -418.5 171t-88.5 239q0 149 97 264.5t296 145.5z" unicode="$"/>
<glyph glyph-name="percent" horiz-adv-x="1455" unicode="%" d="M1116 139q71 0 71 200q0 91 -13 148.5t-56 57.5q-70 0 -70 -192q0 -122 14.5 -168t53.5 -46zM1114 -10q-126 0 -200.5 96.5t-74.5 256.5q0 163 76 257t203 94q123 0 199.5 -93.5t76.5 -263.5q0 -159 -77 -253t-203 -94zM1234 1365l-829 -1365h-189l835 1365h183zM338 822 q71 0 71 200q0 91 -13.5 148t-56.5 57q-69 0 -69 -193q0 -119 14.5 -165.5t53.5 -46.5zM337 673q-127 0 -201.5 96.5t-74.5 256.5q0 163 76.5 256.5t203.5 93.5q132 0 204 -99.5t72 -256.5q0 -160 -77 -253.5t-203 -93.5z"/>
<glyph glyph-name="ampersand" horiz-adv-x="1515" unicode="&amp;" d="M551 578q-99 -43 -99 -150q0 -69 46 -111.5t127 -42.5q96 0 154 55zM716 912q100 39 100 127q0 44 -28 73t-76 29q-42 0 -68.5 -25t-26.5 -60q0 -65 99 -144zM1120 798l354 -42q-66 -278 -225 -422q45 -38 129 -38q38 0 96 6v-294q-83 -22 -162 -22q-186 0 -321 110 q-137 -117 -392 -117q-239 0 -393.5 111.5t-154.5 310.5q0 265 316 375q-111 141 -111 266q0 158 119 251t327 93q196 0 314.5 -89t118.5 -246q0 -130 -78 -217.5t-180 -118.5l140 -149q68 67 103 232z"/>
<glyph glyph-name="quotesingle" horiz-adv-x="461" unicode="&apos;" d="M328 789h-195l-50 576h295z"/>
<glyph glyph-name="parenleft" horiz-adv-x="601" unicode="(" d="M597 1365q-261 -383 -261 -841q0 -441 261 -845h-270q-316 405 -316 849q0 466 316 837h270z"/>
<glyph glyph-name="parenright" horiz-adv-x="601" unicode=")" d="M4 -321q261 383 261 842q0 441 -261 844h270q316 -405 316 -848q0 -466 -316 -838h-270z"/>
<glyph glyph-name="asterisk" d="M737 1393l-37 -333l319 142l80 -259l-333 -38l226 -239l-220 -162l-172 312l-171 -312l-220 162l226 239l-333 38l80 259l319 -142l-37 333h273z" unicode="*"/>
<glyph glyph-name="plus" d="M1098 816v-253h-370v-384h-255v384h-370v253h370v384h255v-384h370z" unicode="+"/>
<glyph glyph-name="comma" horiz-adv-x="563" unicode="," d="M472 363v-335l-219 -379h-157l157 351h-161v363h380z"/>
<glyph glyph-name="hyphen" horiz-adv-x="563" unicode="-" d="M535 673v-314h-507v314h507z"/>
<glyph glyph-name="period" horiz-adv-x="563" unicode="." d="M472 365v-365h-380v365h380z"/>
<glyph glyph-name="slash" horiz-adv-x="1047" unicode="/" d="M999 1365l-923 -1686h-201l920 1686h204z"/>
<glyph glyph-name="zero" d="M601 269q86 0 115 109.5t29 299.5q0 261 -38.5 341t-104.5 80q-80 0 -110.5 -105.5t-30.5 -290.5q0 -251 30.5 -342.5t109.5 -91.5zM597 -21q-247 0 -391 194.5t-144 511.5q0 325 147.5 513t394.5 188q259 0 397 -200.5t138 -512.5q0 -318 -148.5 -506t-393.5 -188z" unicode="0"/>
<glyph glyph-name="one" d="M858 304h322v-304h-1050v304h337v649q-192 -85 -300 -100v307q291 63 395 226h296v-1082z" unicode="1"/>
<glyph glyph-name="two" d="M1116 335l-15 -335h-1040v314l232 163q51 35 190.5 150.5t182 177.5t42.5 130q0 65 -37 104.5t-97 39.5q-150 0 -168 -236l-345 67q38 241 188.5 358.5t355.5 117.5q222 0 362.5 -119t140.5 -317q0 -132 -76.5 -251t-447.5 -364h532z" unicode="2"/>
<glyph glyph-name="three" d="M25 417l356 44q35 -187 200 -187q75 0 122 39t47 105q0 44 -25.5 77.5t-54.5 47t-100 13.5h-166v285h140q112 0 144 40t32 83q0 54 -40 90t-105 36q-140 0 -171 -156l-330 52q45 192 190.5 296t344.5 104q224 0 360 -105t136 -280q0 -105 -57.5 -183t-146.5 -105 q246 -75 246 -321q0 -196 -149.5 -304.5t-387.5 -108.5q-478 0 -585 438z" unicode="3"/>
<glyph glyph-name="four" d="M610 597v408l-259 -408h259zM1178 300h-192v-300h-376v300h-558v297l514 789h420v-789h192v-297z" unicode="4"/>
<glyph glyph-name="five" d="M1050 1028h-572l-16 -193q111 77 246 77q178 0 311 -122t133 -326q0 -215 -155 -350t-396 -135q-210 0 -363.5 110.5t-188.5 308.5l352 43q35 -149 191 -149q79 0 123.5 48t44.5 117q0 78 -51 122t-121 44q-104 0 -160 -86l-313 44l60 784h911z" unicode="5"/>
<glyph glyph-name="six" d="M614 257q69 0 110 47t41 115q0 67 -40.5 117t-106.5 50q-68 0 -112 -49.5t-44 -118.5q0 -67 42 -114t110 -47zM1115 979l-349 -42q-16 164 -133 164q-169 0 -174 -355q80 126 275 126q185 0 300.5 -119t115.5 -306q0 -196 -146.5 -332t-377.5 -136q-169 0 -301 81.5 t-199 240.5t-67 348q0 322 147 529.5t419 207.5q193 0 327.5 -105.5t162.5 -301.5z" unicode="6"/>
<glyph glyph-name="seven" d="M1102 1365v-256q-149 -175 -256 -466t-107 -557q0 -26 4 -86h-451q0 241 117.5 526t315.5 497h-633l29 342h981z" unicode="7"/>
<glyph glyph-name="eight" d="M494 531q-95 -58 -95 -142q0 -62 53 -104t151 -42q79 0 121 29.5t42 76.5q0 78 -117 123zM681 847q85 42 85 126q0 62 -47 102.5t-133 40.5q-61 0 -95.5 -29t-34.5 -71q0 -78 100 -118zM936 742q221 -112 221 -337q0 -204 -158.5 -315t-417.5 -111t-398 105t-139 275 q0 215 213 309q-171 95 -171 298q0 179 139.5 299.5t386.5 120.5q221 0 360.5 -100t139.5 -265q0 -75 -31.5 -139.5t-144.5 -139.5z" unicode="8"/>
<glyph glyph-name="nine" d="M575 773q61 0 107 42.5t46 120.5q0 79 -42 125t-106 46q-60 0 -102.5 -43t-42.5 -129q0 -76 39.5 -119t100.5 -43zM91 344l350 56q22 -126 131 -126q86 0 131.5 80t45.5 220q0 16 -1 41q-90 -132 -266 -132q-185 0 -306 122t-121 311q0 207 142.5 338.5t382.5 131.5 q276 0 417 -182.5t141 -481.5q0 -329 -146.5 -536t-436.5 -207q-190 0 -313.5 97.5t-150.5 267.5z" unicode="9"/>
<glyph glyph-name="colon" horiz-adv-x="563" unicode=":" d="M472 365v-365h-380v365h380zM472 1017v-364h-380v364h380z"/>
<glyph glyph-name="semicolon" horiz-adv-x="563" unicode=";" d="M472 363v-335l-219 -379h-157l157 351h-161v363h380zM472 1017v-364h-380v364h380z"/>
<glyph glyph-name="semicolon" horiz-adv-x="563" unicode=";" d="M472 363v-335l-219 -379h-157l157 351h-161v363h380zM472 1017v-364h-380v364h380z"/>
<glyph glyph-name="less" d="M1024 1261v-280l-589 -297l589 -297v-278l-887 458v236z" unicode="&lt;"/>
<glyph glyph-name="equal" d="M1098 613v-254h-995v254h995zM1098 993v-254h-995v254h995z" unicode="="/>
<glyph glyph-name="greater" d="M177 109v280l589 296l-589 298v278l887 -458v-237z" unicode="&gt;"/>
<glyph glyph-name="question" horiz-adv-x="1119" unicode="?" d="M758 365v-365h-383v365h383zM388 877l-367 40q84 469 545 469q232 0 366 -122.5t134 -303.5q0 -80 -26.5 -146t-68 -108.5t-134.5 -110.5q-71 -52 -90.5 -75.5t-26.5 -68.5h-332q0 121 21.5 174.5t88.5 113.5q101 91 126 135.5t25 103.5q0 62 -33 95.5t-82 33.5 q-145 0 -146 -230z"/>
<glyph glyph-name="at" horiz-adv-x="1570" unicode="@" d="M750 477q69 0 119 67.5t50 154.5q0 70 -40.5 112t-92.5 42q-60 0 -100.5 -56t-40.5 -147q0 -74 29 -123.5t76 -49.5zM1134 1030l-55 -449q-5 -46 -5 -80q0 -42 39 -42q72 0 139 91t67 228q0 200 -146 332t-358 132q-230 0 -388 -160.5t-158 -400.5q0 -221 147.5 -385 t416.5 -164q208 0 428 115l66 -164q-241 -124 -494 -124q-351 0 -558 213.5t-207 509.5q0 309 217.5 516.5t526.5 207.5q294 0 492 -182.5t198 -441.5q0 -204 -121 -348.5t-287 -144.5q-113 0 -171 87q-77 -91 -185 -91q-121 0 -207 102.5t-86 269.5q0 171 97 279.5 t233 108.5q86 0 158 -59l12 44h189z"/>
<glyph glyph-name="A" horiz-adv-x="1306" unicode="A" d="M500 567h222l-111 396zM872 0l-77 269h-366l-82 -269h-340l422 1365h443l427 -1365h-427z"/>
<glyph glyph-name="B" horiz-adv-x="1316" unicode="B" d="M505 304h204q76 0 111.5 37.5t35.5 84.5t-34.5 86.5t-126.5 39.5h-190v-248zM505 842h194q73 0 103 37t30 79q0 114 -140 114h-187v-230zM119 0v1365h693q216 0 315 -109t99 -249q0 -102 -57.5 -184.5t-171.5 -113.5q265 -64 265 -318q0 -152 -93.5 -271.5t-399.5 -119.5 h-650z"/>
<glyph glyph-name="C" horiz-adv-x="1287" unicode="C" d="M870 521l383 -23q-27 -251 -185.5 -385t-389.5 -134q-278 0 -449 184t-171 508q0 321 162 518t452 197q271 0 416.5 -150t164.5 -398l-391 -21q0 137 -52.5 198t-123.5 61q-198 0 -198 -398q0 -223 51.5 -303t144.5 -80q166 0 186 226z"/>
<glyph glyph-name="D" horiz-adv-x="1391" unicode="D" d="M538 314h109q104 0 175.5 101t71.5 275q0 149 -63.5 257t-183.5 108h-109v-741zM119 0v1365h528q344 0 515 -204t171 -472q0 -306 -183.5 -497.5t-476.5 -191.5h-554z"/>
<glyph glyph-name="E" horiz-adv-x="1193" unicode="E" d="M1146 326v-326h-1027v1365h1027v-315h-616v-198h498v-303h-498v-223h616z"/>
<glyph glyph-name="F" horiz-adv-x="1120" unicode="F" d="M972 511h-445v-511h-408v1365h987v-325h-579v-222h445v-307z"/>
<glyph glyph-name="G" horiz-adv-x="1400" unicode="G" d="M1298 765v-765h-205q-25 85 -55 143q-127 -164 -376 -164q-264 0 -434 184.5t-170 499.5q0 306 164.5 514.5t489.5 208.5q244 0 393 -124t193 -352l-406 -40q-30 213 -187 213q-206 0 -206 -392q0 -237 66 -312.5t160 -75.5q76 0 129.5 46t54.5 126h-226v290h615z"/>
<glyph glyph-name="H" horiz-adv-x="1395" unicode="H" d="M1277 1365v-1365h-419v531h-320v-531h-419v1365h419v-502h320v502h419z"/>
<glyph glyph-name="I" horiz-adv-x="657" unicode="I" d="M538 1365v-1365h-419v1365h419z"/>
<glyph glyph-name="J" horiz-adv-x="852" unicode="J" d="M747 1365v-860q0 -198 -35.5 -301.5t-138.5 -164t-279 -60.5q-155 0 -280 33v326q88 -25 164 -25q90 0 128 41.5t38 150.5v860h403z"/>
<glyph glyph-name="K" horiz-adv-x="1343" unicode="K" d="M1350 0h-459l-236 516l-141 -201v-315h-395v1365h395v-564l377 564h376l-345 -499z"/>
<glyph glyph-name="L" horiz-adv-x="1103" unicode="L" d="M1076 335v-335h-957v1365h419v-1030h538z"/>
<glyph glyph-name="M" horiz-adv-x="1722" unicode="M" d="M1603 1365v-1365h-389v976l-253 -976h-266l-262 976v-976h-314v1365h547l198 -725l189 725h550z"/>
<glyph glyph-name="N" horiz-adv-x="1405" unicode="N" d="M1286 0h-341l-374 603q-72 116 -145 282q33 -132 33 -224v-661h-340v1365h396l318 -500q95 -149 144 -262q-32 175 -32 358v404h341v-1365z"/>
<glyph glyph-name="O" horiz-adv-x="1415" unicode="O" d="M707 289q106 0 152.5 92.5t46.5 338.5q0 356 -191 356q-206 0 -206 -406q0 -381 198 -381zM709 -21q-288 0 -469.5 191t-181.5 511q0 306 173.5 505.5t481.5 199.5q285 0 464.5 -188t179.5 -502q0 -325 -181 -521t-467 -196z"/>
<glyph glyph-name="P" horiz-adv-x="1317" unicode="P" d="M538 789h140q185 0 185 136q0 128 -171 128h-154v-264zM544 496v-496h-425v1365h583q218 0 331.5 -50t180 -153t66.5 -231q0 -195 -136 -315t-363 -120h-237z"/>
<glyph glyph-name="Q" horiz-adv-x="1415" unicode="Q" d="M707 289q106 0 152.5 92.5t46.5 338.5q0 356 -191 356q-206 0 -206 -406q0 -381 198 -381zM849 -7q-70 -14 -138 -14q-295 0 -474 195t-179 505q0 309 173.5 508t481.5 199q285 0 464.5 -188t179.5 -502q0 -381 -245 -581q20 -59 127 -59q48 0 113 13v-309 q-111 -11 -174 -11q-112 0 -199.5 46.5t-129.5 197.5z"/>
<glyph glyph-name="R" horiz-adv-x="1413" unicode="R" d="M538 814h179q79 0 127 33t48 97q0 131 -161 131h-193v-261zM1334 0h-465l-199 522h-132v-522h-419v1365h713q236 0 366.5 -110.5t130.5 -291.5q0 -118 -48 -208.5t-194 -159.5z"/>
<glyph glyph-name="S" horiz-adv-x="1244" unicode="S" d="M-22 395l389 70q49 -165 252 -165q158 0 158 84q0 44 -36.5 68.5t-130.5 43.5q-359 69 -461 180t-102 261q0 193 146.5 321t421.5 128q417 0 551 -335l-347 -105q-54 137 -219 137q-137 0 -137 -85q0 -38 31 -59t120 -40q245 -52 348 -92t172 -136.5t69 -227.5 q0 -207 -168 -335.5t-441 -128.5q-499 0 -616 416z"/>
<glyph glyph-name="T" horiz-adv-x="963" unicode="T" d="M680 1038v-1038h-397v1038h-283v327h963v-327h-283z"/>
<glyph glyph-name="U" horiz-adv-x="1331" unicode="U" d="M1226 1365v-904q0 -257 -152.5 -369.5t-397.5 -112.5q-258 0 -414.5 108t-156.5 352v926h426v-877q0 -98 41.5 -143t132.5 -45q76 0 124.5 32.5t58 73.5t9.5 160v799h329z"/>
<glyph glyph-name="V" horiz-adv-x="1307" unicode="V" d="M1300 1365l-424 -1365h-427l-442 1365h442l215 -744q22 -66 39 -130l252 874h345z"/>
<glyph glyph-name="W" horiz-adv-x="1843" unicode="W" d="M1829 1365l-362 -1365h-352l-191 753l-180 -753h-367l-363 1365h394l191 -787l186 787h330l202 -787l191 787h321z"/>
<glyph glyph-name="X" horiz-adv-x="1322" unicode="X" d="M1287 1365l-396 -634l459 -731h-487l-252 429l-254 -429h-384l440 707l-422 658h488l212 -367l220 367h376z"/>
<glyph glyph-name="Y" horiz-adv-x="1211" unicode="Y" d="M1252 1365l-427 -787v-578h-407v578l-459 787h459l239 -449l229 449h366z"/>
<glyph glyph-name="Z" horiz-adv-x="1204" unicode="Z" d="M1170 322v-322h-1136v261l605 788h-559v316h1071v-265l-587 -778h606z"/>
<glyph glyph-name="bracketleft" horiz-adv-x="601" unicode="[" d="M547 -156v-165h-471v1686h471v-165h-173v-1356h173z"/>
<glyph glyph-name="backslash" horiz-adv-x="1047" unicode="\" d="M48 1365h204l920 -1686h-201z"/>
<glyph glyph-name="bracketright" horiz-adv-x="601" unicode="]" d="M54 1200v165h471v-1686h-471v165h173v1356h-173z"/>
<glyph glyph-name="asciicircum" horiz-adv-x="1024" unicode="^" d="M296 685h-287l323 689h360l323 -689h-287l-216 470z"/>
<glyph glyph-name="underscore" horiz-adv-x="1024" unicode="_" d="M0 -94h1024v-239h-1024v239z"/>
<glyph glyph-name="grave" horiz-adv-x="1024" unicode="`" d="M736 1298l-52 -137l-478 166l73 195z"/>
<glyph glyph-name="a" d="M716 476q-255 -27 -255 -163q0 -92 101 -92q64 0 109 38t45 168v49zM1130 0h-380q-14 65 -14 142q-108 -163 -327 -163q-180 0 -269.5 92t-89.5 211q0 161 146.5 260.5t519.5 119.5v23q0 67 -30.5 89t-89.5 22q-138 0 -154 -111l-364 34q78 319 531 319q123 0 226 -24.5 t163 -76.5t80.5 -110t20.5 -223v-406q0 -116 31 -198z" unicode="a"/>
<glyph glyph-name="b" horiz-adv-x="1203" unicode="b" d="M500 379q0 -150 116 -150q63 0 96.5 54.5t33.5 224.5q0 185 -38 232.5t-94 47.5q-44 0 -79 -34t-35 -99v-276zM332 0h-225v1365h393v-469q82 142 261 142q126 0 214 -66t131 -188.5t43 -257.5q0 -246 -110 -396.5t-328 -150.5q-215 0 -327 161q-32 -60 -52 -140z"/>
<glyph glyph-name="c" horiz-adv-x="1071" unicode="c" d="M718 410l340 -29q-24 -178 -149.5 -290t-333.5 -112q-233 0 -378.5 146.5t-145.5 375.5q0 234 144.5 385.5t375.5 151.5q205 0 334 -114.5t148 -289.5l-349 -29q-22 161 -122 161q-64 0 -93.5 -58.5t-29.5 -203.5q0 -125 29.5 -185t102.5 -60q107 0 127 151z"/>
<glyph glyph-name="d" horiz-adv-x="1203" unicode="d" d="M705 654q0 137 -113 137q-79 0 -103.5 -87t-24.5 -213q0 -247 126 -247q48 0 81.5 39t33.5 119v252zM1098 0h-374v135q-83 -156 -274 -156q-176 0 -285.5 137.5t-109.5 399.5q0 245 110 389t291 144q151 0 249 -115v431h393v-1365z"/>
<glyph glyph-name="e" d="M751 629q-1 103 -41.5 138.5t-100.5 35.5q-142 0 -142 -174h284zM777 365l372 -25q-33 -150 -168.5 -255.5t-366.5 -105.5q-257 0 -410 148.5t-153 368.5q0 228 151 385t403 157q244 0 394.5 -148t150.5 -403q0 -21 -1 -58h-681q2 -96 34 -142.5t122 -46.5q130 0 153 125 z" unicode="e"/>
<glyph glyph-name="f" horiz-adv-x="803" unicode="f" d="M535 758v-758h-376v758h-152v259h152q0 126 11 186.5t55 116t118 85t199 29.5q134 0 257 -21v-261q-95 13 -142 13t-86 -19t-39 -93v-36h260v-259h-257z"/>
<glyph glyph-name="g" horiz-adv-x="1166" unicode="g" d="M479 13q-22 1 -44 1q-103 0 -103 -64q0 -59 78.5 -76t209.5 -17q124 0 159.5 21t35.5 58q0 26 -16 43.5t-76 20.5zM581 591q116 0 116 123q0 126 -119 126q-118 0 -118 -128q0 -121 121 -121zM1165 1248l-10 -273l-19 1q-54 3 -77 3q-93 0 -112 -37q114 -94 114 -227 q0 -156 -123.5 -234.5t-335.5 -78.5q-5 0 -52 2q-44 2 -46 2q-97 0 -97 -50q0 -44 86 -47l327 -14q179 -8 262.5 -100t83.5 -215q0 -146 -124.5 -238.5t-484.5 -92.5q-555 0 -555 255q0 139 147 194q-95 67 -95 159q0 150 195 226q-163 71 -163 236q0 151 132 235t362 84 q105 0 191 -21q35 239 253 239q50 0 141 -8z"/>
<glyph glyph-name="h" horiz-adv-x="1210" unicode="h" d="M1104 0h-398v612q0 84 -18.5 115.5t-71.5 31.5q-41 0 -71.5 -24.5t-35.5 -50.5t-5 -109v-575h-399v1365h399v-468q108 141 282 141q88 0 154.5 -30.5t102.5 -78.5t48.5 -93t12.5 -174v-662z"/>
<glyph glyph-name="i" horiz-adv-x="609" unicode="i" d="M504 1017v-1017h-399v1017h399zM504 1408v-316h-399v316h399z"/>
<glyph glyph-name="j" horiz-adv-x="609" unicode="j" d="M504 1017v-957q0 -145 -25.5 -225t-113.5 -135t-249 -55q-105 0 -203 19v291q44 -19 88 -19q105 0 105 124v957h398zM504 1406v-314h-398v314h398z"/>
<glyph glyph-name="k" horiz-adv-x="1175" unicode="k" d="M1156 1017l-307 -350l342 -667h-412l-191 407l-109 -127v-280h-374v1365h374v-551q0 -23 -3 -184q36 51 73 93l255 294h352z"/>
<glyph glyph-name="l" horiz-adv-x="603" unicode="l" d="M498 1365v-1365h-393v1365h393z"/>
<glyph glyph-name="m" horiz-adv-x="1752" unicode="m" d="M1646 0h-387v636q0 64 -18.5 89.5t-65.5 25.5q-112 0 -112 -163v-588h-383v636q0 122 -94 122q-97 0 -97 -122v-636h-384v1017h358v-137q96 158 279 158q197 0 286 -158q99 158 304 158q98 0 172.5 -41t108 -105.5t33.5 -199.5v-692z"/>
<glyph glyph-name="n" horiz-adv-x="1203" unicode="n" d="M1098 0h-399v640q0 79 -24.5 101t-61.5 22q-109 0 -109 -152v-611h-399v1017h370v-144q82 165 293 165q111 0 187.5 -42.5t109.5 -110t33 -234.5v-651z"/>
<glyph glyph-name="o" horiz-adv-x="1217" unicode="o" d="M608 221q93 0 113.5 96.5t20.5 201.5q0 143 -29 206t-104 63q-69 0 -101 -65t-32 -214q0 -175 33 -231.5t99 -56.5zM602 -21q-253 0 -402 157.5t-149 369.5q0 228 155.5 380t404.5 152q251 0 403.5 -150t152.5 -376q0 -228 -154.5 -380.5t-410.5 -152.5z"/>
<glyph glyph-name="p" d="M504 372q0 -68 31 -105.5t77 -37.5q72 0 99 66.5t27 204.5q0 159 -31 223.5t-93 64.5q-37 0 -73.5 -29t-36.5 -95v-292zM504 -321h-399v1338h367v-144q77 165 287 165q182 0 285 -141.5t103 -385.5t-105.5 -388t-278.5 -144q-170 0 -259 130v-430z" unicode="p"/>
<glyph glyph-name="q" horiz-adv-x="1206" unicode="q" d="M708 644q0 77 -34 118.5t-79 41.5q-64 0 -98 -63t-34 -235q0 -173 33.5 -229t89.5 -56q44 0 83 34t39 116v273zM1101 -321h-393v430q-65 -130 -240 -130q-197 0 -305 147t-108 379q0 221 113 377t338 156q220 0 308 -159q41 70 66 138h231q-10 -46 -10 -138v-1200z"/>
<glyph glyph-name="r" horiz-adv-x="781" unicode="r" d="M487 0h-382v1017h332v-210q57 229 265 229q21 0 58 -4v-355q-42 10 -75 10q-198 0 -198 -221v-466z"/>
<glyph glyph-name="s" horiz-adv-x="1085" unicode="s" d="M15 288l315 43q27 -110 214 -110q155 0 155 60q0 26 -30 40.5t-142 29.5q-310 43 -387 134.5t-77 203.5q0 156 130 252.5t341 96.5q370 0 472 -267l-302 -57q-42 90 -177 90q-64 0 -95.5 -17.5t-31.5 -34.5q0 -50 96 -61q250 -28 339 -57t152 -106t63 -186 q0 -167 -139.5 -265t-384.5 -98q-413 0 -511 309z"/>
<glyph glyph-name="t" horiz-adv-x="761" unicode="t" d="M733 1017v-259h-203v-375q0 -77 29 -91.5t60 -14.5q48 0 114 17v-284q-118 -23 -232 -23q-184 0 -270.5 79t-86.5 252l1 119v321h-152v259h152l6 331l379 6v-337h203z"/>
<glyph glyph-name="u" horiz-adv-x="1199" unicode="u" d="M1094 1017v-1017h-369v167q-81 -188 -316 -188q-145 0 -224.5 80.5t-79.5 230.5v727h399v-640q0 -60 16.5 -84.5t64.5 -24.5q51 0 83 36.5t32 102.5v610h394z"/>
<glyph glyph-name="v" horiz-adv-x="1037" unicode="v" d="M1044 1017l-373 -1017h-298l-380 1017h410l145 -432q18 -53 32 -105q5 18 15 46q2 4 13 38l150 453h286z"/>
<glyph glyph-name="w" horiz-adv-x="1521" unicode="w" d="M1507 1017l-322 -1017h-287l-133 551l-139 -551h-284l-328 1017h392l134 -498l128 498h294l127 -498l141 498h277z"/>
<glyph glyph-name="x" horiz-adv-x="1133" unicode="x" d="M1146 0h-450l-187 324l-199 -324h-324l357 539l-313 478h444l105 -190q7 -13 17 -30q5 -8 14 -26q11 17 27 46q2 5 11 21l104 179h329l-298 -462z"/>
<glyph glyph-name="y" horiz-adv-x="1049" unicode="y" d="M1055 1017l-399 -1102q-46 -125 -132 -195.5t-265 -70.5q-43 0 -200 9v283q78 -12 144 -12q172 0 172 76q0 25 -17 69l-365 943h427l168 -542l176 542h291z"/>
<glyph glyph-name="z" horiz-adv-x="965" unicode="z" d="M931 253v-253h-897v221l429 551q-77 -3 -104 -3h-290v248h846v-214l-438 -552l53 1q16 1 29 1h372z"/>
<glyph glyph-name="braceleft" horiz-adv-x="601" unicode="{" d="M276 522q65 -40 93.5 -91t28.5 -154v-297q0 -88 25.5 -110.5t147.5 -22.5h31v-164l-68 -1q-90 -3 -116 -3q-170 0 -241.5 65.5t-71.5 213.5v335q0 98 -35.5 129.5t-76.5 37.5v144q112 17 112 148v334q0 149 71 214.5t238 65.5q29 0 188 -5v-159l-43 1q-88 0 -116 -12 t-36.5 -33.5t-8.5 -88.5v-302q0 -61 -18.5 -127t-103.5 -118z"/>
<glyph glyph-name="bar" horiz-adv-x="1024" unicode="|" d="M371 1365h283v-1706h-283v1706z"/>
<glyph glyph-name="braceright" horiz-adv-x="601" unicode="}" d="M325 522q-65 41 -93.5 91.5t-28.5 153.5v297q0 85 -23.5 109.5t-138.5 24.5q-14 0 -42 -1v164q7 0 69 2q90 3 119 3q169 0 239 -66t70 -214v-334q0 -97 34 -129t78 -38v-145q-112 -16 -112 -147v-335q0 -144 -67.5 -211.5t-245.5 -67.5q-24 0 -184 4v160l42 -1 q115 0 138.5 25t23.5 109v301q0 61 18.5 127t103.5 118z"/>
<glyph glyph-name="asciitilde" d="M254 474l-152 104q65 166 137.5 227t172.5 61q70 0 216 -54q128 -47 173 -47q87 0 142 105l156 -96q-117 -278 -326 -278q-53 0 -204 54q-133 47 -171 47q-88 0 -144 -123z" unicode="~"/>
<glyph glyph-name="uni00A0" horiz-adv-x="512" unicode=" "/>
<glyph glyph-name="exclamdown" horiz-adv-x="646" unicode="¡" d="M83 -321l113 905h253l108 -905h-474zM130 680v365h386v-365h-386z"/>
<glyph glyph-name="cent" d="M709 234v-257h-191v257q-201 44 -298.5 174.5t-97.5 306.5q0 198 103.5 332.5t292.5 172.5v204h191v-204q321 -53 369 -368l-334 -26q-3 66 -36.5 108t-83.5 42q-127 0 -127 -249q0 -236 128 -236q109 0 132 137l321 -27q-58 -314 -369 -367z" unicode="¢"/>
<glyph glyph-name="sterling" d="M850 856v-242h-181q0 -108 -31.5 -181.5t-111.5 -138.5h169q80 0 122 41t59 127l321 -62q-43 -193 -168.5 -296.5t-301.5 -103.5h-689v294h60q102 0 146 54t44 123q0 59 -18 143h-172v242h130q-14 85 -14 140q0 198 149.5 310.5t351.5 112.5q149 0 269.5 -70t167.5 -218 l-302 -107q-41 112 -122 112q-50 0 -80.5 -32t-30.5 -87q0 -59 21 -161h212z" unicode="£"/>
<glyph glyph-name="currency" horiz-adv-x="1365" unicode="¤" d="M962 773q0 115 -81.5 197t-196.5 82q-116 0 -197.5 -82.5t-81.5 -196.5q0 -115 82 -197.5t196 -82.5q115 0 197 82t82 198zM41 282l212 211q-90 131 -90 280q0 154 90 282l-212 212l144 145l212 -211q132 88 286 88t282 -88l211 211l144 -145l-209 -209q93 -141 93 -285 q0 -150 -89 -280l211 -211l-143 -144l-210 209q-138 -91 -289 -91q-150 0 -287 91l-212 -209z"/>
<glyph glyph-name="yen" horiz-adv-x="1199" unicode="¥" d="M957 915h162v-205h-262l-47 -96h309v-204h-327v-410h-353v410h-332v204h312l-50 96h-262v205h153l-239 450h391l238 -490l230 490h298z"/>
<glyph glyph-name="brokenbar" horiz-adv-x="1024" unicode="¦" d="M371 314h283v-655h-283v655zM371 1365h283v-713h-283v713z"/>
<glyph glyph-name="section" d="M731 427q61 45 61 91q0 52 -56.5 85t-245.5 106q-55 -45 -55 -100q0 -32 30.5 -61.5t265.5 -120.5zM117 -40l295 49q70 -130 222 -130q74 0 116.5 28t42.5 69q0 45 -43.5 77t-181.5 84q-174 65 -257 112.5t-126.5 118t-43.5 172.5q0 142 120 285q-99 81 -99 222 q0 160 130.5 249.5t334.5 89.5q319 0 434 -245l-247 -71q-52 113 -194 113q-58 0 -95.5 -21t-37.5 -52q0 -40 35.5 -65.5t205.5 -93.5q145 -58 204 -94t101.5 -111t42.5 -163q0 -140 -113 -262q144 -99 144 -275q0 -172 -135.5 -279.5t-360.5 -107.5q-364 0 -494 301z" unicode="§"/>
<glyph glyph-name="dieresis" horiz-adv-x="1024" unicode="¨" d="M693 1188q-55 0 -94.5 39t-39.5 93t39 92.5t94 38.5t93.5 -38.5t38.5 -92.5q0 -55 -39 -93.5t-92 -38.5zM332 1188q-55 0 -94 38.5t-39 93.5q0 53 38.5 92t94.5 39t94 -39.5t38 -92.5q0 -54 -39 -92.5t-93 -38.5z"/>
<glyph glyph-name="copyright" horiz-adv-x="1584" unicode="©" d="M908 595l259 -15q-17 -156 -119.5 -237.5t-248.5 -81.5q-179 0 -287 111t-108 304q0 192 103.5 310t288.5 118q332 0 371 -336l-265 -13q-2 153 -99 153q-111 0 -111 -228q0 -219 111 -219q95 0 105 134zM792 137q222 0 381 160.5t159 385.5q0 224 -158.5 384.5 t-381.5 160.5t-381.5 -160.5t-158.5 -384.5q0 -226 158 -386t382 -160zM792 -21q-291 0 -497 206.5t-206 497.5q0 288 206 495.5t497 207.5t497 -207t206 -496q0 -290 -206.5 -497t-496.5 -207z"/>
<glyph glyph-name="ordfeminine" horiz-adv-x="786" unicode="ª" d="M461 1053q-150 -18 -150 -95q0 -54 58 -54q56 0 74 31.5t18 117.5zM735 767h-259q-7 32 -9 62q-60 -74 -196 -74q-103 0 -166.5 52.5t-63.5 131.5q0 205 413 225q0 50 -13 64.5t-51 14.5q-78 0 -91 -60q-1 -2 -2 -6l-240 22q48 194 341 194q132 0 205 -36.5t91.5 -79.5 t18.5 -147v-239q0 -70 22 -124z"/>
<glyph glyph-name="guillemotleft" horiz-adv-x="771" unicode="«" d="M381 784l-107 -293l107 -271h-140l-179 271l179 293h140zM696 784l-105 -293l105 -271h-141l-174 271l174 293h141z"/>
<glyph glyph-name="logicalnot" d="M763 0v301h-606v253h887v-554h-281z" unicode="¬"/>
<glyph glyph-name="uni00AD" horiz-adv-x="563" unicode="­" d="M535 673v-314h-507v314h507z"/>
<glyph glyph-name="registered" horiz-adv-x="1584" unicode="®" d="M692 755h90q95 0 95 72q0 71 -87 71h-98v-143zM1140 300h-274l-111 292h-63v-292h-248v765h403q129 0 208.5 -60t79.5 -172q0 -139 -134 -201zM792 137q222 0 381 160.5t159 385.5q0 224 -158.5 384.5t-381.5 160.5t-381.5 -160.5t-158.5 -384.5q0 -226 158 -386 t382 -160zM792 -21q-291 0 -497 206.5t-206 497.5q0 288 206 495.5t497 207.5t497 -207t206 -496q0 -290 -206.5 -497t-496.5 -207z"/>
<glyph glyph-name="uni00AF" horiz-adv-x="1024" unicode="¯" d="M0 1830h1024v-239h-1024v239z"/>
<glyph glyph-name="degree" d="M464 1087q0 -58 40.5 -98.5t95.5 -40.5q57 0 97.5 40t40.5 98t-41 99t-97 41q-57 0 -96.5 -41t-39.5 -98zM297 1087q0 123 89 211t215 88q125 0 214.5 -87.5t89.5 -212.5q0 -124 -89.5 -212t-214.5 -88q-126 0 -215 88.5t-89 212.5z" unicode="°"/>
<glyph glyph-name="plusminus" d="M1098 134v-254h-995v254h995zM1098 837v-254h-370v-363h-255v363h-370v254h370v363h255v-363h370z" unicode="±"/>
<glyph glyph-name="twosuperior" horiz-adv-x="792" unicode="²" d="M736 755l-10 -209h-687v194l154 98q267 170 267 268q0 79 -81 79q-96 0 -105 -141l-235 42q25 148 124.5 220t234.5 72q147 0 239.5 -72.5t92.5 -191.5q0 -82 -49.5 -151.5t-276.5 -207.5h332z"/>
<glyph glyph-name="threesuperior" horiz-adv-x="792" unicode="³" d="M15 803l243 28q17 -111 126 -111q105 0 105 83q0 79 -113 79h-113v167h96q109 0 109 71q0 72 -89 72q-88 0 -106 -93l-226 32q28 119 125.5 183t229.5 64q149 0 238.5 -64t89.5 -169q0 -124 -120 -171q146 -48 146 -190q0 -120 -99 -185t-256 -65q-316 0 -386 269z"/>
<glyph glyph-name="acute" horiz-adv-x="1024" unicode="´" d="M288 1298l457 224l73 -195l-478 -166z"/>
<glyph glyph-name="uni00B5" d="M99 -341v1351h399v-514q0 -172 21 -219.5t80 -47.5q62 0 83.5 46.5t21.5 220.5v514h399v-1010h-310l-13 150q-15 -84 -48.5 -127.5t-107.5 -43.5q-96 0 -140 131v-451h-385z" unicode="µ"/>
<glyph glyph-name="paragraph" d="M619 810v397q-111 0 -150.5 -13.5t-65.5 -58t-26 -129.5q0 -81 28.5 -127t70.5 -57.5t143 -11.5zM1206 1365v-158h-137v-1528h-151v1528h-141v-1528h-158v974h-86q-192 0 -260.5 6t-134 47t-104.5 122t-39 186q0 137 66.5 222.5t160 107t320.5 21.5h664z" unicode="¶"/>
<glyph glyph-name="uni00B7" horiz-adv-x="380" unicode="·" d="M380 698v-365h-380v365h380z"/>
<glyph glyph-name="cedilla" horiz-adv-x="1024" unicode="¸" d="M448 0h112l-36 -100q21 1 34 1q68 0 109.5 -43.5t41.5 -108.5q0 -81 -60.5 -125t-156.5 -44q-117 0 -228 66l38 82q83 -45 156 -45q81 0 81 65q0 79 -129 79q-10 0 -28 -1z"/>
<glyph glyph-name="onesuperior" horiz-adv-x="792" unicode="¹" d="M569 737h182v-191h-639v191h192v371q-116 -48 -195 -58v193q194 39 259 135h201v-641z"/>
<glyph glyph-name="ordmasculine" horiz-adv-x="796" unicode="º" d="M397 911q42 0 57 40.5t15 120.5q0 95 -17 127.5t-54 32.5q-72 0 -72 -159q0 -94 17 -128t54 -34zM394 755q-168 0 -260.5 97.5t-92.5 219.5q0 137 99.5 229t258.5 92q157 0 256 -89t99 -234q0 -130 -98 -222.5t-262 -92.5z"/>
<glyph glyph-name="guillemotright" horiz-adv-x="771" unicode="»" d="M390 220l107 292l-107 272h141l178 -272l-178 -292h-141zM75 220l106 292l-106 272h142l173 -272l-173 -292h-142z"/>
<glyph glyph-name="onequarter" horiz-adv-x="1802" unicode="¼" d="M1434 344v297l-212 -297h212zM1786 177h-126v-177h-248v177h-370v184l337 470h281v-466h126v-188zM1384 1365l-829 -1365h-216l834 1365h211zM477 737h141v-191h-598v191h192v371q-116 -48 -195 -58v193q194 39 259 135h201v-641z"/>
<glyph glyph-name="onehalf" horiz-adv-x="1802" unicode="½" d="M1771 209l-10 -209h-687v194l154 98q121 78 194 145.5t73 121.5q0 80 -81 80q-96 0 -105 -141l-235 42q25 148 124 220t235 72q148 0 240 -72t92 -192q0 -81 -49 -151t-277 -208h332zM1411 1365l-829 -1365h-217l835 1365h211zM490 737h154v-191h-611v191h192v371 q-116 -48 -195 -58v193q194 39 259 135h201v-641z"/>
<glyph glyph-name="threequarters" horiz-adv-x="1802" unicode="¾" d="M1450 344v297l-212 -297h212zM1802 177h-126v-177h-248v177h-370v184l337 470h281v-466h126v-188zM1469 1365l-830 -1365h-216l835 1365h211zM-5 803l243 28q17 -111 126 -111q105 0 105 83q0 79 -113 79h-113v167h96q109 0 109 71q0 72 -89 72q-88 0 -106 -93l-226 32 q28 119 125.5 183t229.5 64q149 0 238.5 -64t89.5 -169q0 -124 -120 -171q146 -48 146 -190q0 -120 -99 -185t-256 -65q-316 0 -386 269z"/>
<glyph glyph-name="questiondown" horiz-adv-x="1119" unicode="¿" d="M732 168l367 -40q-84 -469 -545 -469q-232 0 -366 122t-134 304q0 121 50.5 196t178.5 169q76 55 93 78.5t24 65.5h332q-1 -125 -22 -177t-88 -112q-101 -91 -126 -135.5t-25 -103.5q0 -62 33.5 -95.5t81.5 -33.5q144 0 146 231zM362 680v365h383v-365h-383z"/>
<glyph glyph-name="Agrave" horiz-adv-x="1306" unicode="À" d="M500 567h222l-111 396zM872 0l-77 269h-366l-82 -269h-340l422 1365h443l427 -1365h-427zM877 1619l-52 -137l-478 166l73 195z"/>
<glyph glyph-name="Aacute" horiz-adv-x="1306" unicode="Á" d="M500 567h222l-111 396zM872 0l-77 269h-366l-82 -269h-340l422 1365h443l427 -1365h-427zM429 1619l457 224l73 -195l-478 -166z"/>
<glyph glyph-name="Acircumflex" horiz-adv-x="1306" unicode="Â" d="M500 567h222l-111 396zM872 0l-77 269h-366l-82 -269h-340l422 1365h443l427 -1365h-427zM1052 1516l-232 -21l-170 130l-169 -130l-232 21l401 318z"/>
<glyph glyph-name="Atilde" horiz-adv-x="1306" unicode="Ã" d="M500 567h222l-111 396zM872 0l-77 269h-366l-82 -269h-340l422 1365h443l427 -1365h-427zM921 1754l100 -117q-122 -128 -244 -128q-62 0 -157 49q-64 33 -100 33q-70 0 -136 -78l-98 117q121 128 233 128q58 0 136 -40q84 -43 118 -43q64 0 148 79z"/>
<glyph glyph-name="Adieresis" horiz-adv-x="1306" unicode="Ä" d="M500 567h222l-111 396zM872 0l-77 269h-366l-82 -269h-340l422 1365h443l427 -1365h-427zM834 1511q-55 0 -94.5 39t-39.5 93t39 92.5t94 38.5t93.5 -38.5t38.5 -92.5q0 -55 -39 -93.5t-92 -38.5zM473 1511q-55 0 -94 38.5t-39 93.5q0 53 38.5 92t94.5 39t94 -39.5 t38 -92.5q0 -54 -39 -92.5t-93 -38.5z"/>
<glyph glyph-name="Aring" horiz-adv-x="1306" unicode="Å" d="M500 567h222l-111 396zM872 0l-77 269h-366l-82 -269h-340l422 1365h443l427 -1365h-427zM656 1594q31 0 53.5 22t22.5 55q0 29 -22.5 51t-53.5 22t-53 -22.5t-22 -52.5q0 -31 22 -53t53 -22zM656 1468q-83 0 -142 58.5t-59 141.5t59 142t142 59q84 0 143 -58.5 t59 -141.5q0 -84 -59.5 -142.5t-142.5 -58.5z"/>
<glyph glyph-name="AE" horiz-adv-x="1865" unicode="Æ" d="M566 568h215v482zM1818 326v-326h-1037v283h-326l-127 -283h-355l609 1365h1222v-315h-609v-198h493v-303h-493v-223h623z"/>
<glyph glyph-name="Ccedilla" horiz-adv-x="1287" unicode="Ç" d="M707 -20l-31 -85q22 2 36 2q70 0 113 -45.5t43 -113.5q0 -84 -63 -130t-162 -46q-121 0 -238 70l40 85q86 -47 163 -47q83 0 83 68q0 44 -42.5 63t-91.5 19q-10 0 -29 -1l63 166q-252 31 -392.5 214.5t-140.5 471.5q0 321 162 518t452 197q271 0 416.5 -150t164.5 -398 l-391 -21q0 137 -52.5 198t-123.5 61q-198 0 -198 -398q0 -223 51.5 -303t144.5 -80q166 0 186 226l383 -23q-27 -244 -177 -377t-369 -141z"/>
<glyph glyph-name="Egrave" horiz-adv-x="1193" unicode="È" d="M1146 326v-326h-1027v1365h1027v-315h-616v-198h498v-303h-498v-223h616zM832 1619l-52 -137l-478 166l73 195z"/>
<glyph glyph-name="Eacute" horiz-adv-x="1193" unicode="É" d="M1146 326v-326h-1027v1365h1027v-315h-616v-198h498v-303h-498v-223h616zM449 1619l457 224l73 -195l-478 -166z"/>
<glyph glyph-name="Ecircumflex" horiz-adv-x="1193" unicode="Ê" d="M1146 326v-326h-1027v1365h1027v-315h-616v-198h498v-303h-498v-223h616zM1034 1516l-232 -21l-170 130l-169 -130l-232 21l401 318z"/>
<glyph glyph-name="Edieresis" horiz-adv-x="1193" unicode="Ë" d="M1146 326v-326h-1027v1365h1027v-315h-616v-198h498v-303h-498v-223h616zM807 1511q-55 0 -94.5 39t-39.5 93t39 92.5t94 38.5t93.5 -38.5t38.5 -92.5q0 -55 -39 -93.5t-92 -38.5zM446 1511q-55 0 -94 38.5t-39 93.5q0 53 38.5 92t94.5 39t94 -39.5t38 -92.5 q0 -54 -39 -92.5t-93 -38.5z"/>
<glyph glyph-name="Igrave" horiz-adv-x="657" unicode="Ì" d="M538 1365v-1365h-419v1365h419zM565 1619l-52 -137l-478 166l73 195z"/>
<glyph glyph-name="Iacute" horiz-adv-x="657" unicode="Í" d="M538 1365v-1365h-419v1365h419zM117 1619l457 224l73 -195l-478 -166z"/>
<glyph glyph-name="Icircumflex" horiz-adv-x="657" unicode="Î" d="M538 1365v-1365h-419v1365h419zM785 1516l-232 -21l-170 130l-169 -130l-232 21l401 318z"/>
<glyph glyph-name="Idieresis" horiz-adv-x="657" unicode="Ï" d="M538 1365v-1365h-419v1365h419zM527 1511q-55 0 -94.5 39t-39.5 93t39 92.5t94 38.5t93.5 -38.5t38.5 -92.5q0 -55 -39 -93.5t-92 -38.5zM166 1511q-55 0 -94 38.5t-39 93.5q0 53 38.5 92t94.5 39t94 -39.5t38 -92.5q0 -54 -39 -92.5t-93 -38.5z"/>
<glyph glyph-name="Eth" horiz-adv-x="1391" unicode="Ð" d="M538 801h195v-200h-195v-287h109q104 0 175.5 101t71.5 275q0 140 -60.5 252.5t-186.5 112.5h-109v-254zM119 1365h528q344 0 515 -204t171 -472q0 -306 -183.5 -497.5t-475.5 -191.5h-555v601h-112v200h112v564z"/>
<glyph glyph-name="Ntilde" horiz-adv-x="1405" unicode="Ñ" d="M1286 0h-341l-374 603q-72 116 -145 282q33 -132 33 -224v-661h-340v1365h396l318 -500q95 -149 144 -262q-32 175 -32 358v404h341v-1365zM970 1754l100 -117q-122 -128 -244 -128q-62 0 -157 49q-64 33 -100 33q-70 0 -136 -78l-98 117q121 128 233 128q58 0 136 -40 q84 -43 118 -43q64 0 148 79z"/>
<glyph glyph-name="Ograve" horiz-adv-x="1415" unicode="Ò" d="M707 289q106 0 152.5 92.5t46.5 338.5q0 356 -191 356q-206 0 -206 -406q0 -381 198 -381zM709 -21q-288 0 -469.5 191t-181.5 511q0 306 173.5 505.5t481.5 199.5q285 0 464.5 -188t179.5 -502q0 -325 -181 -521t-467 -196zM916 1619l-52 -137l-478 166l73 195z"/>
<glyph glyph-name="Oacute" horiz-adv-x="1415" unicode="Ó" d="M707 289q106 0 152.5 92.5t46.5 338.5q0 356 -191 356q-206 0 -206 -406q0 -381 198 -381zM709 -21q-288 0 -469.5 191t-181.5 511q0 306 173.5 505.5t481.5 199.5q285 0 464.5 -188t179.5 -502q0 -325 -181 -521t-467 -196zM525 1619l457 224l73 -195l-478 -166z"/>
<glyph glyph-name="Ocircumflex" horiz-adv-x="1415" unicode="Ô" d="M707 289q106 0 152.5 92.5t46.5 338.5q0 356 -191 356q-206 0 -206 -406q0 -381 198 -381zM709 -21q-288 0 -469.5 191t-181.5 511q0 306 173.5 505.5t481.5 199.5q285 0 464.5 -188t179.5 -502q0 -325 -181 -521t-467 -196zM1109 1516l-232 -21l-170 130l-169 -130 l-232 21l401 318z"/>
<glyph glyph-name="Otilde" horiz-adv-x="1415" unicode="Õ" d="M707 289q106 0 152.5 92.5t46.5 338.5q0 356 -191 356q-206 0 -206 -406q0 -381 198 -381zM709 -21q-288 0 -469.5 191t-181.5 511q0 306 173.5 505.5t481.5 199.5q285 0 464.5 -188t179.5 -502q0 -325 -181 -521t-467 -196zM989 1754l100 -117q-122 -128 -244 -128 q-62 0 -157 49q-64 33 -100 33q-70 0 -136 -78l-98 117q121 128 233 128q58 0 136 -40q84 -43 118 -43q64 0 148 79z"/>
<glyph glyph-name="Odieresis" horiz-adv-x="1415" unicode="Ö" d="M707 289q106 0 152.5 92.5t46.5 338.5q0 356 -191 356q-206 0 -206 -406q0 -381 198 -381zM709 -21q-288 0 -469.5 191t-181.5 511q0 306 173.5 505.5t481.5 199.5q285 0 464.5 -188t179.5 -502q0 -325 -181 -521t-467 -196zM882 1511q-55 0 -94.5 39t-39.5 93t39 92.5 t94 38.5t93.5 -38.5t38.5 -92.5q0 -55 -39 -93.5t-92 -38.5zM521 1511q-55 0 -94 38.5t-39 93.5q0 53 38.5 92t94.5 39t94 -39.5t38 -92.5q0 -54 -39 -92.5t-93 -38.5z"/>
<glyph glyph-name="multiply" d="M882 1159l180 -180l-281 -280l281 -281l-180 -180l-281 281l-281 -281l-180 180l281 281l-281 280l180 180l281 -280z" unicode="×"/>
<glyph glyph-name="Oslash" horiz-adv-x="1415" unicode="Ø" d="M902 830l-304 -502q43 -39 109 -39q106 0 152.5 92.5t46.5 338.5q0 50 -4 110zM516 544l301 496q-42 36 -101 36q-207 0 -207 -401q0 -59 7 -131zM270 140q-212 196 -212 539q0 312 176 509.5t470 197.5q169 0 290 -56l90 149h211l-151 -249q213 -194 213 -534 q0 -327 -182.5 -522t-459.5 -195q-164 0 -293 60l-92 -152h-214z"/>
<glyph glyph-name="Ugrave" horiz-adv-x="1331" unicode="Ù" d="M1226 1365v-904q0 -257 -152.5 -369.5t-397.5 -112.5q-258 0 -414.5 108t-156.5 352v926h426v-877q0 -98 41.5 -143t132.5 -45q76 0 124.5 32.5t58 73.5t9.5 160v799h329zM893 1619l-52 -137l-478 166l73 195z"/>
<glyph glyph-name="Uacute" horiz-adv-x="1331" unicode="Ú" d="M1226 1365v-904q0 -257 -152.5 -369.5t-397.5 -112.5q-258 0 -414.5 108t-156.5 352v926h426v-877q0 -98 41.5 -143t132.5 -45q76 0 124.5 32.5t58 73.5t9.5 160v799h329zM498 1619l457 224l73 -195l-478 -166z"/>
<glyph glyph-name="Ucircumflex" horiz-adv-x="1331" unicode="Û" d="M1226 1365v-904q0 -257 -152.5 -369.5t-397.5 -112.5q-258 0 -414.5 108t-156.5 352v926h426v-877q0 -98 41.5 -143t132.5 -45q76 0 124.5 32.5t58 73.5t9.5 160v799h329zM1094 1516l-232 -21l-170 130l-169 -130l-232 21l401 318z"/>
<glyph glyph-name="Udieresis" horiz-adv-x="1331" unicode="Ü" d="M1226 1365v-904q0 -257 -152.5 -369.5t-397.5 -112.5q-258 0 -414.5 108t-156.5 352v926h426v-877q0 -98 41.5 -143t132.5 -45q76 0 124.5 32.5t58 73.5t9.5 160v799h329zM846 1511q-55 0 -94.5 39t-39.5 93t39 92.5t94 38.5t93.5 -38.5t38.5 -92.5q0 -55 -39 -93.5 t-92 -38.5zM485 1511q-55 0 -94 38.5t-39 93.5q0 53 38.5 92t94.5 39t94 -39.5t38 -92.5q0 -54 -39 -92.5t-93 -38.5z"/>
<glyph glyph-name="Yacute" horiz-adv-x="1211" unicode="Ý" d="M1252 1365l-427 -787v-578h-407v578l-459 787h459l239 -449l229 449h366zM453 1619l457 224l73 -195l-478 -166z"/>
<glyph glyph-name="Thorn" horiz-adv-x="1331" unicode="Þ" d="M538 598h140q185 0 185 136q0 127 -171 127h-154v-263zM544 0h-425v1365h425v-191h158q218 0 332 -50t180 -153t66 -231q0 -196 -136 -316t-363 -120h-237v-304z"/>
<glyph glyph-name="germandbls" horiz-adv-x="1319" unicode="ß" d="M491 -130h-375v814h-74v250h74q12 276 170 408.5t401 132.5q226 0 336 -95t110 -227q0 -251 -340 -309q32 -15 103 -44q222 -92 305.5 -194.5t83.5 -236.5q0 -170 -131.5 -286.5t-336.5 -116.5q-154 0 -248 34l88 272q60 -40 137 -40q138 0 138 91q0 41 -25 66t-112 71 q-147 79 -199 136t-52 141q0 147 105 273q126 0 126 100q0 44 -33 74t-84 30q-167 0 -167 -224v-1120z"/>
<glyph glyph-name="agrave" d="M716 476q-255 -27 -255 -163q0 -92 101 -92q64 0 109 38t45 168v49zM1130 0h-380q-14 65 -14 142q-108 -163 -327 -163q-180 0 -269.5 92t-89.5 211q0 161 146.5 260.5t519.5 119.5v23q0 67 -30.5 89t-89.5 22q-138 0 -154 -111l-364 34q78 319 531 319q123 0 226 -24.5 t163 -76.5t80.5 -110t20.5 -223v-406q0 -116 31 -198zM834 1298l-52 -137l-478 166l73 195z" unicode="à"/>
<glyph glyph-name="aacute" d="M716 476q-255 -27 -255 -163q0 -92 101 -92q64 0 109 38t45 168v49zM1130 0h-380q-14 65 -14 142q-108 -163 -327 -163q-180 0 -269.5 92t-89.5 211q0 161 146.5 260.5t519.5 119.5v23q0 67 -30.5 89t-89.5 22q-138 0 -154 -111l-364 34q78 319 531 319q123 0 226 -24.5 t163 -76.5t80.5 -110t20.5 -223v-406q0 -116 31 -198zM415 1298l457 224l73 -195l-478 -166z" unicode="á"/>
<glyph glyph-name="acircumflex" d="M716 476q-255 -27 -255 -163q0 -92 101 -92q64 0 109 38t45 168v49zM1130 0h-380q-14 65 -14 142q-108 -163 -327 -163q-180 0 -269.5 92t-89.5 211q0 161 146.5 260.5t519.5 119.5v23q0 67 -30.5 89t-89.5 22q-138 0 -154 -111l-364 34q78 319 531 319q123 0 226 -24.5 t163 -76.5t80.5 -110t20.5 -223v-406q0 -116 31 -198zM1025 1195l-232 -21l-170 130l-169 -130l-232 21l401 318z" unicode="â"/>
<glyph glyph-name="atilde" d="M716 476q-255 -27 -255 -163q0 -92 101 -92q64 0 109 38t45 168v49zM1130 0h-380q-14 65 -14 142q-108 -163 -327 -163q-180 0 -269.5 92t-89.5 211q0 161 146.5 260.5t519.5 119.5v23q0 67 -30.5 89t-89.5 22q-138 0 -154 -111l-364 34q78 319 531 319q123 0 226 -24.5 t163 -76.5t80.5 -110t20.5 -223v-406q0 -116 31 -198zM892 1429l100 -117q-122 -128 -244 -128q-62 0 -157 49q-64 33 -100 33q-70 0 -136 -78l-98 117q121 128 233 128q58 0 136 -40q84 -43 118 -43q64 0 148 79z" unicode="ã"/>
<glyph glyph-name="adieresis" d="M716 476q-255 -27 -255 -163q0 -92 101 -92q64 0 109 38t45 168v49zM1130 0h-380q-14 65 -14 142q-108 -163 -327 -163q-180 0 -269.5 92t-89.5 211q0 161 146.5 260.5t519.5 119.5v23q0 67 -30.5 89t-89.5 22q-138 0 -154 -111l-364 34q78 319 531 319q123 0 226 -24.5 t163 -76.5t80.5 -110t20.5 -223v-406q0 -116 31 -198zM801 1188q-55 0 -94.5 39t-39.5 93t39 92.5t94 38.5t93.5 -38.5t38.5 -92.5q0 -55 -39 -93.5t-92 -38.5zM440 1188q-55 0 -94 38.5t-39 93.5q0 53 38.5 92t94.5 39t94 -39.5t38 -92.5q0 -54 -39 -92.5t-93 -38.5z" unicode="ä"/>
<glyph glyph-name="aring" d="M716 476q-255 -27 -255 -163q0 -92 101 -92q64 0 109 38t45 168v49zM1130 0h-380q-14 65 -14 142q-108 -163 -327 -163q-180 0 -269.5 92t-89.5 211q0 161 146.5 260.5t519.5 119.5v23q0 67 -30.5 89t-89.5 22q-138 0 -154 -111l-364 34q78 319 531 319q123 0 226 -24.5 t163 -76.5t80.5 -110t20.5 -223v-406q0 -116 31 -198zM621 1273q31 0 53.5 22t22.5 55q0 29 -22.5 51t-53.5 22t-53 -22.5t-22 -52.5q0 -31 22 -53t53 -22zM621 1147q-83 0 -142 58.5t-59 141.5t59 142t142 59q84 0 143 -58.5t59 -141.5q0 -84 -59.5 -142.5t-142.5 -58.5z " unicode="å"/>
<glyph glyph-name="ae" horiz-adv-x="1627" unicode="æ" d="M649 479q-220 -33 -220 -163q0 -44 25.5 -69.5t62.5 -25.5q136 0 136 201q0 18 -4 57zM1224 633q0 175 -128 175t-130 -175h258zM1573 436h-606q4 -192 144 -192q118 0 134 125l328 -25q-30 -164 -159 -264.5t-308 -100.5q-236 0 -383 173q-127 -173 -351 -173 q-157 0 -239 90t-82 212q0 158 124.5 257t473.5 128v32q0 98 -104 98q-112 0 -133 -112l-338 35q80 319 489 319q167 0 271 -70q118 70 255 70q226 0 357 -150t131 -377q0 -23 -4 -75z"/>
<glyph glyph-name="ccedilla" horiz-adv-x="1071" unicode="ç" d="M606 -20l-29 -80q21 1 35 1q67 0 108.5 -43.5t41.5 -108.5q0 -81 -60.5 -125t-156.5 -44q-117 0 -228 66l39 82q83 -45 155 -45q81 0 81 65q0 79 -129 79q-10 0 -28 -1l60 157q-199 22 -321.5 169t-122.5 349q0 234 144.5 385.5t375.5 151.5q205 0 334 -114.5t148 -289.5 l-349 -29q-22 161 -122 161q-64 0 -93.5 -58.5t-29.5 -203.5q0 -125 29.5 -185t102.5 -60q107 0 127 151l340 -29q-61 -375 -452 -401z"/>
<glyph glyph-name="egrave" d="M751 629q-1 103 -41.5 138.5t-100.5 35.5q-142 0 -142 -174h284zM777 365l372 -25q-33 -150 -168.5 -255.5t-366.5 -105.5q-257 0 -410 148.5t-153 368.5q0 228 151 385t403 157q244 0 394.5 -148t150.5 -403q0 -21 -1 -58h-681q2 -96 34 -142.5t122 -46.5q130 0 153 125 zM832 1298l-52 -137l-478 166l73 195z" unicode="è"/>
<glyph glyph-name="eacute" d="M751 629q-1 103 -41.5 138.5t-100.5 35.5q-142 0 -142 -174h284zM777 365l372 -25q-33 -150 -168.5 -255.5t-366.5 -105.5q-257 0 -410 148.5t-153 368.5q0 228 151 385t403 157q244 0 394.5 -148t150.5 -403q0 -21 -1 -58h-681q2 -96 34 -142.5t122 -46.5q130 0 153 125 zM408 1298l457 224l73 -195l-478 -166z" unicode="é"/>
<glyph glyph-name="ecircumflex" d="M751 629q-1 103 -41.5 138.5t-100.5 35.5q-142 0 -142 -174h284zM777 365l372 -25q-33 -150 -168.5 -255.5t-366.5 -105.5q-257 0 -410 148.5t-153 368.5q0 228 151 385t403 157q244 0 394.5 -148t150.5 -403q0 -21 -1 -58h-681q2 -96 34 -142.5t122 -46.5q130 0 153 125 zM1021 1195l-232 -21l-170 130l-169 -130l-232 21l401 318z" unicode="ê"/>
<glyph glyph-name="edieresis" d="M751 629q-1 103 -41.5 138.5t-100.5 35.5q-142 0 -142 -174h284zM777 365l372 -25q-33 -150 -168.5 -255.5t-366.5 -105.5q-257 0 -410 148.5t-153 368.5q0 228 151 385t403 157q244 0 394.5 -148t150.5 -403q0 -21 -1 -58h-681q2 -96 34 -142.5t122 -46.5q130 0 153 125 zM796 1188q-55 0 -94.5 39t-39.5 93t39 92.5t94 38.5t93.5 -38.5t38.5 -92.5q0 -55 -39 -93.5t-92 -38.5zM435 1188q-55 0 -94 38.5t-39 93.5q0 53 38.5 92t94.5 39t94 -39.5t38 -92.5q0 -54 -39 -92.5t-93 -38.5z" unicode="ë"/>
<glyph glyph-name="igrave" horiz-adv-x="609" unicode="ì" d="M504 1017v-1017h-399v1017h399zM517 1298l-52 -137l-478 166l73 195z"/>
<glyph glyph-name="iacute" horiz-adv-x="609" unicode="í" d="M504 1017v-1017h-399v1017h399zM96 1298l457 224l73 -195l-478 -166z"/>
<glyph glyph-name="icircumflex" horiz-adv-x="609" unicode="î" d="M504 1017v-1017h-399v1017h399zM706 1195l-232 -21l-170 130l-169 -130l-232 21l401 318z"/>
<glyph glyph-name="idieresis" horiz-adv-x="609" unicode="ï" d="M504 1017v-1017h-399v1017h399zM502 1188q-55 0 -94.5 39t-39.5 93t39 92.5t94 38.5t93.5 -38.5t38.5 -92.5q0 -55 -39 -93.5t-92 -38.5zM141 1188q-55 0 -94 38.5t-39 93.5q0 53 38.5 92t94.5 39t94 -39.5t38 -92.5q0 -54 -39 -92.5t-93 -38.5z"/>
<glyph glyph-name="eth" horiz-adv-x="1216" unicode="ð" d="M606 767q-71 0 -101 -65t-30 -207q0 -138 29 -206t103 -68q78 0 106 74t28 201q0 271 -135 271zM366 1196l151 67q-46 37 -178 72l70 120q157 -32 307 -96l214 96l66 -126l-143 -63q132 -95 222 -288t90 -405q0 -297 -153.5 -445.5t-386.5 -148.5q-274 0 -422 161 t-148 367t142.5 355t339.5 149q127 0 208 -62q-36 124 -119 216l-201 -89z"/>
<glyph glyph-name="ntilde" horiz-adv-x="1203" unicode="ñ" d="M1098 0h-399v640q0 79 -24.5 101t-61.5 22q-109 0 -109 -152v-611h-399v1017h370v-144q82 165 293 165q111 0 187.5 -42.5t109.5 -110t33 -234.5v-651zM869 1433l100 -117q-122 -128 -244 -128q-62 0 -157 49q-64 33 -100 33q-70 0 -136 -78l-98 117q121 128 233 128 q58 0 136 -40q84 -43 118 -43q64 0 148 79z"/>
<glyph glyph-name="ograve" horiz-adv-x="1217" unicode="ò" d="M608 221q93 0 113.5 96.5t20.5 201.5q0 143 -29 206t-104 63q-69 0 -101 -65t-32 -214q0 -175 33 -231.5t99 -56.5zM602 -21q-253 0 -402 157.5t-149 369.5q0 228 155.5 380t404.5 152q251 0 403.5 -150t152.5 -376q0 -228 -154.5 -380.5t-410.5 -152.5zM827 1298 l-52 -137l-478 166l73 195z"/>
<glyph glyph-name="oacute" horiz-adv-x="1217" unicode="ó" d="M608 221q93 0 113.5 96.5t20.5 201.5q0 143 -29 206t-104 63q-69 0 -101 -65t-32 -214q0 -175 33 -231.5t99 -56.5zM602 -21q-253 0 -402 157.5t-149 369.5q0 228 155.5 380t404.5 152q251 0 403.5 -150t152.5 -376q0 -228 -154.5 -380.5t-410.5 -152.5zM412 1298 l457 224l73 -195l-478 -166z"/>
<glyph glyph-name="ocircumflex" horiz-adv-x="1217" unicode="ô" d="M608 221q93 0 113.5 96.5t20.5 201.5q0 143 -29 206t-104 63q-69 0 -101 -65t-32 -214q0 -175 33 -231.5t99 -56.5zM602 -21q-253 0 -402 157.5t-149 369.5q0 228 155.5 380t404.5 152q251 0 403.5 -150t152.5 -376q0 -228 -154.5 -380.5t-410.5 -152.5zM1010 1195 l-232 -21l-170 130l-169 -130l-232 21l401 318z"/>
<glyph glyph-name="otilde" horiz-adv-x="1217" unicode="õ" d="M608 221q93 0 113.5 96.5t20.5 201.5q0 143 -29 206t-104 63q-69 0 -101 -65t-32 -214q0 -175 33 -231.5t99 -56.5zM602 -21q-253 0 -402 157.5t-149 369.5q0 228 155.5 380t404.5 152q251 0 403.5 -150t152.5 -376q0 -228 -154.5 -380.5t-410.5 -152.5zM890 1433 l100 -117q-122 -128 -244 -128q-62 0 -157 49q-64 33 -100 33q-70 0 -136 -78l-98 117q121 128 233 128q58 0 136 -40q84 -43 118 -43q64 0 148 79z"/>
<glyph glyph-name="odieresis" horiz-adv-x="1217" unicode="ö" d="M608 221q93 0 113.5 96.5t20.5 201.5q0 143 -29 206t-104 63q-69 0 -101 -65t-32 -214q0 -175 33 -231.5t99 -56.5zM602 -21q-253 0 -402 157.5t-149 369.5q0 228 155.5 380t404.5 152q251 0 403.5 -150t152.5 -376q0 -228 -154.5 -380.5t-410.5 -152.5zM790 1188 q-55 0 -94.5 39t-39.5 93t39 92.5t94 38.5t93.5 -38.5t38.5 -92.5q0 -55 -39 -93.5t-92 -38.5zM429 1188q-55 0 -94 38.5t-39 93.5q0 53 38.5 92t94.5 39t94 -39.5t38 -92.5q0 -54 -39 -92.5t-93 -38.5z"/>
<glyph glyph-name="divide" d="M752 320q0 -65 -46 -110.5t-111 -45.5q-66 0 -114.5 45.5t-48.5 113.5q0 66 48 112.5t115 46.5t112 -48.5t45 -113.5zM1098 816v-253h-995v253h995zM752 1053q0 -65 -46 -110.5t-111 -45.5t-114 45.5t-49 113.5q0 66 48 112.5t114 46.5q71 0 114.5 -49.5t43.5 -112.5z " unicode="÷"/>
<glyph glyph-name="oslash" horiz-adv-x="1217" unicode="ø" d="M520 252q29 -31 88 -31q73 0 107.5 58t34.5 244q0 47 -5 98zM694 762q-31 26 -84 26q-72 0 -107.5 -58.5t-35.5 -229.5q0 -35 5 -97zM1109 1128l-139 -201q196 -153 196 -416q0 -231 -156.5 -381.5t-416.5 -150.5q-111 0 -214 40l-86 -128h-185l132 209 q-189 158 -189 407q0 227 155.5 379t406.5 152q111 0 221 -38l89 128h186z"/>
<glyph glyph-name="ugrave" horiz-adv-x="1199" unicode="ù" d="M1094 1017v-1017h-369v167q-81 -188 -316 -188q-145 0 -224.5 80.5t-79.5 230.5v727h399v-640q0 -60 16.5 -84.5t64.5 -24.5q51 0 83 36.5t32 102.5v610h394zM812 1298l-52 -137l-478 166l73 195z"/>
<glyph glyph-name="uacute" horiz-adv-x="1199" unicode="ú" d="M1094 1017v-1017h-369v167q-81 -188 -316 -188q-145 0 -224.5 80.5t-79.5 230.5v727h399v-640q0 -60 16.5 -84.5t64.5 -24.5q51 0 83 36.5t32 102.5v610h394zM396 1298l457 224l73 -195l-478 -166z"/>
<glyph glyph-name="ucircumflex" horiz-adv-x="1199" unicode="û" d="M1094 1017v-1017h-369v167q-81 -188 -316 -188q-145 0 -224.5 80.5t-79.5 230.5v727h399v-640q0 -60 16.5 -84.5t64.5 -24.5q51 0 83 36.5t32 102.5v610h394zM1001 1195l-232 -21l-170 130l-169 -130l-232 21l401 318z"/>
<glyph glyph-name="udieresis" horiz-adv-x="1199" unicode="ü" d="M1094 1017v-1017h-369v167q-81 -188 -316 -188q-145 0 -224.5 80.5t-79.5 230.5v727h399v-640q0 -60 16.5 -84.5t64.5 -24.5q51 0 83 36.5t32 102.5v610h394zM781 1188q-55 0 -94.5 39t-39.5 93t39 92.5t94 38.5t93.5 -38.5t38.5 -92.5q0 -55 -39 -93.5t-92 -38.5z M420 1188q-55 0 -94 38.5t-39 93.5q0 53 38.5 92t94.5 39t94 -39.5t38 -92.5q0 -54 -39 -92.5t-93 -38.5z"/>
<glyph glyph-name="yacute" horiz-adv-x="1049" unicode="ý" d="M1055 1017l-399 -1102q-46 -125 -132 -195.5t-265 -70.5q-43 0 -200 9v283q78 -12 144 -12q172 0 172 76q0 25 -17 69l-365 943h427l168 -542l176 542h291zM347 1298l457 224l73 -195l-478 -166z"/>
<glyph glyph-name="thorn" d="M504 372q0 -68 31 -105.5t77 -37.5q72 0 99 66.5t27 204.5q0 159 -31 223.5t-93 64.5q-37 0 -73.5 -29t-36.5 -95v-292zM504 -321h-399v1686h396v-469q69 142 259 142q177 0 282 -138t105 -389q0 -244 -105.5 -388t-278.5 -144q-170 0 -259 130v-430z" unicode="þ"/>
<glyph glyph-name="ydieresis" horiz-adv-x="1049" unicode="ÿ" d="M1055 1017l-399 -1102q-46 -125 -132 -195.5t-265 -70.5q-43 0 -200 9v283q78 -12 144 -12q172 0 172 76q0 25 -17 69l-365 943h427l168 -542l176 542h291zM723 1188q-55 0 -94.5 39t-39.5 93t39 92.5t94 38.5t93.5 -38.5t38.5 -92.5q0 -55 -39 -93.5t-92 -38.5z M362 1188q-55 0 -94 38.5t-39 93.5q0 53 38.5 92t94.5 39t94 -39.5t38 -92.5q0 -54 -39 -92.5t-93 -38.5z"/>
<glyph glyph-name="Amacron" horiz-adv-x="1306" unicode="Ā" d="M500 567h222l-111 396zM872 0l-77 269h-366l-82 -269h-340l422 1365h443l427 -1365h-427zM327 1547v155h647v-155h-647z"/>
<glyph glyph-name="amacron" d="M716 476q-255 -27 -255 -163q0 -92 101 -92q64 0 109 38t45 168v49zM1130 0h-380q-14 65 -14 142q-108 -163 -327 -163q-180 0 -269.5 92t-89.5 211q0 161 146.5 260.5t519.5 119.5v23q0 67 -30.5 89t-89.5 22q-138 0 -154 -111l-364 34q78 319 531 319q123 0 226 -24.5 t163 -76.5t80.5 -110t20.5 -223v-406q0 -116 31 -198zM297 1208v155h647v-155h-647z" unicode="ā"/>
<glyph glyph-name="Abreve" horiz-adv-x="1306" unicode="Ă" d="M500 567h222l-111 396zM872 0l-77 269h-366l-82 -269h-340l422 1365h443l427 -1365h-427zM839 1816h176q-35 -153 -137 -233.5t-226 -80.5q-122 0 -224 77t-141 237h176q69 -142 190 -142q122 0 186 142z"/>
<glyph glyph-name="abreve" d="M716 476q-255 -27 -255 -163q0 -92 101 -92q64 0 109 38t45 168v49zM1130 0h-380q-14 65 -14 142q-108 -163 -327 -163q-180 0 -269.5 92t-89.5 211q0 161 146.5 260.5t519.5 119.5v23q0 67 -30.5 89t-89.5 22q-138 0 -154 -111l-364 34q78 319 531 319q123 0 226 -24.5 t163 -76.5t80.5 -110t20.5 -223v-406q0 -116 31 -198zM813 1495h176q-35 -153 -137 -233.5t-226 -80.5q-122 0 -224 77t-141 237h176q69 -142 190 -142q122 0 186 142z" unicode="ă"/>
<glyph glyph-name="Aogonek" horiz-adv-x="1306" unicode="Ą" d="M500 567h222l-111 396zM1299 0q-140 -78 -140 -171q0 -94 112 -94q42 0 96 19l20 -90q-85 -40 -191 -40q-126 0 -175.5 51t-49.5 113q0 126 171 212h-270l-77 269h-366l-82 -269h-340l422 1365h443z"/>
<glyph glyph-name="aogonek" d="M716 476q-255 -27 -255 -163q0 -92 101 -92q64 0 109 38t45 168v49zM1130 0q-135 -75 -135 -164q0 -90 107 -90q41 0 92 18l20 -85q-83 -40 -183 -40q-115 0 -166 46.5t-51 111.5q0 121 165 203h-229q-14 65 -14 142q-108 -163 -327 -163q-180 0 -269.5 92t-89.5 211 q0 161 146.5 260.5t519.5 119.5v23q0 67 -30.5 89t-89.5 22q-138 0 -154 -111l-364 34q78 319 531 319q123 0 226 -24.5t163 -76.5t80.5 -110t20.5 -223v-406q0 -116 31 -198z" unicode="ą"/>
<glyph glyph-name="Cacute" horiz-adv-x="1287" unicode="Ć" d="M870 521l383 -23q-27 -251 -185.5 -385t-389.5 -134q-278 0 -449 184t-171 508q0 321 162 518t452 197q271 0 416.5 -150t164.5 -398l-391 -21q0 137 -52.5 198t-123.5 61q-198 0 -198 -398q0 -223 51.5 -303t144.5 -80q166 0 186 226zM493 1619l457 224l73 -195 l-478 -166z"/>
<glyph glyph-name="cacute" horiz-adv-x="1071" unicode="ć" d="M718 410l340 -29q-24 -178 -149.5 -290t-333.5 -112q-233 0 -378.5 146.5t-145.5 375.5q0 234 144.5 385.5t375.5 151.5q205 0 334 -114.5t148 -289.5l-349 -29q-22 161 -122 161q-64 0 -93.5 -58.5t-29.5 -203.5q0 -125 29.5 -185t102.5 -60q107 0 127 151zM377 1298 l457 224l73 -195l-478 -166z"/>
<glyph glyph-name="Ccircumflex" horiz-adv-x="1287" unicode="Ĉ" d="M870 521l383 -23q-27 -251 -185.5 -385t-389.5 -134q-278 0 -449 184t-171 508q0 321 162 518t452 197q271 0 416.5 -150t164.5 -398l-391 -21q0 137 -52.5 198t-123.5 61q-198 0 -198 -398q0 -223 51.5 -303t144.5 -80q166 0 186 226zM1088 1516l-232 -21l-170 130 l-169 -130l-232 21l401 318z"/>
<glyph glyph-name="ccircumflex" horiz-adv-x="1071" unicode="ĉ" d="M718 410l340 -29q-24 -178 -149.5 -290t-333.5 -112q-233 0 -378.5 146.5t-145.5 375.5q0 234 144.5 385.5t375.5 151.5q205 0 334 -114.5t148 -289.5l-349 -29q-22 161 -122 161q-64 0 -93.5 -58.5t-29.5 -203.5q0 -125 29.5 -185t102.5 -60q107 0 127 151zM984 1195 l-232 -21l-170 130l-169 -130l-232 21l401 318z"/>
<glyph glyph-name="Cdotaccent" horiz-adv-x="1287" unicode="Ċ" d="M870 521l383 -23q-27 -251 -185.5 -385t-389.5 -134q-278 0 -449 184t-171 508q0 321 162 518t452 197q271 0 416.5 -150t164.5 -398l-391 -21q0 137 -52.5 198t-123.5 61q-198 0 -198 -398q0 -223 51.5 -303t144.5 -80q166 0 186 226zM687 1508q-56 0 -96.5 40t-40.5 96 t40 95.5t96 39.5q57 0 97 -39.5t40 -95.5q0 -57 -40 -96.5t-96 -39.5z"/>
<glyph glyph-name="cdotaccent" horiz-adv-x="1071" unicode="ċ" d="M718 410l340 -29q-24 -178 -149.5 -290t-333.5 -112q-233 0 -378.5 146.5t-145.5 375.5q0 234 144.5 385.5t375.5 151.5q205 0 334 -114.5t148 -289.5l-349 -29q-22 161 -122 161q-64 0 -93.5 -58.5t-29.5 -203.5q0 -125 29.5 -185t102.5 -60q107 0 127 151zM585 1188 q-56 0 -96.5 40t-40.5 96t40 95.5t96 39.5q57 0 97 -39.5t40 -95.5q0 -57 -40 -96.5t-96 -39.5z"/>
<glyph glyph-name="Ccaron" horiz-adv-x="1287" unicode="Č" d="M870 521l383 -23q-27 -251 -185.5 -385t-389.5 -134q-278 0 -449 184t-171 508q0 321 162 518t452 197q271 0 416.5 -150t164.5 -398l-391 -21q0 137 -52.5 198t-123.5 61q-198 0 -198 -398q0 -223 51.5 -303t144.5 -80q166 0 186 226zM285 1800l232 20l169 -130l170 130 l232 -20l-402 -318z"/>
<glyph glyph-name="ccaron" horiz-adv-x="1071" unicode="č" d="M718 410l340 -29q-24 -178 -149.5 -290t-333.5 -112q-233 0 -378.5 146.5t-145.5 375.5q0 234 144.5 385.5t375.5 151.5q205 0 334 -114.5t148 -289.5l-349 -29q-22 161 -122 161q-64 0 -93.5 -58.5t-29.5 -203.5q0 -125 29.5 -185t102.5 -60q107 0 127 151zM182 1479 l232 20l169 -130l170 130l232 -20l-402 -318z"/>
<glyph glyph-name="Dcaron" horiz-adv-x="1391" unicode="Ď" d="M538 314h109q104 0 175.5 101t71.5 275q0 149 -63.5 257t-183.5 108h-109v-741zM119 0v1365h528q344 0 515 -204t171 -472q0 -306 -183.5 -497.5t-476.5 -191.5h-554zM229 1800l232 20l169 -130l170 130l232 -20l-402 -318z"/>
<glyph glyph-name="dcaron" horiz-adv-x="1458" unicode="ď" d="M705 654q0 137 -113 137q-79 0 -103.5 -87t-24.5 -213q0 -247 126 -247q48 0 81.5 39t33.5 119v252zM1098 0h-374v135q-83 -156 -274 -156q-176 0 -285.5 137.5t-109.5 399.5q0 245 110 389t291 144q151 0 249 -115v431h393v-1365zM1459 1365l-141 -421h-107l24 421h224z "/>
<glyph glyph-name="Dcroat" horiz-adv-x="1391" unicode="Đ" d="M538 801h195v-200h-195v-287h109q104 0 175.5 101t71.5 275q0 140 -60.5 252.5t-186.5 112.5h-109v-254zM119 1365h528q344 0 515 -204t171 -472q0 -306 -183.5 -497.5t-475.5 -191.5h-555v601h-112v200h112v564z"/>
<glyph glyph-name="dcroat" horiz-adv-x="1203" unicode="đ" d="M704 634q0 136 -113 136q-128 0 -128 -284q0 -242 127 -242q48 0 81 39t33 119v232zM1097 0h-374v135q-83 -156 -274 -156q-192 0 -293.5 149t-101.5 370q0 240 109.5 385t292.5 145q150 0 248 -114v182h-243v178h243v91h393v-91h106v-178h-106v-1096z"/>
<glyph glyph-name="Emacron" horiz-adv-x="1193" unicode="Ē" d="M1146 326v-326h-1027v1365h1027v-315h-616v-198h498v-303h-498v-223h616zM309 1547v155h647v-155h-647z"/>
<glyph glyph-name="emacron" d="M751 629q-1 103 -41.5 138.5t-100.5 35.5q-142 0 -142 -174h284zM777 365l372 -25q-33 -150 -168.5 -255.5t-366.5 -105.5q-257 0 -410 148.5t-153 368.5q0 228 151 385t403 157q244 0 394.5 -148t150.5 -403q0 -21 -1 -58h-681q2 -96 34 -142.5t122 -46.5q130 0 153 125 zM292 1208v155h647v-155h-647z" unicode="ē"/>
<glyph glyph-name="Ebreve" horiz-adv-x="1193" unicode="Ĕ" d="M1146 326v-326h-1027v1365h1027v-315h-616v-198h498v-303h-498v-223h616zM820 1816h176q-35 -153 -137 -233.5t-226 -80.5q-122 0 -224 77t-141 237h176q69 -142 190 -142q122 0 186 142z"/>
<glyph glyph-name="ebreve" d="M751 629q-1 103 -41.5 138.5t-100.5 35.5q-142 0 -142 -174h284zM777 365l372 -25q-33 -150 -168.5 -255.5t-366.5 -105.5q-257 0 -410 148.5t-153 368.5q0 228 151 385t403 157q244 0 394.5 -148t150.5 -403q0 -21 -1 -58h-681q2 -96 34 -142.5t122 -46.5q130 0 153 125 zM803 1495h176q-35 -153 -137 -233.5t-226 -80.5q-122 0 -224 77t-141 237h176q69 -142 190 -142q122 0 186 142z" unicode="ĕ"/>
<glyph glyph-name="Edotaccent" horiz-adv-x="1193" unicode="Ė" d="M1146 326v-326h-1027v1365h1027v-315h-616v-198h498v-303h-498v-223h616zM628 1508q-56 0 -96.5 40t-40.5 96t40 95.5t96 39.5q57 0 97 -39.5t40 -95.5q0 -57 -40 -96.5t-96 -39.5z"/>
<glyph glyph-name="edotaccent" d="M751 629q-1 103 -41.5 138.5t-100.5 35.5q-142 0 -142 -174h284zM777 365l372 -25q-33 -150 -168.5 -255.5t-366.5 -105.5q-257 0 -410 148.5t-153 368.5q0 228 151 385t403 157q244 0 394.5 -148t150.5 -403q0 -21 -1 -58h-681q2 -96 34 -142.5t122 -46.5q130 0 153 125 zM616 1188q-56 0 -96.5 40t-40.5 96t40 95.5t96 39.5q57 0 97 -39.5t40 -95.5q0 -57 -40 -96.5t-96 -39.5z" unicode="ė"/>
<glyph glyph-name="Eogonek" horiz-adv-x="1193" unicode="Ę" d="M1146 0q-140 -78 -140 -171q0 -94 111 -94q42 0 96 19l21 -90q-85 -40 -191 -40q-127 0 -176.5 51t-49.5 113q0 127 171 212h-869v1365h1027v-315h-616v-198h498v-303h-498v-223h616v-326z"/>
<glyph glyph-name="eogonek" d="M751 629q-1 103 -41.5 138.5t-100.5 35.5q-142 0 -142 -174h284zM990 -230l20 -86q-83 -38 -184 -38q-121 0 -168.5 48.5t-47.5 108.5q0 108 130 186q-62 -10 -126 -10q-264 0 -413.5 150.5t-149.5 366.5q0 228 151 385t403 157q244 0 394.5 -148t150.5 -403 q0 -21 -1 -58h-681q2 -96 34 -142.5t122 -46.5q130 0 153 125l372 -25q-31 -149 -200 -282q-89 -70 -123.5 -115.5t-34.5 -97.5q0 -92 106 -92q41 0 93 17z" unicode="ę"/>
<glyph glyph-name="Ecaron" horiz-adv-x="1193" unicode="Ě" d="M1146 326v-326h-1027v1365h1027v-315h-616v-198h498v-303h-498v-223h616zM231 1800l232 20l169 -130l170 130l232 -20l-402 -318z"/>
<glyph glyph-name="ecaron" d="M751 629q-1 103 -41.5 138.5t-100.5 35.5q-142 0 -142 -174h284zM777 365l372 -25q-33 -150 -168.5 -255.5t-366.5 -105.5q-257 0 -410 148.5t-153 368.5q0 228 151 385t403 157q244 0 394.5 -148t150.5 -403q0 -21 -1 -58h-681q2 -96 34 -142.5t122 -46.5q130 0 153 125 zM218 1479l232 20l169 -130l170 130l232 -20l-402 -318z" unicode="ě"/>
<glyph glyph-name="Gcircumflex" horiz-adv-x="1400" unicode="Ĝ" d="M1298 765v-765h-205q-25 85 -55 143q-127 -164 -376 -164q-264 0 -434 184.5t-170 499.5q0 306 164.5 514.5t489.5 208.5q244 0 393 -124t193 -352l-406 -40q-30 213 -187 213q-206 0 -206 -392q0 -237 66 -312.5t160 -75.5q76 0 129.5 46t54.5 126h-226v290h615z M1121 1516l-232 -21l-170 130l-169 -130l-232 21l401 318z"/>
<glyph glyph-name="gcircumflex" horiz-adv-x="1166" unicode="ĝ" d="M479 13q-22 1 -44 1q-103 0 -103 -64q0 -59 78.5 -76t209.5 -17q124 0 159.5 21t35.5 58q0 26 -16 43.5t-76 20.5zM581 591q116 0 116 123q0 126 -119 126q-118 0 -118 -128q0 -121 121 -121zM1165 1248l-10 -273l-19 1q-54 3 -77 3q-93 0 -112 -37q114 -94 114 -227 q0 -156 -123.5 -234.5t-335.5 -78.5q-5 0 -52 2q-44 2 -46 2q-97 0 -97 -50q0 -44 86 -47l327 -14q179 -8 262.5 -100t83.5 -215q0 -146 -124.5 -238.5t-484.5 -92.5q-555 0 -555 255q0 139 147 194q-95 67 -95 159q0 150 195 226q-163 71 -163 236q0 151 132 235t362 84 q105 0 191 -21q35 239 253 239q50 0 141 -8zM923 1222l-232 -21l-170 130l-169 -130l-232 21l401 318z"/>
<glyph glyph-name="Gbreve" horiz-adv-x="1400" unicode="Ğ" d="M1298 765v-765h-205q-25 85 -55 143q-127 -164 -376 -164q-264 0 -434 184.5t-170 499.5q0 306 164.5 514.5t489.5 208.5q244 0 393 -124t193 -352l-406 -40q-30 213 -187 213q-206 0 -206 -392q0 -237 66 -312.5t160 -75.5q76 0 129.5 46t54.5 126h-226v290h615z M904 1816h176q-35 -153 -137 -233.5t-226 -80.5q-122 0 -224 77t-141 237h176q69 -142 190 -142q122 0 186 142z"/>
<glyph glyph-name="gbreve" horiz-adv-x="1166" unicode="ğ" d="M479 -61q-22 1 -44 1q-103 0 -103 -64q0 -59 78.5 -76t209.5 -17q124 0 159.5 21t35.5 58q0 26 -16 43.5t-76 20.5zM581 517q116 0 116 123q0 126 -119 126q-118 0 -118 -128q0 -121 121 -121zM1165 1174l-10 -273l-19 1q-54 3 -77 3q-93 0 -112 -37q114 -94 114 -227 q0 -156 -123.5 -234.5t-335.5 -78.5q-5 0 -52 2q-44 2 -46 2q-97 0 -97 -50q0 -44 86 -47l327 -14q179 -8 262.5 -100t83.5 -215q0 -146 -124.5 -238.5t-484.5 -92.5q-555 0 -555 255q0 139 147 194q-95 67 -95 159q0 150 195 226q-163 71 -163 236q0 151 132 235t362 84 q105 0 191 -21q35 239 253 239q50 0 141 -8zM711 1495h176q-35 -153 -137 -233.5t-226 -80.5q-122 0 -224 77t-141 237h176q69 -142 190 -142q122 0 186 142z"/>
<glyph glyph-name="Gdotaccent" horiz-adv-x="1400" unicode="Ġ" d="M1298 765v-765h-205q-25 85 -55 143q-127 -164 -376 -164q-264 0 -434 184.5t-170 499.5q0 306 164.5 514.5t489.5 208.5q244 0 393 -124t193 -352l-406 -40q-30 213 -187 213q-206 0 -206 -392q0 -237 66 -312.5t160 -75.5q76 0 129.5 46t54.5 126h-226v290h615z M715 1508q-56 0 -96.5 40t-40.5 96t40 95.5t96 39.5q57 0 97 -39.5t40 -95.5q0 -57 -40 -96.5t-96 -39.5z"/>
<glyph glyph-name="gdotaccent" horiz-adv-x="1166" unicode="ġ" d="M479 13q-22 1 -44 1q-103 0 -103 -64q0 -59 78.5 -76t209.5 -17q124 0 159.5 21t35.5 58q0 26 -16 43.5t-76 20.5zM581 591q116 0 116 123q0 126 -119 126q-118 0 -118 -128q0 -121 121 -121zM1165 1248l-10 -273l-19 1q-54 3 -77 3q-93 0 -112 -37q114 -94 114 -227 q0 -156 -123.5 -234.5t-335.5 -78.5q-5 0 -52 2q-44 2 -46 2q-97 0 -97 -50q0 -44 86 -47l327 -14q179 -8 262.5 -100t83.5 -215q0 -146 -124.5 -238.5t-484.5 -92.5q-555 0 -555 255q0 139 147 194q-95 67 -95 159q0 150 195 226q-163 71 -163 236q0 151 132 235t362 84 q105 0 191 -21q35 239 253 239q50 0 141 -8zM584 1188q-56 0 -96.5 40t-40.5 96t40 95.5t96 39.5q57 0 97 -39.5t40 -95.5q0 -57 -40 -96.5t-96 -39.5z"/>
<glyph glyph-name="Gcommaaccent" horiz-adv-x="1400" unicode="Ģ" d="M1298 765v-765h-205q-25 85 -55 143q-127 -164 -376 -164q-264 0 -434 184.5t-170 499.5q0 306 164.5 514.5t489.5 208.5q244 0 393 -124t193 -352l-406 -40q-30 213 -187 213q-206 0 -206 -392q0 -237 66 -312.5t160 -75.5q76 0 129.5 46t54.5 126h-226v290h615z M787 -120l-141 -404h-107l25 404h223z"/>
<glyph glyph-name="gcommaaccent" horiz-adv-x="1166" unicode="ģ" d="M479 13q-22 1 -44 1q-103 0 -103 -64q0 -59 78.5 -76t209.5 -17q124 0 159.5 21t35.5 58q0 26 -16 43.5t-76 20.5zM581 591q116 0 116 123q0 126 -119 126q-118 0 -118 -128q0 -121 121 -121zM1165 1248l-10 -273l-19 1q-54 3 -77 3q-93 0 -112 -37q114 -94 114 -227 q0 -156 -123.5 -234.5t-335.5 -78.5q-5 0 -52 2q-44 2 -46 2q-97 0 -97 -50q0 -44 86 -47l327 -14q179 -8 262.5 -100t83.5 -215q0 -146 -124.5 -238.5t-484.5 -92.5q-555 0 -555 255q0 139 147 194q-95 67 -95 159q0 150 195 226q-163 71 -163 236q0 151 132 235t362 84 q105 0 191 -21q35 239 253 239q50 0 141 -8zM521 1173l141 421h107l-24 -421h-224z"/>
<glyph glyph-name="Hcircumflex" horiz-adv-x="1395" unicode="Ĥ" d="M1277 1365v-1365h-419v531h-320v-531h-419v1365h419v-502h320v502h419zM1100 1516l-232 -21l-170 130l-169 -130l-232 21l401 318z"/>
<glyph glyph-name="hcircumflex" horiz-adv-x="1210" unicode="ĥ" d="M1104 0h-398v612q0 84 -18.5 115.5t-71.5 31.5q-41 0 -71.5 -24.5t-35.5 -50.5t-5 -109v-575h-399v1365h399v-468q108 141 282 141q88 0 154.5 -30.5t102.5 -78.5t48.5 -93t12.5 -174v-662zM727 1516l-232 -21l-170 130l-169 -130l-232 21l401 318z"/>
<glyph glyph-name="Hbar" horiz-adv-x="1395" unicode="Ħ" d="M538 1012v-190h320v190h-320zM1389 1206v-194h-112v-1012h-419v531h-320v-531h-419v1012h-112v194h112v159h419v-159h320v159h419v-159h112z"/>
<glyph glyph-name="hbar" horiz-adv-x="1210" unicode="ħ" d="M0 1096v178h105v91h399v-91h243v-178h-243v-199q108 141 282 141q88 0 155 -30t103 -78.5t48.5 -93.5t12.5 -174v-662h-399v612l1 52q0 95 -91 95q-42 0 -77.5 -29t-35.5 -91l1 -64v-575h-399v1096h-105z"/>
<glyph glyph-name="Itilde" horiz-adv-x="657" unicode="Ĩ" d="M538 1365v-1365h-419v1365h419zM596 1754l100 -117q-122 -128 -244 -128q-62 0 -157 49q-64 33 -100 33q-70 0 -136 -78l-98 117q121 128 233 128q58 0 136 -40q84 -43 118 -43q64 0 148 79z"/>
<glyph glyph-name="itilde" horiz-adv-x="609" unicode="ĩ" d="M504 1017v-1017h-399v1017h399zM572 1433l100 -117q-122 -128 -244 -128q-62 0 -157 49q-64 33 -100 33q-70 0 -136 -78l-98 117q121 128 233 128q58 0 136 -40q84 -43 118 -43q64 0 148 79z"/>
<glyph glyph-name="Imacron" horiz-adv-x="657" unicode="Ī" d="M538 1365v-1365h-419v1365h419zM5 1547v155h647v-155h-647z"/>
<glyph glyph-name="imacron" horiz-adv-x="609" unicode="ī" d="M504 1017v-1017h-399v1017h399zM-19 1208v155h647v-155h-647z"/>
<glyph glyph-name="Ibreve" horiz-adv-x="657" unicode="Ĭ" d="M538 1365v-1365h-419v1365h419zM516 1816h176q-35 -153 -137 -233.5t-226 -80.5q-122 0 -224 77t-141 237h176q69 -142 190 -142q122 0 186 142z"/>
<glyph glyph-name="ibreve" horiz-adv-x="609" unicode="ĭ" d="M504 1017v-1017h-399v1017h399zM496 1495h176q-35 -153 -137 -233.5t-226 -80.5q-122 0 -224 77t-141 237h176q69 -142 190 -142q122 0 186 142z"/>
<glyph glyph-name="Iogonek" horiz-adv-x="657" unicode="Į" d="M538 0q-140 -78 -140 -171q0 -94 111 -94q42 0 96 19l21 -90q-85 -40 -191 -40q-120 0 -172.5 48.5t-52.5 115.5q0 127 171 212h-262v1365h419v-1365z"/>
<glyph glyph-name="iogonek" horiz-adv-x="609" unicode="į" d="M504 0q-135 -75 -135 -164q0 -90 107 -90q41 0 92 18l20 -85q-83 -40 -183 -40q-115 0 -166 46.5t-51 111.5q0 121 165 203h-248v1017h399v-1017zM504 1408v-316h-399v316h399z"/>
<glyph glyph-name="Idotaccent" horiz-adv-x="657" unicode="İ" d="M538 1365v-1365h-419v1365h419zM329 1508q-56 0 -96.5 40t-40.5 96t40 95.5t96 39.5q57 0 97 -39.5t40 -95.5q0 -57 -40 -96.5t-96 -39.5z"/>
<glyph glyph-name="dotlessi" horiz-adv-x="609" unicode="ı" d="M504 1017v-1017h-399v1017h399z"/>
<glyph glyph-name="IJ" horiz-adv-x="1502" unicode="Ĳ" d="M1397 1365v-860q0 -197 -35.5 -301t-138.5 -164.5t-279 -60.5q-155 0 -280 33v326q87 -25 163 -25q90 0 128.5 41.5t38.5 150.5v860h403zM538 1365v-1365h-419v1365h419z"/>
<glyph glyph-name="ij" horiz-adv-x="1213" unicode="ĳ" d="M1108 1017v-957q0 -145 -26 -225t-113.5 -135t-248.5 -55q-106 0 -204 19v291q45 -19 88 -19q105 0 105 124v957h399zM504 1017v-1017h-399v1017h399zM1108 1406v-314h-399v314h399zM504 1406v-314h-399v314h399z"/>
<glyph glyph-name="Jcircumflex" horiz-adv-x="852" unicode="Ĵ" d="M747 1365v-860q0 -198 -35.5 -301.5t-138.5 -164t-279 -60.5q-155 0 -280 33v326q88 -25 164 -25q90 0 128 41.5t38 150.5v860h403zM939 1516l-232 -21l-170 130l-169 -130l-232 21l401 318z"/>
<glyph glyph-name="jcircumflex" horiz-adv-x="609" unicode="ĵ" d="M504 1017v-957q0 -144 -25.5 -224.5t-113 -135.5t-248.5 -55q-106 0 -204 19v291q44 -19 88 -19q105 0 105 124v957h398zM706 1195l-232 -21l-170 130l-169 -130l-232 21l401 318z"/>
<glyph glyph-name="Kcommaaccent" horiz-adv-x="1343" unicode="Ķ" d="M1350 0h-459l-236 516l-141 -201v-315h-395v1365h395v-564l377 564h376l-345 -499zM815 -120l-141 -404h-107l25 404h223z"/>
<glyph glyph-name="kcommaaccent" horiz-adv-x="1175" unicode="ķ" d="M1156 1017l-307 -350l342 -667h-412l-191 407l-109 -127v-280h-374v1365h374v-551q0 -23 -3 -184q36 51 73 93l255 294h352zM742 -116l-141 -404h-107l25 404h223z"/>
<glyph glyph-name="kgreenlandic" horiz-adv-x="1175" unicode="ĸ" d="M1156 1017l-307 -350l342 -667h-412l-191 407l-109 -127v-280h-374v1017h374v-203q0 -23 -3 -184q36 51 73 93l255 294h352z"/>
<glyph glyph-name="Lacute" horiz-adv-x="1103" unicode="Ĺ" d="M1076 335v-335h-957v1365h419v-1030h538zM161 1619l457 224l73 -195l-478 -166z"/>
<glyph glyph-name="lacute" horiz-adv-x="603" unicode="ĺ" d="M498 1365v-1365h-393v1365h393zM70 1619l457 224l73 -195l-478 -166z"/>
<glyph glyph-name="Lcommaaccent" horiz-adv-x="1103" unicode="Ļ" d="M1076 335v-335h-957v1365h419v-1030h538zM722 -120l-141 -404h-107l25 404h223z"/>
<glyph glyph-name="lcommaaccent" horiz-adv-x="603" unicode="ļ" d="M498 1365v-1365h-393v1365h393zM424 -116l-141 -404h-107l25 404h223z"/>
<glyph glyph-name="Lcaron" horiz-adv-x="1103" unicode="Ľ" d="M1076 335v-335h-957v1365h419v-1030h538zM951 1363l-141 -421h-107l24 421h224z"/>
<glyph glyph-name="lcaron" horiz-adv-x="603" unicode="ľ" d="M498 1365v-1365h-393v1365h393zM858 1365l-141 -421h-107l24 421h224z"/>
<glyph glyph-name="Ldot" horiz-adv-x="1103" unicode="Ŀ" d="M1076 335v-335h-957v1365h419v-1030h538zM1070 885v-365h-380v365h380z"/>
<glyph glyph-name="ldot" horiz-adv-x="982" unicode="ŀ" d="M498 1365v-1365h-393v1365h393zM983 885v-365h-380v365h380z"/>
<glyph glyph-name="Lslash" horiz-adv-x="1103" unicode="Ł" d="M1076 333v-333h-961v463l-108 -106v243l108 105v660h419v-398l190 173v-242l-190 -174v-391h542z"/>
<glyph glyph-name="lslash" horiz-adv-x="642" unicode="ł" d="M635 994v-210l-117 -92v-692h-394v503l-117 -93v210l117 93v652h394v-463z"/>
<glyph glyph-name="Nacute" horiz-adv-x="1405" unicode="Ń" d="M1286 0h-341l-374 603q-72 116 -145 282q33 -132 33 -224v-661h-340v1365h396l318 -500q95 -149 144 -262q-32 175 -32 358v404h341v-1365zM520 1619l457 224l73 -195l-478 -166z"/>
<glyph glyph-name="nacute" horiz-adv-x="1203" unicode="ń" d="M1098 0h-399v640q0 79 -24.5 101t-61.5 22q-109 0 -109 -152v-611h-399v1017h370v-144q82 165 293 165q111 0 187.5 -42.5t109.5 -110t33 -234.5v-651zM381 1298l457 224l73 -195l-478 -166z"/>
<glyph glyph-name="Ncommaaccent" horiz-adv-x="1405" unicode="Ņ" d="M1286 0h-341l-374 603q-72 116 -145 282q33 -132 33 -224v-661h-340v1365h396l318 -500q95 -149 144 -262q-32 175 -32 358v404h341v-1365zM842 -120l-141 -404h-107l25 404h223z"/>
<glyph glyph-name="ncommaaccent" horiz-adv-x="1203" unicode="ņ" d="M1098 0h-399v640q0 79 -24.5 101t-61.5 22q-109 0 -109 -152v-611h-399v1017h370v-144q82 165 293 165q111 0 187.5 -42.5t109.5 -110t33 -234.5v-651zM718 -116l-141 -404h-107l25 404h223z"/>
<glyph glyph-name="Ncaron" horiz-adv-x="1405" unicode="Ň" d="M1286 0h-341l-374 603q-72 116 -145 282q33 -132 33 -224v-661h-340v1365h396l318 -500q95 -149 144 -262q-32 175 -32 358v404h341v-1365zM301 1800l232 20l169 -130l170 130l232 -20l-402 -318z"/>
<glyph glyph-name="ncaron" horiz-adv-x="1203" unicode="ň" d="M1098 0h-399v640q0 79 -24.5 101t-61.5 22q-109 0 -109 -152v-611h-399v1017h370v-144q82 165 293 165q111 0 187.5 -42.5t109.5 -110t33 -234.5v-651zM196 1479l232 20l169 -130l170 130l232 -20l-402 -318z"/>
<glyph glyph-name="napostrophe" horiz-adv-x="1657" unicode="ŉ" d="M1552 0h-399v640q0 79 -24.5 101t-61.5 22q-109 0 -109 -152v-611h-399v1017h370v-144q82 165 293 165q111 0 187.5 -42.5t109.5 -110t33 -234.5v-651zM447 1365v-287l-187 -303h-158l138 272h-138v318h345z"/>
<glyph glyph-name="Eng" horiz-adv-x="1395" unicode="Ŋ" d="M119 1365h381v-193q110 214 394 214q84 0 164.5 -30.5t129.5 -90.5t69 -124.5t20 -267.5v-739q0 -174 -29.5 -269t-124.5 -157.5t-262 -62.5q-90 0 -173 26v269h42q69 0 98.5 38.5t29.5 128.5v775q0 125 -41.5 159.5t-93.5 34.5q-185 0 -185 -233v-843h-419v1365z"/>
<glyph glyph-name="eng" horiz-adv-x="1203" unicode="ŋ" d="M105 1017h370v-144q82 165 293 165q111 0 187.5 -42.5t109.5 -110t33 -234.5v-591q0 -144 -24 -225t-104.5 -135.5t-225.5 -54.5q-88 0 -169 19v277q29 -5 49 -5q75 0 75 124v580q0 79 -24.5 101t-61.5 22q-109 0 -109 -152v-611h-399v1017z"/>
<glyph glyph-name="Omacron" horiz-adv-x="1415" unicode="Ō" d="M707 289q106 0 152.5 92.5t46.5 338.5q0 356 -191 356q-206 0 -206 -406q0 -381 198 -381zM709 -21q-288 0 -469.5 191t-181.5 511q0 306 173.5 505.5t481.5 199.5q285 0 464.5 -188t179.5 -502q0 -325 -181 -521t-467 -196zM384 1547v155h647v-155h-647z"/>
<glyph glyph-name="omacron" horiz-adv-x="1217" unicode="ō" d="M608 221q93 0 113.5 96.5t20.5 201.5q0 143 -29 206t-104 63q-69 0 -101 -65t-32 -214q0 -175 33 -231.5t99 -56.5zM602 -21q-253 0 -402 157.5t-149 369.5q0 228 155.5 380t404.5 152q251 0 403.5 -150t152.5 -376q0 -228 -154.5 -380.5t-410.5 -152.5zM285 1208v155 h647v-155h-647z"/>
<glyph glyph-name="Obreve" horiz-adv-x="1415" unicode="Ŏ" d="M707 289q106 0 152.5 92.5t46.5 338.5q0 356 -191 356q-206 0 -206 -406q0 -381 198 -381zM709 -21q-288 0 -469.5 191t-181.5 511q0 306 173.5 505.5t481.5 199.5q285 0 464.5 -188t179.5 -502q0 -325 -181 -521t-467 -196zM895 1816h176q-35 -153 -137 -233.5 t-226 -80.5q-122 0 -224 77t-141 237h176q69 -142 190 -142q122 0 186 142z"/>
<glyph glyph-name="obreve" horiz-adv-x="1217" unicode="ŏ" d="M608 221q93 0 113.5 96.5t20.5 201.5q0 143 -29 206t-104 63q-69 0 -101 -65t-32 -214q0 -175 33 -231.5t99 -56.5zM602 -21q-253 0 -402 157.5t-149 369.5q0 228 155.5 380t404.5 152q251 0 403.5 -150t152.5 -376q0 -228 -154.5 -380.5t-410.5 -152.5zM797 1495h176 q-35 -153 -137 -233.5t-226 -80.5q-122 0 -224 77t-141 237h176q69 -142 190 -142q122 0 186 142z"/>
<glyph glyph-name="Ohungarumlaut" horiz-adv-x="1415" unicode="Ő" d="M707 289q106 0 152.5 92.5t46.5 338.5q0 356 -191 356q-206 0 -206 -406q0 -381 198 -381zM709 -21q-288 0 -469.5 191t-181.5 511q0 306 173.5 505.5t481.5 199.5q285 0 464.5 -188t179.5 -502q0 -325 -181 -521t-467 -196zM388 1598l323 259l98 -164l-354 -211z M796 1598l324 259l97 -164l-353 -211z"/>
<glyph glyph-name="ohungarumlaut" horiz-adv-x="1217" unicode="ő" d="M608 221q93 0 113.5 96.5t20.5 201.5q0 143 -29 206t-104 63q-69 0 -101 -65t-32 -214q0 -175 33 -231.5t99 -56.5zM602 -21q-253 0 -402 157.5t-149 369.5q0 228 155.5 380t404.5 152q251 0 403.5 -150t152.5 -376q0 -228 -154.5 -380.5t-410.5 -152.5zM290 1277 l323 259l98 -164l-354 -211zM698 1277l324 259l97 -164l-353 -211z"/>
<glyph glyph-name="OE" horiz-adv-x="1945" unicode="Œ" d="M712 1084q-209 0 -209 -403q0 -188 42.5 -290t164.5 -102q99 0 145.5 81.5t46.5 313.5q0 241 -49.5 320.5t-140.5 79.5zM1897 0h-996q-104 -21 -193 -21q-291 0 -470.5 192t-179.5 510q0 294 167.5 499.5t484.5 205.5q97 0 191 -21h996v-315h-618v-198h497v-303h-497 v-223h618v-326z"/>
<glyph glyph-name="oe" horiz-adv-x="1733" unicode="œ" d="M576 221q63 0 92.5 52.5t29.5 242.5q0 162 -27.5 217t-93.5 55q-72 0 -99.5 -70.5t-27.5 -219.5q0 -171 31.5 -224t94.5 -53zM1320 628q1 16 1 26q0 60 -33.5 104t-94.5 44q-130 0 -139 -174h266zM1680 429h-624q5 -200 141 -200q51 0 93.5 33.5t50.5 100.5l339 -24 q-34 -164 -167.5 -262t-314.5 -98q-183 0 -314 94q-148 -94 -315 -94q-162 0 -277.5 71.5t-178 193.5t-62.5 254q0 225 143 382.5t377 157.5q168 0 313 -92q133 92 299 92q219 0 359 -145t140 -406q0 -18 -2 -58z"/>
<glyph glyph-name="Racute" horiz-adv-x="1413" unicode="Ŕ" d="M538 814h179q79 0 127 33t48 97q0 131 -161 131h-193v-261zM1334 0h-465l-199 522h-132v-522h-419v1365h713q236 0 366.5 -110.5t130.5 -291.5q0 -118 -48 -208.5t-194 -159.5zM461 1619l457 224l73 -195l-478 -166z"/>
<glyph glyph-name="racute" horiz-adv-x="781" unicode="ŕ" d="M487 0h-382v1017h332v-210q57 229 265 229q21 0 58 -4v-355q-42 10 -75 10q-198 0 -198 -221v-466zM225 1298l457 224l73 -195l-478 -166z"/>
<glyph glyph-name="Rcommaaccent" horiz-adv-x="1413" unicode="Ŗ" d="M538 814h179q79 0 127 33t48 97q0 131 -161 131h-193v-261zM1334 0h-465l-199 522h-132v-522h-419v1365h713q236 0 366.5 -110.5t130.5 -291.5q0 -118 -48 -208.5t-194 -159.5zM839 -116l-141 -404h-107l25 404h223z"/>
<glyph glyph-name="rcommaaccent" horiz-adv-x="781" unicode="ŗ" d="M487 0h-382v1017h332v-210q57 229 265 229q21 0 58 -4v-355q-42 10 -75 10q-198 0 -198 -221v-466zM421 -116l-141 -404h-107l25 404h223z"/>
<glyph glyph-name="Rcaron" horiz-adv-x="1413" unicode="Ř" d="M538 814h179q79 0 127 33t48 97q0 131 -161 131h-193v-261zM1334 0h-465l-199 522h-132v-522h-419v1365h713q236 0 366.5 -110.5t130.5 -291.5q0 -118 -48 -208.5t-194 -159.5zM261 1800l232 20l169 -130l170 130l232 -20l-402 -318z"/>
<glyph glyph-name="rcaron" horiz-adv-x="781" unicode="ř" d="M487 0h-382v1017h332v-210q57 229 265 229q21 0 58 -4v-355q-42 10 -75 10q-198 0 -198 -221v-466zM32 1479l232 20l169 -130l170 130l232 -20l-402 -318z"/>
<glyph glyph-name="Sacute" horiz-adv-x="1244" unicode="Ś" d="M-22 395l389 70q49 -165 252 -165q158 0 158 84q0 44 -36.5 68.5t-130.5 43.5q-359 69 -461 180t-102 261q0 193 146.5 321t421.5 128q417 0 551 -335l-347 -105q-54 137 -219 137q-137 0 -137 -85q0 -38 31 -59t120 -40q245 -52 348 -92t172 -136.5t69 -227.5 q0 -207 -168 -335.5t-441 -128.5q-499 0 -616 416zM399 1619l457 224l73 -195l-478 -166z"/>
<glyph glyph-name="sacute" horiz-adv-x="1085" unicode="ś" d="M15 288l315 43q27 -110 214 -110q155 0 155 60q0 26 -30 40.5t-142 29.5q-310 43 -387 134.5t-77 203.5q0 156 130 252.5t341 96.5q370 0 472 -267l-302 -57q-42 90 -177 90q-64 0 -95.5 -17.5t-31.5 -34.5q0 -50 96 -61q250 -28 339 -57t152 -106t63 -186 q0 -167 -139.5 -265t-384.5 -98q-413 0 -511 309zM344 1298l457 224l73 -195l-478 -166z"/>
<glyph glyph-name="Scircumflex" horiz-adv-x="1244" unicode="Ŝ" d="M-22 395l389 70q49 -165 252 -165q158 0 158 84q0 44 -36.5 68.5t-130.5 43.5q-359 69 -461 180t-102 261q0 193 146.5 321t421.5 128q417 0 551 -335l-347 -105q-54 137 -219 137q-137 0 -137 -85q0 -38 31 -59t120 -40q245 -52 348 -92t172 -136.5t69 -227.5 q0 -207 -168 -335.5t-441 -128.5q-499 0 -616 416zM1007 1516l-232 -21l-170 130l-169 -130l-232 21l401 318z"/>
<glyph glyph-name="scircumflex" horiz-adv-x="1085" unicode="ŝ" d="M15 288l315 43q27 -110 214 -110q155 0 155 60q0 26 -30 40.5t-142 29.5q-310 43 -387 134.5t-77 203.5q0 156 130 252.5t341 96.5q370 0 472 -267l-302 -57q-42 90 -177 90q-64 0 -95.5 -17.5t-31.5 -34.5q0 -50 96 -61q250 -28 339 -57t152 -106t63 -186 q0 -167 -139.5 -265t-384.5 -98q-413 0 -511 309zM945 1195l-232 -21l-170 130l-169 -130l-232 21l401 318z"/>
<glyph glyph-name="Scedilla" horiz-adv-x="1244" unicode="Ş" d="M630 -18l-30 -87q21 2 36 2q70 0 113 -45.5t43 -113.5q0 -84 -63 -130t-163 -46q-121 0 -237 70l39 85q85 -47 163 -47q84 0 84 68q0 44 -43 63t-91 19q-10 0 -29 -1l62 163q-440 38 -536 413l390 70q50 -165 251 -165q158 0 158 84q0 44 -36.5 68.5t-130.5 43.5 q-359 69 -461 180t-102 261q0 193 146.5 321t421.5 128q417 0 551 -335l-347 -105q-54 137 -219 137q-137 0 -137 -85q0 -38 31 -59t120 -40q242 -51 346.5 -91t173.5 -137t69 -227q0 -196 -153.5 -324t-419.5 -138z"/>
<glyph glyph-name="scedilla" horiz-adv-x="1085" unicode="ş" d="M581 -19l-30 -81q21 1 35 1q67 0 108.5 -43.5t41.5 -108.5q0 -81 -60 -125t-156 -44q-118 0 -228 66l38 82q83 -45 156 -45q80 0 80 65q0 79 -129 79q-9 0 -28 -1l59 155q-363 23 -453 307l315 43q27 -110 214 -110q155 0 155 60q0 26 -30 40.5t-142 29.5 q-279 38 -371.5 119t-92.5 219q0 156 130 252.5t341 96.5q370 0 472 -267l-302 -57q-42 90 -177 90q-58 0 -92.5 -16t-34.5 -36q0 -50 96 -61q250 -28 339 -57t152 -106t63 -186q0 -153 -119.5 -250.5t-349.5 -110.5z"/>
<glyph glyph-name="Scaron" horiz-adv-x="1244" unicode="Š" d="M-22 395l389 70q49 -165 252 -165q158 0 158 84q0 44 -36.5 68.5t-130.5 43.5q-359 69 -461 180t-102 261q0 193 146.5 321t421.5 128q417 0 551 -335l-347 -105q-54 137 -219 137q-137 0 -137 -85q0 -38 31 -59t120 -40q245 -52 348 -92t172 -136.5t69 -227.5 q0 -207 -168 -335.5t-441 -128.5q-499 0 -616 416zM204 1800l232 20l169 -130l170 130l232 -20l-402 -318z"/>
<glyph glyph-name="scaron" horiz-adv-x="1085" unicode="š" d="M15 288l315 43q27 -110 214 -110q155 0 155 60q0 26 -30 40.5t-142 29.5q-310 43 -387 134.5t-77 203.5q0 156 130 252.5t341 96.5q370 0 472 -267l-302 -57q-42 90 -177 90q-64 0 -95.5 -17.5t-31.5 -34.5q0 -50 96 -61q250 -28 339 -57t152 -106t63 -186 q0 -167 -139.5 -265t-384.5 -98q-413 0 -511 309zM142 1479l232 20l169 -130l170 130l232 -20l-402 -318z"/>
<glyph glyph-name="Tcommaaccent" horiz-adv-x="963" unicode="Ţ" d="M680 1038v-1038h-397v1038h-283v327h963v-327h-283zM598 -120l-141 -404h-107l25 404h223z"/>
<glyph glyph-name="tcommaaccent" horiz-adv-x="761" unicode="ţ" d="M733 1017v-259h-203v-375q0 -77 29 -91.5t60 -14.5q48 0 114 17v-284q-118 -23 -232 -23q-184 0 -270.5 79t-86.5 252l1 119v321h-152v259h152l6 331l379 6v-337h203zM581 -116l-141 -404h-107l25 404h223z"/>
<glyph glyph-name="Tcaron" horiz-adv-x="963" unicode="Ť" d="M680 1038v-1038h-397v1038h-283v327h963v-327h-283zM80 1800l232 20l169 -130l170 130l232 -20l-402 -318z"/>
<glyph glyph-name="tcaron" horiz-adv-x="897" unicode="ť" d="M733 1017v-259h-203v-375q0 -77 29 -91.5t60 -14.5q48 0 114 17v-284q-118 -23 -232 -23q-184 0 -270.5 79t-86.5 252l1 119v321h-152v259h152l6 331l379 6v-337h203zM897 1548l-141 -421h-107l24 421h224z"/>
<glyph glyph-name="Tbar" horiz-adv-x="963" unicode="Ŧ" d="M901 858v-200h-221v-658h-397v658h-222v200h222v180h-283v327h963v-327h-283v-180h221z"/>
<glyph glyph-name="tbar" horiz-adv-x="761" unicode="ŧ" d="M717 635v-178h-187v-74q0 -77 29 -91.5t60 -14.5q48 0 114 17v-284q-118 -23 -232 -23q-184 0 -270.5 79t-86.5 252l1 119v20h-136v178h136v123h-152v259h171l26 325l348 12l-8 -337h203v-259h-203v-123h187z"/>
<glyph glyph-name="Utilde" horiz-adv-x="1331" unicode="Ũ" d="M1226 1365v-904q0 -257 -152.5 -369.5t-397.5 -112.5q-258 0 -414.5 108t-156.5 352v926h426v-877q0 -98 41.5 -143t132.5 -45q76 0 124.5 32.5t58 73.5t9.5 160v799h329zM974 1754l100 -117q-122 -128 -244 -128q-62 0 -157 49q-64 33 -100 33q-70 0 -136 -78l-98 117 q121 128 233 128q58 0 136 -40q84 -43 118 -43q64 0 148 79z"/>
<glyph glyph-name="utilde" horiz-adv-x="1199" unicode="ũ" d="M1094 1017v-1017h-369v167q-81 -188 -316 -188q-145 0 -224.5 80.5t-79.5 230.5v727h399v-640q0 -60 16.5 -84.5t64.5 -24.5q51 0 83 36.5t32 102.5v610h394zM867 1433l100 -117q-122 -128 -244 -128q-62 0 -157 49q-64 33 -100 33q-70 0 -136 -78l-98 117 q121 128 233 128q58 0 136 -40q84 -43 118 -43q64 0 148 79z"/>
<glyph glyph-name="Umacron" horiz-adv-x="1331" unicode="Ū" d="M1226 1365v-904q0 -257 -152.5 -369.5t-397.5 -112.5q-258 0 -414.5 108t-156.5 352v926h426v-877q0 -98 41.5 -143t132.5 -45q76 0 124.5 32.5t58 73.5t9.5 160v799h329zM368 1547v155h647v-155h-647z"/>
<glyph glyph-name="umacron" horiz-adv-x="1199" unicode="ū" d="M1094 1017v-1017h-369v167q-81 -188 -316 -188q-145 0 -224.5 80.5t-79.5 230.5v727h399v-640q0 -60 16.5 -84.5t64.5 -24.5q51 0 83 36.5t32 102.5v610h394zM276 1208v155h647v-155h-647z"/>
<glyph glyph-name="Ubreve" horiz-adv-x="1331" unicode="Ŭ" d="M1226 1365v-904q0 -257 -152.5 -369.5t-397.5 -112.5q-258 0 -414.5 108t-156.5 352v926h426v-877q0 -98 41.5 -143t132.5 -45q76 0 124.5 32.5t58 73.5t9.5 160v799h329zM894 1816h176q-35 -153 -137 -233.5t-226 -80.5q-122 0 -224 77t-141 237h176q69 -142 190 -142 q122 0 186 142z"/>
<glyph glyph-name="ubreve" horiz-adv-x="1199" unicode="ŭ" d="M1094 1017v-1017h-369v167q-81 -188 -316 -188q-145 0 -224.5 80.5t-79.5 230.5v727h399v-640q0 -60 16.5 -84.5t64.5 -24.5q51 0 83 36.5t32 102.5v610h394zM787 1495h176q-35 -153 -137 -233.5t-226 -80.5q-122 0 -224 77t-141 237h176q69 -142 190 -142q122 0 186 142 z"/>
<glyph glyph-name="Uring" horiz-adv-x="1331" unicode="Ů" d="M1226 1365v-904q0 -257 -152.5 -369.5t-397.5 -112.5q-258 0 -414.5 108t-156.5 352v926h426v-877q0 -98 41.5 -143t132.5 -45q76 0 124.5 32.5t58 73.5t9.5 160v799h329zM692 1594q31 0 53.5 22t22.5 55q0 29 -22.5 51t-53.5 22t-53 -22.5t-22 -52.5q0 -31 22 -53 t53 -22zM692 1468q-83 0 -142 58.5t-59 141.5t59 142t142 59q84 0 143 -58.5t59 -141.5q0 -84 -59.5 -142.5t-142.5 -58.5z"/>
<glyph glyph-name="uring" horiz-adv-x="1199" unicode="ů" d="M1094 1017v-1017h-369v167q-81 -188 -316 -188q-145 0 -224.5 80.5t-79.5 230.5v727h399v-640q0 -60 16.5 -84.5t64.5 -24.5q51 0 83 36.5t32 102.5v610h394zM599 1273q31 0 53.5 22t22.5 55q0 29 -22.5 51t-53.5 22t-53 -22.5t-22 -52.5q0 -31 22 -53t53 -22zM599 1147 q-83 0 -142 58.5t-59 141.5t59 142t142 59q84 0 143 -58.5t59 -141.5q0 -84 -59.5 -142.5t-142.5 -58.5z"/>
<glyph glyph-name="Uhungarumlaut" horiz-adv-x="1331" unicode="Ű" d="M1226 1365v-904q0 -257 -152.5 -369.5t-397.5 -112.5q-258 0 -414.5 108t-156.5 352v926h426v-877q0 -98 41.5 -143t132.5 -45q76 0 124.5 32.5t58 73.5t9.5 160v799h329zM346 1598l323 259l98 -164l-354 -211zM754 1598l324 259l97 -164l-353 -211z"/>
<glyph glyph-name="uhungarumlaut" horiz-adv-x="1199" unicode="ű" d="M1094 1017v-1017h-369v167q-81 -188 -316 -188q-145 0 -224.5 80.5t-79.5 230.5v727h399v-640q0 -60 16.5 -84.5t64.5 -24.5q51 0 83 36.5t32 102.5v610h394zM260 1277l323 259l98 -164l-354 -211zM668 1277l324 259l97 -164l-353 -211z"/>
<glyph glyph-name="Uogonek" horiz-adv-x="1331" unicode="Ų" d="M1110 -233l20 -88q-86 -41 -190 -41q-120 0 -173 48.5t-53 115.5q0 112 138 194q-88 -17 -172 -17q-263 0 -419 108t-156 352v926h426v-877q0 -98 41.5 -143t132.5 -45q76 0 124.5 32.5t58 73.5t9.5 160v799h329v-904q0 -138 -35.5 -217.5t-127.5 -163.5 q-160 -146 -160 -236q0 -95 110 -95q42 0 97 18z"/>
<glyph glyph-name="uogonek" horiz-adv-x="1199" unicode="ų" d="M1094 0q-135 -75 -135 -164q0 -90 107 -90q41 0 92 18l20 -85q-83 -40 -183 -40q-115 0 -166 46.5t-51 111.5q0 121 164 203h-217v167q-81 -188 -316 -188q-145 0 -224.5 80.5t-79.5 230.5v727h399v-640q0 -60 16.5 -84.5t64.5 -24.5q51 0 83 36.5t32 102.5v610h394 v-1017z"/>
<glyph glyph-name="Wcircumflex" horiz-adv-x="1843" unicode="Ŵ" d="M1829 1365l-362 -1365h-352l-191 753l-180 -753h-367l-363 1365h394l191 -787l186 787h330l202 -787l191 787h321zM1353 1516l-232 -21l-170 130l-169 -130l-232 21l401 318z"/>
<glyph glyph-name="wcircumflex" horiz-adv-x="1521" unicode="ŵ" d="M1507 1017l-322 -1017h-287l-133 551l-139 -551h-284l-328 1017h392l134 -498l128 498h294l127 -498l141 498h277zM1203 1195l-232 -21l-170 130l-169 -130l-232 21l401 318z"/>
<glyph glyph-name="Ycircumflex" horiz-adv-x="1211" unicode="Ŷ" d="M1252 1365l-427 -787v-578h-407v578l-459 787h459l239 -449l229 449h366zM1041 1516l-232 -21l-170 130l-169 -130l-232 21l401 318z"/>
<glyph glyph-name="ycircumflex" horiz-adv-x="1049" unicode="ŷ" d="M1055 1017l-399 -1102q-46 -125 -132 -195.5t-265 -70.5q-43 0 -200 9v283q78 -12 144 -12q172 0 172 76q0 25 -17 69l-365 943h427l168 -542l176 542h291zM945 1195l-232 -21l-170 130l-169 -130l-232 21l401 318z"/>
<glyph glyph-name="Ydieresis" horiz-adv-x="1211" unicode="Ÿ" d="M1252 1365l-427 -787v-578h-407v578l-459 787h459l239 -449l229 449h366zM813 1511q-55 0 -94.5 39t-39.5 93t39 92.5t94 38.5t93.5 -38.5t38.5 -92.5q0 -55 -39 -93.5t-92 -38.5zM452 1511q-55 0 -94 38.5t-39 93.5q0 53 38.5 92t94.5 39t94 -39.5t38 -92.5 q0 -54 -39 -92.5t-93 -38.5z"/>
<glyph glyph-name="Zacute" horiz-adv-x="1204" unicode="Ź" d="M1170 322v-322h-1136v261l605 788h-559v316h1071v-265l-587 -778h606zM435 1619l457 224l73 -195l-478 -166z"/>
<glyph glyph-name="zacute" horiz-adv-x="965" unicode="ź" d="M931 253v-253h-897v221l429 551q-77 -3 -104 -3h-290v248h846v-214l-438 -552l53 1q16 1 29 1h372zM299 1298l457 224l73 -195l-478 -166z"/>
<glyph glyph-name="Zdotaccent" horiz-adv-x="1204" unicode="Ż" d="M1170 322v-322h-1136v261l605 788h-559v316h1071v-265l-587 -778h606zM617 1508q-56 0 -96.5 40t-40.5 96t40 95.5t96 39.5q57 0 97 -39.5t40 -95.5q0 -57 -40 -96.5t-96 -39.5z"/>
<glyph glyph-name="zdotaccent" horiz-adv-x="965" unicode="ż" d="M931 253v-253h-897v221l429 551q-77 -3 -104 -3h-290v248h846v-214l-438 -552l53 1q16 1 29 1h372zM493 1188q-56 0 -96.5 40t-40.5 96t40 95.5t96 39.5q57 0 97 -39.5t40 -95.5q0 -57 -40 -96.5t-96 -39.5z"/>
<glyph glyph-name="Zcaron" horiz-adv-x="1204" unicode="Ž" d="M1170 322v-322h-1136v261l605 788h-559v316h1071v-265l-587 -778h606zM214 1800l232 20l169 -130l170 130l232 -20l-402 -318z"/>
<glyph glyph-name="zcaron" horiz-adv-x="965" unicode="ž" d="M931 253v-253h-897v221l429 551q-77 -3 -104 -3h-290v248h846v-214l-438 -552l53 1q16 1 29 1h372zM91 1479l232 20l169 -130l170 130l232 -20l-402 -318z"/>
<glyph glyph-name="longs" d="M735 0h-377v1017q0 127 11 187t55 115.5t118 85t199 29.5q153 0 294 -28v-258q-133 17 -179 17q-121 0 -121 -94v-1071z" unicode="ſ"/>
<glyph glyph-name="florin" d="M997 853h-196l-137 -777q-36 -202 -145.5 -292t-333.5 -90q-100 0 -199 24l45 254q51 -9 92 -9q84 0 118 33.5t50 124.5l129 732h-153l47 264h153q30 233 141.5 324t316.5 91q121 0 226 -24l-45 -253q-60 8 -94 8q-82 0 -124.5 -26t-55.5 -120h211z" unicode="ƒ"/>
<glyph glyph-name="Aringacute" horiz-adv-x="1306" unicode="Ǻ" d="M500 567h222l-111 396zM649 1340q34 0 59.5 27t25.5 68q0 36 -25 62.5t-60 26.5q-36 0 -60.5 -27t-24.5 -65q0 -37 25 -64.5t60 -27.5zM423 1346q-16 44 -16 86q0 101 71.5 171.5t169.5 70.5q101 0 172 -70.5t71 -170.5q0 -42 -15 -82l423 -1351h-427l-77 269h-366 l-82 -269h-340zM361 1803l461 211l69 -195l-478 -153z"/>
<glyph glyph-name="aringacute" d="M716 476q-255 -27 -255 -163q0 -92 101 -92q64 0 109 38t45 168v49zM1130 0h-380q-14 65 -14 142q-108 -163 -327 -163q-180 0 -269.5 92t-89.5 211q0 161 146.5 260.5t519.5 119.5v23q0 67 -30.5 89t-89.5 22q-138 0 -154 -111l-364 34q78 319 531 319q123 0 226 -24.5 t163 -76.5t80.5 -110t20.5 -223v-406q0 -116 31 -198zM576 1581q31 0 53.5 22t22.5 55q0 29 -22.5 51t-53.5 22t-53 -22.5t-22 -52.5q0 -31 22 -53t53 -22zM576 1455q-83 0 -142 58.5t-59 141.5t59 142t142 59q84 0 143 -58.5t59 -141.5q0 -84 -59.5 -142.5t-142.5 -58.5z M357 1249l457 224l73 -195l-478 -166z" unicode="ǻ"/>
<glyph glyph-name="AEacute" horiz-adv-x="1865" unicode="Ǽ" d="M566 568h215v482zM1818 326v-326h-1037v283h-326l-127 -283h-355l609 1365h1222v-315h-609v-198h493v-303h-493v-223h623zM972 1619l457 224l73 -195l-478 -166z"/>
<glyph glyph-name="aeacute" horiz-adv-x="1627" unicode="ǽ" d="M649 479q-220 -33 -220 -163q0 -44 25.5 -69.5t62.5 -25.5q136 0 136 201q0 18 -4 57zM1224 633q0 175 -128 175t-130 -175h258zM1573 436h-606q4 -192 144 -192q118 0 134 125l328 -25q-30 -164 -159 -264.5t-308 -100.5q-236 0 -383 173q-127 -173 -351 -173 q-157 0 -239 90t-82 212q0 158 124.5 257t473.5 128v32q0 98 -104 98q-112 0 -133 -112l-338 35q80 319 489 319q167 0 271 -70q118 70 255 70q226 0 357 -150t131 -377q0 -23 -4 -75zM590 1298l457 224l73 -195l-478 -166z"/>
<glyph glyph-name="Oslashacute" horiz-adv-x="1415" unicode="Ǿ" d="M902 830l-304 -502q43 -39 109 -39q106 0 152.5 92.5t46.5 338.5q0 50 -4 110zM516 544l301 496q-42 36 -101 36q-207 0 -207 -401q0 -59 7 -131zM270 140q-212 196 -212 539q0 312 176 509.5t470 197.5q169 0 290 -56l90 149h211l-151 -249q213 -194 213 -534 q0 -327 -182.5 -522t-459.5 -195q-164 0 -293 60l-92 -152h-214zM483 1619l457 224l73 -195l-478 -166z"/>
<glyph glyph-name="oslashacute" horiz-adv-x="1217" unicode="ǿ" d="M520 252q29 -31 88 -31q73 0 107.5 58t34.5 244q0 47 -5 98zM694 762q-31 26 -84 26q-72 0 -107.5 -58.5t-35.5 -229.5q0 -35 5 -97zM1109 1128l-139 -201q196 -153 196 -416q0 -231 -156.5 -381.5t-416.5 -150.5q-111 0 -214 40l-86 -128h-185l132 209 q-189 158 -189 407q0 227 155.5 379t406.5 152q111 0 221 -38l89 128h186zM344 1298l457 224l73 -195l-478 -166z"/>
<glyph glyph-name="circumflex" horiz-adv-x="1024" unicode="ˆ" d="M914 1195l-232 -21l-170 130l-169 -130l-232 21l401 318z"/>
<glyph glyph-name="caron" horiz-adv-x="1024" unicode="ˇ" d="M111 1479l232 20l169 -130l170 130l232 -20l-402 -318z"/>
<glyph glyph-name="macron" horiz-adv-x="1024" unicode="ˉ" d="M188 1208v155h647v-155h-647z"/>
<glyph glyph-name="breve" horiz-adv-x="1024" unicode="˘" d="M700 1495h176q-35 -153 -137 -233.5t-226 -80.5q-122 0 -224 77t-141 237h176q69 -142 190 -142q122 0 186 142z"/>
<glyph glyph-name="dotaccent" horiz-adv-x="1024" unicode="˙" d="M513 1188q-56 0 -96.5 40t-40.5 96t40 95.5t96 39.5q57 0 97 -39.5t40 -95.5q0 -57 -40 -96.5t-96 -39.5z"/>
<glyph glyph-name="ring" horiz-adv-x="1024" unicode="˚" d="M512 1273q31 0 53.5 22t22.5 55q0 29 -22.5 51t-53.5 22t-53 -22.5t-22 -52.5q0 -31 22 -53t53 -22zM512 1147q-83 0 -142 58.5t-59 141.5t59 142t142 59q84 0 143 -58.5t59 -141.5q0 -84 -59.5 -142.5t-142.5 -58.5z"/>
<glyph glyph-name="ogonek" horiz-adv-x="1024" unicode="˛" d="M884 0q-134 -75 -134 -164q0 -90 107 -90q41 0 92 18l20 -85q-83 -40 -183 -40q-121 0 -169 48.5t-48 108.5q0 122 164 204h151z"/>
<glyph glyph-name="tilde" horiz-adv-x="1024" unicode="˜" d="M780 1433l100 -117q-122 -128 -244 -128q-62 0 -157 49q-64 33 -100 33q-70 0 -136 -78l-98 117q121 128 233 128q58 0 136 -40q84 -43 118 -43q64 0 148 79z"/>
<glyph glyph-name="hungarumlaut" horiz-adv-x="1024" unicode="˝" d="M206 1277l323 259l98 -164l-354 -211zM614 1277l324 259l97 -164l-353 -211z"/>
<glyph glyph-name="tonos" horiz-adv-x="1024" unicode="΄" d="M168 1365l-310 -400l-119 87l234 437z"/>
<glyph glyph-name="dieresistonos" horiz-adv-x="1024" unicode="΅" d="M824 1319q0 -54 -39 -92.5t-92 -38.5q-55 0 -94.5 39t-39.5 93t39 92.5t94 38.5t93.5 -38t38.5 -94zM464 1319q0 -55 -39 -93t-93 -38q-55 0 -94 38.5t-39 93.5q0 53 38.5 92t94.5 39t94 -39.5t38 -92.5zM403 1605l301 286l127 -154l-332 -247z"/>
<glyph glyph-name="Alphatonos" horiz-adv-x="1306" unicode="Ά" d="M500 567h222l-111 396zM872 0l-77 269h-366l-82 -269h-340l422 1365h443l427 -1365h-427zM310 1365l-310 -400l-119 87l234 437z"/>
<glyph glyph-name="anoteleia" horiz-adv-x="380" unicode="·" d="M380 698v-365h-380v365h380z"/>
<glyph glyph-name="Epsilontonos" horiz-adv-x="1193" unicode="Έ" d="M1146 326v-326h-1027v1365h1027v-315h-616v-198h498v-303h-498v-223h616zM37 1365l-310 -400l-119 87l234 437z"/>
<glyph glyph-name="Etatonos" horiz-adv-x="1395" unicode="Ή" d="M1277 1365v-1365h-419v531h-320v-531h-419v1365h419v-502h320v502h419zM37 1365l-310 -400l-119 87l234 437z"/>
<glyph glyph-name="Iotatonos" horiz-adv-x="657" unicode="Ί" d="M538 1365v-1365h-419v1365h419zM37 1365l-310 -400l-119 87l234 437z"/>
<glyph glyph-name="Omicrontonos" horiz-adv-x="1415" unicode="Ό" d="M707 289q106 0 152.5 92.5t46.5 338.5q0 356 -191 356q-206 0 -206 -406q0 -381 198 -381zM709 -21q-288 0 -469.5 191t-181.5 511q0 306 173.5 505.5t481.5 199.5q285 0 464.5 -188t179.5 -502q0 -325 -181 -521t-467 -196zM159 1365l-310 -400l-119 87l234 437z"/>
<glyph glyph-name="Upsilontonos" horiz-adv-x="1211" unicode="Ύ" d="M1252 1365l-427 -787v-578h-407v578l-459 787h459l239 -449l229 449h366zM-80 1365l-310 -400l-119 87l234 437z"/>
<glyph glyph-name="Omegatonos" horiz-adv-x="1473" unicode="Ώ" d="M54 0v317h339q-168 56 -247.5 193.5t-79.5 304.5q0 250 172.5 410.5t497.5 160.5q318 0 494 -158.5t176 -412.5q0 -166 -79.5 -304t-247.5 -194h339v-317h-615v317q153 87 153 420q0 360 -220 360t-220 -360q0 -333 153 -420v-317h-615zM133 1365l-310 -400l-119 87 l234 437z"/>
<glyph glyph-name="iotadieresistonos" horiz-adv-x="609" unicode="ΐ" d="M105 0v1010h399v-1010h-399zM617 1319q0 -54 -39 -92.5t-92 -38.5q-55 0 -94.5 39t-39.5 93t39 92.5t94 38.5t93.5 -38t38.5 -94zM257 1319q0 -55 -39 -93t-93 -38q-55 0 -94 38.5t-39 93.5q0 53 38.5 92t94.5 39t94 -39.5t38 -92.5zM196 1605l301 286l127 -154 l-332 -247z"/>
<glyph glyph-name="Alpha" horiz-adv-x="1306" unicode="Α" d="M500 567h222l-111 396zM872 0l-77 269h-366l-82 -269h-340l422 1365h443l427 -1365h-427z"/>
<glyph glyph-name="Beta" horiz-adv-x="1316" unicode="Β" d="M505 304h204q76 0 111.5 37.5t35.5 84.5t-34.5 86.5t-126.5 39.5h-190v-248zM505 842h194q73 0 103 37t30 79q0 114 -140 114h-187v-230zM119 0v1365h693q216 0 315 -109t99 -249q0 -102 -57.5 -184.5t-171.5 -113.5q265 -64 265 -318q0 -152 -93.5 -271.5t-399.5 -119.5 h-650z"/>
<glyph glyph-name="Gamma" horiz-adv-x="1001" unicode="Γ" d="M119 0v1365h896v-322h-477v-1043h-419z"/>
<glyph glyph-name="Delta" horiz-adv-x="1259" unicode="Δ" d="M408 322h364l-179 629h-14zM-20 0l439 1365h418l464 -1365h-1321z"/>
<glyph glyph-name="Epsilon" horiz-adv-x="1193" unicode="Ε" d="M1146 326v-326h-1027v1365h1027v-315h-616v-198h498v-303h-498v-223h616z"/>
<glyph glyph-name="Zeta" horiz-adv-x="1204" unicode="Ζ" d="M1170 322v-322h-1136v261l605 788h-559v316h1071v-265l-587 -778h606z"/>
<glyph glyph-name="Eta" horiz-adv-x="1395" unicode="Η" d="M1277 1365v-1365h-419v531h-320v-531h-419v1365h419v-502h320v502h419z"/>
<glyph glyph-name="Theta" horiz-adv-x="1510" unicode="Θ" d="M928 829v-265h-346v265h346zM755 1087q-112 0 -189.5 -93t-77.5 -311q0 -217 76.5 -311t190.5 -94q122 0 194.5 100.5t72.5 304.5q0 213 -75.5 308.5t-191.5 95.5zM754 1386q319 0 508.5 -196.5t189.5 -505.5q0 -305 -186 -505t-516 -200q-303 0 -497.5 186t-194.5 504 q0 329 196 523t500 194z"/>
<glyph glyph-name="Iota" horiz-adv-x="657" unicode="Ι" d="M538 1365v-1365h-419v1365h419z"/>
<glyph glyph-name="Kappa" horiz-adv-x="1343" unicode="Κ" d="M1350 0h-459l-236 516l-141 -201v-315h-395v1365h395v-564l377 564h376l-345 -499z"/>
<glyph glyph-name="Lambda" horiz-adv-x="1212" unicode="Λ" d="M287 0h-335l432 1365h445l424 -1365h-414l-273 970z"/>
<glyph glyph-name="Mu" horiz-adv-x="1722" unicode="Μ" d="M1603 1365v-1365h-389v976l-253 -976h-266l-262 976v-976h-314v1365h547l198 -725l189 725h550z"/>
<glyph glyph-name="Nu" horiz-adv-x="1405" unicode="Ν" d="M1286 0h-341l-374 603q-72 116 -145 282q33 -132 33 -224v-661h-340v1365h396l318 -500q95 -149 144 -262q-32 175 -32 358v404h341v-1365z"/>
<glyph glyph-name="Xi" horiz-adv-x="1212" unicode="Ξ" d="M55 0v322h1103v-322h-1103zM185 557v290h843v-290h-843zM72 1049v316h1068v-316h-1068z"/>
<glyph glyph-name="Omicron" horiz-adv-x="1415" unicode="Ο" d="M707 289q106 0 152.5 92.5t46.5 338.5q0 356 -191 356q-206 0 -206 -406q0 -381 198 -381zM709 -21q-288 0 -469.5 191t-181.5 511q0 306 173.5 505.5t481.5 199.5q285 0 464.5 -188t179.5 -502q0 -325 -181 -521t-467 -196z"/>
<glyph glyph-name="Pi" horiz-adv-x="1379" unicode="Π" d="M119 0v1365h1141v-1365h-419v1049h-303v-1049h-419z"/>
<glyph glyph-name="Rho" horiz-adv-x="1317" unicode="Ρ" d="M538 789h140q185 0 185 136q0 128 -171 128h-154v-264zM544 496v-496h-425v1365h583q218 0 331.5 -50t180 -153t66.5 -231q0 -195 -136 -315t-363 -120h-237z"/>
<glyph glyph-name="Sigma" horiz-adv-x="1132" unicode="Σ" d="M42 0v312l369 316l-336 419v318h986v-318h-508l288 -354l-390 -371h634v-322h-1043z"/>
<glyph glyph-name="Tau" horiz-adv-x="963" unicode="Τ" d="M680 1038v-1038h-397v1038h-283v327h963v-327h-283z"/>
<glyph glyph-name="Upsilon" horiz-adv-x="1211" unicode="Υ" d="M1252 1365l-427 -787v-578h-407v578l-459 787h459l239 -449l229 449h366z"/>
<glyph glyph-name="Phi" horiz-adv-x="1570" unicode="Φ" d="M956 400q167 68 167 283t-167 283v-566zM614 966q-167 -68 -167 -283t167 -283v566zM614 127q-268 21 -412 175.5t-144 380.5t144.5 380t411.5 175v168h342v-168q270 -21 413 -176t143 -379q0 -227 -145.5 -381t-410.5 -175v-168h-342v168z"/>
<glyph glyph-name="Chi" horiz-adv-x="1322" unicode="Χ" d="M1287 1365l-396 -634l459 -731h-487l-252 429l-254 -429h-384l440 707l-422 658h488l212 -367l220 367h376z"/>
<glyph glyph-name="Psi" horiz-adv-x="1852" unicode="Ψ" d="M717 0v237q-205 0 -330.5 50t-190 136t-86 197t-21.5 344v401h419v-401l2 -163q2 -110 15.5 -151t57 -64.5t134.5 -31.5v811h419v-811q97 7 138.5 33.5t56 69t14.5 307.5v401h419v-401q0 -232 -19 -339t-90.5 -200t-196 -140.5t-322.5 -47.5v-237h-419z"/>
<glyph glyph-name="Omega" horiz-adv-x="1473" unicode="Ω" d="M55 0v317h339q-168 56 -247.5 193.5t-79.5 304.5q0 250 172.5 410.5t497.5 160.5q318 0 494 -158.5t176 -412.5q0 -166 -79.5 -304t-247.5 -194h339v-317h-615v317q153 87 153 420q0 360 -220 360t-220 -360q0 -333 153 -420v-317h-615z"/>
<glyph glyph-name="Iotadieresis" horiz-adv-x="657" unicode="Ϊ" d="M538 1365v-1365h-419v1365h419zM527 1511q-55 0 -94.5 39t-39.5 93t39 92.5t94 38.5t93.5 -38.5t38.5 -92.5q0 -55 -39 -93.5t-92 -38.5zM166 1511q-55 0 -94 38.5t-39 93.5q0 53 38.5 92t94.5 39t94 -39.5t38 -92.5q0 -54 -39 -92.5t-93 -38.5z"/>
<glyph glyph-name="Upsilondieresis" horiz-adv-x="1211" unicode="Ϋ" d="M1252 1365l-427 -787v-578h-407v578l-459 787h459l239 -449l229 449h366zM833 1511q-55 0 -94.5 39t-39.5 93t39 92.5t94 38.5t93.5 -38.5t38.5 -92.5q0 -55 -39 -93.5t-92 -38.5zM472 1511q-55 0 -94 38.5t-39 93.5q0 53 38.5 92t94.5 39t94 -39.5t38 -92.5 q0 -54 -39 -92.5t-93 -38.5z"/>
<glyph glyph-name="alphatonos" horiz-adv-x="1335" unicode="ά" d="M759 504q-36 166 -74 225.5t-93 59.5q-57 0 -86.5 -73t-29.5 -193q0 -296 118 -296q42 0 79.5 42.5t85.5 234.5zM1322 0h-445l-57 188q-121 -209 -320 -209q-201 0 -325 156.5t-124 383.5q0 229 135 371t349 142q205 0 315 -169l27 147h433l-214 -478zM408 1298l457 224 l73 -195l-478 -166z"/>
<glyph glyph-name="epsilontonos" horiz-adv-x="1083" unicode="έ" d="M686 607v-191q-90 -1 -123.5 -6.5t-56.5 -31t-23 -73.5q0 -100 97 -100q101 0 120 117l363 -49q-80 -294 -495 -294q-264 0 -387 88t-123 239q0 180 226 234q-123 48 -154 96t-31 108q0 130 112 208.5t324 78.5q445 0 518 -284l-353 -51q-16 101 -106 101q-97 0 -97 -93 q0 -57 36 -77t106 -20h47zM336 1298l457 224l73 -195l-478 -166z"/>
<glyph glyph-name="etatonos" horiz-adv-x="1197" unicode="ή" d="M1098 -341h-399v974q0 123 -85 123q-110 0 -110 -152v-604h-399v1010h370v-144q81 165 293 165q122 0 203 -52t104 -118.5t23 -216.5v-985zM377 1298l457 224l73 -195l-478 -166z"/>
<glyph glyph-name="iotatonos" horiz-adv-x="609" unicode="ί" d="M105 0v1010h399v-1010h-399zM53 1298l457 224l73 -195l-478 -166z"/>
<glyph glyph-name="upsilondieresistonos" horiz-adv-x="1187" unicode="ΰ" d="M495 1010v-522q0 -169 16.5 -214t82.5 -45q64 0 81.5 44.5t17.5 214.5v522h398v-522q0 -202 -48.5 -300.5t-152.5 -153.5t-286 -55q-257 0 -382.5 105t-125.5 404v522h399zM907 1319q0 -54 -39 -92.5t-92 -38.5q-55 0 -94.5 39t-39.5 93t39 92.5t94 38.5t93.5 -38 t38.5 -94zM547 1319q0 -55 -39 -93t-93 -38q-55 0 -94 38.5t-39 93.5q0 53 38.5 92t94.5 39t94 -39.5t38 -92.5zM486 1605l301 286l127 -154l-332 -247z"/>
<glyph glyph-name="alpha" horiz-adv-x="1335" unicode="α" d="M759 504q-36 166 -74 225.5t-93 59.5q-57 0 -86.5 -73t-29.5 -193q0 -296 118 -296q42 0 79.5 42.5t85.5 234.5zM1322 0h-445l-57 188q-121 -209 -320 -209q-201 0 -325 156.5t-124 383.5q0 229 135 371t349 142q205 0 315 -169l27 147h433l-214 -478z"/>
<glyph glyph-name="beta" horiz-adv-x="1261" unicode="β" d="M504 301q52 -72 125 -72q74 0 112 64.5t38 165.5q0 73 -23.5 120t-52 59.5t-96.5 14.5v187q81 1 105 46t24 113q0 163 -122 163q-71 0 -90.5 -49t-19.5 -208v-604zM105 -341v1193q0 204 48.5 311.5t159 165t313.5 57.5q265 0 387 -100t122 -238q0 -234 -305 -282 q223 -42 298 -145t75 -223q0 -167 -124 -293t-310 -126q-100 0 -156 34.5t-109 114.5v-469h-399z"/>
<glyph glyph-name="gamma" horiz-adv-x="982" unicode="γ" d="M275 -341v341l-312 1010h420l149 -593l196 593h309l-363 -1010v-341h-399z"/>
<glyph glyph-name="delta" horiz-adv-x="1233" unicode="δ" d="M617 709q-69 0 -101.5 -53.5t-32.5 -192.5q0 -113 25 -176t112 -63q83 0 106.5 73.5t23.5 182.5q0 130 -31 179.5t-102 49.5zM1029 1365v-254h-344l91 -57q399 -251 399 -585q0 -220 -147 -355t-411 -135q-250 0 -404.5 131.5t-154.5 363.5q0 351 413 439l-282 227v225 h840z"/>
<glyph glyph-name="epsilon" horiz-adv-x="1083" unicode="ε" d="M686 607v-191q-90 -1 -123.5 -6.5t-56.5 -31t-23 -73.5q0 -100 97 -100q101 0 120 117l363 -49q-80 -294 -495 -294q-264 0 -387 88t-123 239q0 180 226 234q-123 48 -154 96t-31 108q0 130 112 208.5t324 78.5q445 0 518 -284l-353 -51q-16 101 -106 101q-97 0 -97 -93 q0 -57 36 -77t106 -20h47z"/>
<glyph glyph-name="zeta" horiz-adv-x="918" unicode="ζ" d="M141 1111v254h756v-228q-176 -74 -295.5 -270t-119.5 -398q0 -81 34 -140.5t166 -64.5q154 -5 200.5 -77t46.5 -186q0 -167 -92 -349l-318 39q58 112 58 212q0 56 -30 76t-106 23q-383 14 -383 396q0 418 452 713h-369z"/>
<glyph glyph-name="eta" horiz-adv-x="1197" unicode="η" d="M1098 -341h-399v974q0 123 -85 123q-110 0 -110 -152v-604h-399v1010h370v-144q81 165 293 165q122 0 203 -52t104 -118.5t23 -216.5v-985z"/>
<glyph glyph-name="theta" horiz-adv-x="1219" unicode="θ" d="M469 600q0 -213 31 -301t109 -88q87 0 113 105.5t26 283.5h-279zM469 805h279q-2 172 -33.5 260.5t-106.5 88.5q-135 0 -139 -349zM598 1386q299 0 431 -197t132 -507q0 -321 -137 -512t-404 -191q-297 0 -429.5 195t-132.5 508q0 329 138 516.5t402 187.5z"/>
<glyph glyph-name="iota" horiz-adv-x="609" unicode="ι" d="M105 0v1010h399v-1010h-399z"/>
<glyph glyph-name="kappa" horiz-adv-x="1162" unicode="κ" d="M874 667l342 -667h-412l-191 407l-111 -127v-280h-397v1010h397v-380q34 51 71 93l255 287h353z"/>
<glyph glyph-name="lambda" horiz-adv-x="991" unicode="λ" d="M-34 0l335 920l-176 445h410l504 -1365h-410l-191 588l-190 -588h-282z"/>
<glyph glyph-name="mu" horiz-adv-x="1214" unicode="μ" d="M105 -341v1351h399v-514q0 -172 21 -219.5t80 -47.5q62 0 83.5 46.5t21.5 220.5v514h399v-1010h-310l-13 150q-15 -84 -48.5 -127.5t-107.5 -43.5q-96 0 -140 131v-451h-385z"/>
<glyph glyph-name="nu" horiz-adv-x="1037" unicode="ν" d="M1044 1017l-373 -1017h-298l-380 1017h410l145 -432q18 -53 32 -105q5 18 15 46q2 4 13 38l150 453h286z"/>
<glyph glyph-name="xi" horiz-adv-x="979" unicode="ξ" d="M596 -308q50 136 50 194q0 53 -33 74.5t-123 32.5q-237 30 -337 115.5t-100 255.5q0 126 74 206.5t231 140.5q-165 61 -199.5 109.5t-34.5 90.5q0 140 214 200h-245v254h847v-254h-161q-90 0 -125.5 -7t-65 -44.5t-29.5 -88.5q0 -141 181 -141h151v-253h-151 q-99 0 -148.5 -11.5t-82 -52t-32.5 -100.5q0 -65 34 -94t137 -45q158 -26 215 -45.5t91.5 -72.5t34.5 -157q0 -147 -73 -347z"/>
<glyph glyph-name="omicron" horiz-adv-x="1217" unicode="ο" d="M608 221q93 0 113.5 96.5t20.5 201.5q0 143 -29 206t-104 63q-69 0 -101 -65t-32 -214q0 -175 33 -231.5t99 -56.5zM602 -21q-253 0 -402 157.5t-149 369.5q0 228 155.5 380t404.5 152q251 0 403.5 -150t152.5 -376q0 -228 -154.5 -380.5t-410.5 -152.5z"/>
<glyph glyph-name="pi" horiz-adv-x="1290" unicode="π" d="M140 0v755h-113v255h1235v-255h-113v-755h-398v755h-212v-755h-399z"/>
<glyph glyph-name="rho" horiz-adv-x="1211" unicode="ρ" d="M619 781q-69 0 -101.5 -62.5t-32.5 -217.5q0 -149 29.5 -214.5t103.5 -65.5q93 0 113.5 96t20.5 202q0 136 -28.5 199t-104.5 63zM93 -341v760q0 176 17 269.5t81.5 173t172.5 125t246 45.5q268 0 409 -160.5t141 -398.5q0 -217 -125.5 -355.5t-332.5 -138.5 q-131 0 -210 72v-392h-399z"/>
<glyph glyph-name="sigma1" horiz-adv-x="1121" unicode="ς" d="M678 -295q35 111 35 180q0 50 -27 69t-102 28q-156 18 -265.5 67t-185 168.5t-75.5 286.5q0 227 145.5 377t394.5 150q235 0 355.5 -106t139.5 -255l-362 -54q-15 165 -116 165q-51 0 -91.5 -49t-40.5 -156q0 -110 34 -182t89 -98.5t180 -46.5q107 -17 158.5 -38 t86 -81.5t34.5 -165.5q0 -129 -54 -312z"/>
<glyph glyph-name="sigma" horiz-adv-x="1255" unicode="σ" d="M615 781q-69 0 -100.5 -61.5t-31.5 -216.5q0 -142 27.5 -210.5t103.5 -68.5q90 0 111 93.5t21 202.5q0 139 -28.5 200t-102.5 61zM1238 1010v-254h-185q117 -107 117 -294q0 -201 -143 -342t-394 -141q-273 0 -424 139t-151 385q0 222 136 375t422 153q109 0 198 -21h424 z"/>
<glyph glyph-name="tau" horiz-adv-x="913" unicode="τ" d="M257 0v756h-257v254h913v-254h-257v-756h-399z"/>
<glyph glyph-name="upsilon" horiz-adv-x="1187" unicode="υ" d="M495 1010v-522q0 -169 16.5 -214t82.5 -45q64 0 81.5 44.5t17.5 214.5v522h398v-522q0 -202 -48.5 -300.5t-152.5 -153.5t-286 -55q-257 0 -382.5 105t-125.5 404v522h399z"/>
<glyph glyph-name="phi" horiz-adv-x="1602" unicode="φ" d="M970 213q182 69 182 297q0 225 -182 292v-589zM615 -341v318q-239 7 -398 149t-159 377q0 185 110 319.5t269 166.5l78 -260q-75 -80 -75 -224q0 -232 175 -289v805q91 10 179 10q254 0 376.5 -42t208.5 -119t126 -172.5t40 -196.5q0 -197 -139.5 -350t-435.5 -174v-318 h-355z"/>
<glyph glyph-name="chi" horiz-adv-x="1100" unicode="χ" d="M334 391l-344 619h417l210 -417l165 417h338l-338 -671l373 -680h-414l-238 482l-202 -482h-349z"/>
<glyph glyph-name="psi" horiz-adv-x="1688" unicode="ψ" d="M660 -341v319q-142 4 -233 24.5t-172.5 81.5t-120 150.5t-38.5 255.5v520h399v-536q0 -157 31.5 -201.5t133.5 -44.5v782h369v-782q99 0 132 42.5t33 203.5v536h398v-520q0 -157 -32.5 -244t-114 -152.5t-173.5 -88.5t-243 -27v-319h-369z"/>
<glyph glyph-name="omega" horiz-adv-x="1627" unicode="ω" d="M991 754v-239q0 -190 17 -238.5t60 -48.5q100 0 100 208q0 269 -161 494l292 115q290 -233 290 -578q0 -250 -125 -369t-324 -119q-111 0 -180.5 36.5t-146.5 155.5q-74 -117 -145 -154.5t-176 -37.5q-208 0 -331.5 120.5t-123.5 362.5q0 350 290 583l293 -115 q-162 -225 -162 -494q0 -208 99 -208q40 0 59 44.5t19 242.5v239h356z"/>
<glyph glyph-name="iotadieresis" horiz-adv-x="609" unicode="ϊ" d="M105 0v1010h399v-1010h-399zM486 1188q-55 0 -94.5 39t-39.5 93t39 92.5t94 38.5t93.5 -38.5t38.5 -92.5q0 -55 -39 -93.5t-92 -38.5zM125 1188q-55 0 -94 38.5t-39 93.5q0 53 38.5 92t94.5 39t94 -39.5t38 -92.5q0 -54 -39 -92.5t-93 -38.5z"/>
<glyph glyph-name="upsilondieresis" horiz-adv-x="1187" unicode="ϋ" d="M495 1010v-522q0 -169 16.5 -214t82.5 -45q64 0 81.5 44.5t17.5 214.5v522h398v-522q0 -202 -48.5 -300.5t-152.5 -153.5t-286 -55q-257 0 -382.5 105t-125.5 404v522h399zM775 1188q-55 0 -94.5 39t-39.5 93t39 92.5t94 38.5t93.5 -38.5t38.5 -92.5q0 -55 -39 -93.5 t-92 -38.5zM414 1188q-55 0 -94 38.5t-39 93.5q0 53 38.5 92t94.5 39t94 -39.5t38 -92.5q0 -54 -39 -92.5t-93 -38.5z"/>
<glyph glyph-name="omicrontonos" horiz-adv-x="1217" unicode="ό" d="M608 218q93 0 113.5 96.5t20.5 201.5q0 143 -29 206t-104 63q-69 0 -101 -65t-32 -214q0 -175 33 -231.5t99 -56.5zM602 -24q-253 0 -402 157.5t-149 369.5q0 228 155.5 380t404.5 152q251 0 403.5 -150t152.5 -376q0 -228 -154.5 -380.5t-410.5 -152.5zM385 1298 l457 224l73 -195l-478 -166z"/>
<glyph glyph-name="upsilontonos" horiz-adv-x="1187" unicode="ύ" d="M495 1010v-522q0 -169 16.5 -214t82.5 -45q64 0 81.5 44.5t17.5 214.5v522h398v-522q0 -202 -48.5 -300.5t-152.5 -153.5t-286 -55q-257 0 -382.5 105t-125.5 404v522h399zM369 1298l457 224l73 -195l-478 -166z"/>
<glyph glyph-name="omegatonos" horiz-adv-x="1627" unicode="ώ" d="M991 754v-239q0 -190 17 -238.5t60 -48.5q100 0 100 208q0 269 -161 494l292 115q290 -233 290 -578q0 -250 -125 -369t-324 -119q-111 0 -180.5 36.5t-146.5 155.5q-74 -117 -145 -154.5t-176 -37.5q-208 0 -331.5 120.5t-123.5 362.5q0 350 290 583l293 -115 q-162 -225 -162 -494q0 -208 99 -208q40 0 59 44.5t19 242.5v239h356zM616 1298l457 224l73 -195l-478 -166z"/>
<glyph glyph-name="afii10023" horiz-adv-x="1193" unicode="Ё" d="M1146 326v-326h-1027v1365h1027v-315h-616v-198h498v-303h-498v-223h616zM812 1511q-55 0 -94.5 39t-39.5 93t39 92.5t94 38.5t93.5 -38.5t38.5 -92.5q0 -55 -39 -93.5t-92 -38.5zM451 1511q-55 0 -94 38.5t-39 93.5q0 53 38.5 92t94.5 39t94 -39.5t38 -92.5 q0 -54 -39 -92.5t-93 -38.5z"/>
<glyph glyph-name="afii10051" horiz-adv-x="1357" unicode="Ђ" d="M185 0v1072h-205v293h1033v-293h-421v-271q119 145 330 145q147 0 232.5 -61.5t107 -159.5t21.5 -459q0 -347 -39.5 -438t-140 -138.5t-318.5 -49.5l-17 255q53 6 76.5 34t27.5 123.5t4 263.5q0 234 -21 293.5t-106 59.5q-79 0 -118 -43t-39 -146v-480h-407z"/>
<glyph glyph-name="afii10052" horiz-adv-x="974" unicode="Ѓ" d="M119 0v1365h869v-322h-450v-1043h-419zM332 1625l457 224l73 -195l-478 -166z"/>
<glyph glyph-name="afii10053" horiz-adv-x="1362" unicode="Є" d="M919 823v-255h-448q3 -135 69.5 -207t173.5 -72q189 0 248 201l386 -65q-68 -203 -230 -324.5t-401 -121.5q-298 0 -478.5 188t-180.5 518q0 316 171.5 508.5t471.5 192.5q422 0 602 -376l-371 -103q-66 169 -224 169q-206 0 -223 -253h434z"/>
<glyph glyph-name="afii10054" horiz-adv-x="1244" unicode="Ѕ" d="M-22 395l389 70q49 -165 252 -165q158 0 158 84q0 44 -36.5 68.5t-130.5 43.5q-359 69 -461 180t-102 261q0 193 146.5 321t421.5 128q417 0 551 -335l-347 -105q-54 137 -219 137q-137 0 -137 -85q0 -38 31 -59t120 -40q245 -52 348 -92t172 -136.5t69 -227.5 q0 -207 -168 -335.5t-441 -128.5q-499 0 -616 416z"/>
<glyph glyph-name="afii10055" horiz-adv-x="657" unicode="І" d="M538 1365v-1365h-419v1365h419z"/>
<glyph glyph-name="afii10056" horiz-adv-x="657" unicode="Ї" d="M538 1365v-1365h-419v1365h419zM510 1511q-55 0 -94.5 39t-39.5 93t39 92.5t94 38.5t93.5 -38.5t38.5 -92.5q0 -55 -39 -93.5t-92 -38.5zM149 1511q-55 0 -94 38.5t-39 93.5q0 53 38.5 92t94.5 39t94 -39.5t38 -92.5q0 -54 -39 -92.5t-93 -38.5z"/>
<glyph glyph-name="afii10057" horiz-adv-x="852" unicode="Ј" d="M747 1365v-860q0 -198 -35.5 -301.5t-138.5 -164t-279 -60.5q-155 0 -280 33v326q88 -25 164 -25q90 0 128 41.5t38 150.5v860h403z"/>
<glyph glyph-name="afii10058" horiz-adv-x="1835" unicode="Љ" d="M1116 304h119q79 0 109.5 33.5t30.5 115.5q0 140 -126 140h-211zM959 883h327q236 0 336 -65t139.5 -162t39.5 -201q0 -189 -124 -322t-391 -133h-502l-236 1052l-301 -1052h-322l432 1365h472z"/>
<glyph glyph-name="afii10059" horiz-adv-x="2043" unicode="Њ" d="M1252 304h191q140 0 140 134q0 76 -36 105t-104 29h-191v-268zM1252 863h282q243 0 359.5 -118t116.5 -301q0 -115 -52.5 -225.5t-176 -164.5t-247.5 -54h-689v552h-319v-552h-407v1365h407v-523h319v523h407v-502z"/>
<glyph glyph-name="afii10060" horiz-adv-x="1378" unicode="Ћ" d="M590 1072v-271q109 145 317 145q135 0 222 -54.5t113 -134t26 -246.5v-511h-407v516q0 87 -24 119t-89 32q-73 0 -114.5 -30.5t-43.5 -156.5v-480h-406v1072h-205v293h1033v-293h-422z"/>
<glyph glyph-name="afii10061" horiz-adv-x="1343" unicode="Ќ" d="M1350 0h-459l-236 516l-141 -201v-315h-395v1365h395v-564l377 564h376l-345 -499zM475 1625l457 224l73 -195l-478 -166z"/>
<glyph glyph-name="afii10062" horiz-adv-x="1163" unicode="Ў" d="M464 422l-519 943h465l240 -528l197 528h370l-402 -995q-54 -135 -123.5 -215.5t-152.5 -117.5t-210 -37h-211v304h140q175 0 206 118zM837 1816h176q-35 -153 -137 -233.5t-226 -80.5q-122 0 -224 77t-141 237h176q69 -142 190 -142q122 0 186 142z"/>
<glyph glyph-name="afii10145" horiz-adv-x="1346" unicode="Џ" d="M526 304h295v1061h407v-1365h-402l-21 -287h-263l-22 287h-401v1365h407v-1061z"/>
<glyph glyph-name="afii10017" horiz-adv-x="1306" unicode="А" d="M500 567h222l-111 396zM872 0l-77 269h-366l-82 -269h-340l422 1365h443l427 -1365h-427z"/>
<glyph glyph-name="afii10018" horiz-adv-x="1337" unicode="Б" d="M526 304h204q126 0 126 126q0 122 -154 122h-176v-248zM119 0v1365h1007v-286h-600v-247h227q190 0 296.5 -42t169.5 -136.5t63 -229.5q0 -112 -51 -218t-174 -156t-249 -50h-689z"/>
<glyph glyph-name="afii10019" horiz-adv-x="1316" unicode="В" d="M505 304h204q76 0 111.5 37.5t35.5 84.5t-34.5 86.5t-126.5 39.5h-190v-248zM505 842h194q73 0 103 37t30 79q0 114 -140 114h-187v-230zM119 0v1365h693q216 0 315 -109t99 -249q0 -102 -57.5 -184.5t-171.5 -113.5q265 -64 265 -318q0 -152 -93.5 -271.5t-399.5 -119.5 h-650z"/>
<glyph glyph-name="afii10020" horiz-adv-x="974" unicode="Г" d="M119 0v1365h869v-322h-450v-1043h-419z"/>
<glyph glyph-name="afii10021" horiz-adv-x="1329" unicode="Д" d="M434 304h378l-167 747h-20zM107 304l308 1061h500l302 -1061h150v-591h-263l-34 287h-815l-35 -287h-263v591h150z"/>
<glyph glyph-name="afii10022" horiz-adv-x="1193" unicode="Е" d="M1146 326v-326h-1027v1365h1027v-315h-616v-198h498v-303h-498v-223h616z"/>
<glyph glyph-name="afii10024" horiz-adv-x="1925" unicode="Ж" d="M1524 771l497 -771h-433l-372 568l-60 -15v-553h-367v553l-62 15l-370 -568h-391l467 667l-425 698h418l309 -555l54 -11v566h367v-566l55 11l309 555h376z"/>
<glyph glyph-name="afii10025" horiz-adv-x="1258" unicode="З" d="M27 429l380 40q17 -101 60 -145.5t129 -44.5q175 0 175 158q0 139 -141 139h-95v240h84q125 0 125 139q0 132 -167 132q-75 0 -120 -31.5t-63 -139.5l-334 54q44 416 536 416q241 0 403 -93t162 -281q0 -196 -213 -282q255 -90 255 -313q0 -187 -160 -312.5t-440 -125.5 q-263 0 -419.5 114.5t-156.5 335.5z"/>
<glyph glyph-name="afii10026" horiz-adv-x="1405" unicode="И" d="M526 144v-144h-407v1365h407v-548q0 -109 -12 -260q75 164 149 291l216 371v146h407v-1365h-407v543q0 117 11 259q-60 -138 -149 -290z"/>
<glyph glyph-name="afii10027" horiz-adv-x="1405" unicode="Й" d="M526 144v-144h-407v1365h407v-548q0 -109 -12 -260q75 164 149 291l216 371v146h407v-1365h-407v543q0 117 11 259q-60 -138 -149 -290zM890 1816h176q-35 -153 -137 -233.5t-226 -80.5q-122 0 -224 77t-141 237h176q69 -142 190 -142q122 0 186 142z"/>
<glyph glyph-name="afii10028" horiz-adv-x="1343" unicode="К" d="M1350 0h-459l-236 516l-141 -201v-315h-395v1365h395v-564l377 564h376l-345 -499z"/>
<glyph glyph-name="afii10029" horiz-adv-x="1212" unicode="Л" d="M287 0h-335l432 1365h445l424 -1365h-414l-273 970z"/>
<glyph glyph-name="afii10030" horiz-adv-x="1722" unicode="М" d="M1603 1365v-1365h-389v976l-253 -976h-266l-262 976v-976h-314v1365h547l198 -725l189 725h550z"/>
<glyph glyph-name="afii10031" horiz-adv-x="1395" unicode="Н" d="M1277 1365v-1365h-419v531h-320v-531h-419v1365h419v-502h320v502h419z"/>
<glyph glyph-name="afii10032" horiz-adv-x="1415" unicode="О" d="M707 289q106 0 152.5 92.5t46.5 338.5q0 356 -191 356q-206 0 -206 -406q0 -381 198 -381zM709 -21q-288 0 -469.5 191t-181.5 511q0 306 173.5 505.5t481.5 199.5q285 0 464.5 -188t179.5 -502q0 -325 -181 -521t-467 -196z"/>
<glyph glyph-name="afii10033" horiz-adv-x="1366" unicode="П" d="M119 0v1365h1129v-1365h-407v1072h-315v-1072h-407z"/>
<glyph glyph-name="afii10034" horiz-adv-x="1317" unicode="Р" d="M538 789h140q185 0 185 136q0 128 -171 128h-154v-264zM544 496v-496h-425v1365h583q218 0 331.5 -50t180 -153t66.5 -231q0 -195 -136 -315t-363 -120h-237z"/>
<glyph glyph-name="afii10035" horiz-adv-x="1287" unicode="С" d="M870 521l383 -23q-27 -251 -185.5 -385t-389.5 -134q-278 0 -449 184t-171 508q0 321 162 518t452 197q271 0 416.5 -150t164.5 -398l-391 -21q0 137 -52.5 198t-123.5 61q-198 0 -198 -398q0 -223 51.5 -303t144.5 -80q166 0 186 226z"/>
<glyph glyph-name="afii10036" horiz-adv-x="963" unicode="Т" d="M680 1038v-1038h-397v1038h-283v327h963v-327h-283z"/>
<glyph glyph-name="afii10037" horiz-adv-x="1149" unicode="У" d="M457 422l-519 943h465l240 -528l197 528h370l-402 -995q-54 -135 -123.5 -215.5t-152.5 -117.5t-210 -37h-211v304h140q175 0 206 118z"/>
<glyph glyph-name="afii10038" horiz-adv-x="1570" unicode="Ф" d="M956 400q167 68 167 283t-167 283v-566zM614 966q-167 -68 -167 -283t167 -283v566zM614 127q-268 21 -412 175.5t-144 380.5t144.5 380t411.5 175v168h342v-168q270 -21 413 -176t143 -379q0 -227 -145.5 -381t-410.5 -175v-168h-342v168z"/>
<glyph glyph-name="afii10039" horiz-adv-x="1322" unicode="Х" d="M1287 1365l-396 -634l459 -731h-487l-252 429l-254 -429h-384l440 707l-422 658h488l212 -367l220 367h376z"/>
<glyph glyph-name="afii10040" horiz-adv-x="1361" unicode="Ц" d="M120 0v1365h407v-1043h294v1043h407v-1043h160v-609h-264l-34 287h-970z"/>
<glyph glyph-name="afii10041" horiz-adv-x="1365" unicode="Ч" d="M827 0v481q-119 -94 -290 -94q-192 0 -316.5 105t-124.5 343v530h419v-538q0 -73 23.5 -104t100.5 -31q93 0 188 41v632h419v-1365h-419z"/>
<glyph glyph-name="afii10042" horiz-adv-x="2040" unicode="Ш" d="M119 0v1365h407v-1043h291v1043h407v-1043h290v1043h407v-1365h-1802z"/>
<glyph glyph-name="afii10043" horiz-adv-x="2053" unicode="Щ" d="M1921 322h160v-609h-263l-35 287h-1664v1365h407v-1043h291v1043h407v-1043h290v1043h407v-1043z"/>
<glyph glyph-name="afii10044" horiz-adv-x="1431" unicode="Ъ" d="M640 304h190q79 0 109.5 33.5t30.5 115.5q0 140 -126 140h-204v-289zM233 1043h-288v322h695v-482h241q199 0 299 -45.5t158.5 -144.5t58.5 -237q0 -190 -124 -323t-392 -133h-648v1043z"/>
<glyph glyph-name="afii10045" horiz-adv-x="1933" unicode="Ы" d="M526 304h190q79 0 109.5 33.5t30.5 115.5q0 140 -126 140h-204v-289zM119 0v1365h407v-482h241q199 0 299 -45.5t158 -144.5t58 -237q0 -190 -123.5 -323t-391.5 -133h-648zM1408 0v1365h407v-1365h-407z"/>
<glyph glyph-name="afii10046" horiz-adv-x="1316" unicode="Ь" d="M526 304h190q79 0 109.5 33.5t30.5 115.5q0 140 -126 140h-204v-289zM119 0v1365h407v-482h241q199 0 299 -45.5t158 -144.5t58 -237q0 -190 -123.5 -323t-391.5 -133h-648z"/>
<glyph glyph-name="afii10047" horiz-adv-x="1362" unicode="Э" d="M443 568v255h434q-17 253 -222 253q-160 0 -225 -169l-371 103q178 376 602 376q210 0 357 -95t216.5 -254.5t69.5 -344.5q0 -337 -180.5 -525t-475.5 -188q-244 0 -405.5 122.5t-228.5 323.5l386 65q59 -201 248 -201q121 0 181 79.5t62 199.5h-448z"/>
<glyph glyph-name="afii10048" horiz-adv-x="2062" unicode="Ю" d="M1347 1076q-110 0 -159 -92t-49 -340q0 -355 199 -355q215 0 215 406q0 381 -206 381zM713 550h-187v-550h-407v1365h407v-523h194q45 252 217.5 398t408.5 146q302 0 480 -196t178 -504q0 -309 -174 -508t-481 -199q-270 0 -439 162.5t-197 408.5z"/>
<glyph glyph-name="afii10049" horiz-adv-x="1399" unicode="Я" d="M861 1075h-165q-122 0 -155.5 -40.5t-33.5 -89.5q0 -70 49 -100.5t154 -30.5h151v261zM861 522h-200l-213 -522h-396l301 574q-282 108 -282 374q0 205 133 311t363 106h713v-1365h-419v522z"/>
<glyph glyph-name="afii10065" d="M716 476q-255 -27 -255 -163q0 -92 101 -92q64 0 109 38t45 168v49zM1130 0h-380q-14 65 -14 142q-108 -163 -327 -163q-180 0 -269.5 92t-89.5 211q0 161 146.5 260.5t519.5 119.5v23q0 67 -30.5 89t-89.5 22q-138 0 -154 -111l-364 34q78 319 531 319q123 0 226 -24.5 t163 -76.5t80.5 -110t20.5 -223v-406q0 -116 31 -198z" unicode="а"/>
<glyph glyph-name="afii10066" horiz-adv-x="1197" unicode="б" d="M593 789q-69 0 -100 -58t-31 -226q0 -169 32.5 -222.5t102.5 -53.5q69 0 100 57t31 220q0 159 -29 221t-106 62zM672 1455h387q-5 -95 -83.5 -162t-295.5 -112q-137 -28 -188.5 -72t-64.5 -140q100 43 215 43q245 0 373 -146t128 -349q0 -236 -149.5 -387t-397.5 -151 q-185 0 -313.5 82t-178 211t-49.5 314q0 188 36.5 327t107 231.5t147.5 134.5t215 81q74 20 92 35.5t19 59.5z"/>
<glyph glyph-name="afii10067" horiz-adv-x="1160" unicode="в" d="M490 229h130q67 0 88 27.5t21 81.5q0 64 -26 86t-83 22h-130v-217zM490 603h140q85 0 85 89q0 97 -85 97h-140v-186zM105 0v1010h641q172 0 255 -70t83 -183q0 -187 -251 -232q279 -51 279 -259q0 -132 -99.5 -199t-277.5 -67h-630z"/>
<glyph glyph-name="afii10068" horiz-adv-x="855" unicode="г" d="M105 0v1010h723v-254h-324v-756h-399z"/>
<glyph glyph-name="afii10069" horiz-adv-x="1077" unicode="д" d="M354 240h254l-90 531h-39zM80 240l214 770h519l185 -770h95v-472h-236l-34 232h-569l-34 -232h-236v472h96z"/>
<glyph glyph-name="afii10070" d="M751 629q-1 103 -41.5 138.5t-100.5 35.5q-142 0 -142 -174h284zM777 365l372 -25q-33 -150 -168.5 -255.5t-366.5 -105.5q-257 0 -410 148.5t-153 368.5q0 228 151 385t403 157q244 0 394.5 -148t150.5 -403q0 -21 -1 -58h-681q2 -96 34 -142.5t122 -46.5q130 0 153 125 z" unicode="е"/>
<glyph glyph-name="afii10072" horiz-adv-x="1657" unicode="ж" d="M1358 618l355 -618h-398l-217 418l-71 -20v-398h-396v398l-71 20l-217 -418h-371l337 526l-329 484h379l231 -350l41 -3v353h396v-353l41 3l230 350h394z"/>
<glyph glyph-name="afii10073" horiz-adv-x="1083" unicode="з" d="M398 416v191h46q143 0 143 92q0 98 -94 98q-93 0 -110 -101l-352 51q73 284 510 284q224 0 334 -80t110 -207q0 -143 -186 -204q227 -53 227 -235q0 -153 -126 -239.5t-372 -86.5q-261 0 -371 91t-136 203l362 49q21 -117 120 -117q98 0 98 99q0 68 -41 90t-162 22z"/>
<glyph glyph-name="afii10074" horiz-adv-x="1223" unicode="и" d="M504 96v-96h-399v1010h399v-323q0 -90 -11 -246q63 139 107 222l119 225v122h399v-1010h-399v296q0 111 11 246q-63 -140 -107 -222z"/>
<glyph glyph-name="afii10075" horiz-adv-x="1223" unicode="й" d="M504 96v-96h-399v1010h399v-323q0 -90 -11 -246q63 139 107 222l119 225v122h399v-1010h-399v296q0 111 11 246q-63 -140 -107 -222zM800 1495h176q-35 -153 -137 -233.5t-226 -80.5q-122 0 -224 77t-141 237h176q69 -142 190 -142q122 0 186 142z"/>
<glyph glyph-name="afii10076" horiz-adv-x="1162" unicode="к" d="M874 667l342 -667h-412l-191 407l-111 -127v-280h-397v1010h397v-380q34 51 71 93l255 287h353z"/>
<glyph glyph-name="afii10077" horiz-adv-x="991" unicode="л" d="M-45 0l335 1010h423l315 -1010h-410l-163 684h-14l-204 -684h-282z"/>
<glyph glyph-name="afii10078" horiz-adv-x="1619" unicode="м" d="M105 0v1010h559l162 -777l162 777h525v-1010h-361v774h-14l-165 -774h-389l-165 774h-14v-774h-300z"/>
<glyph glyph-name="afii10079" horiz-adv-x="1196" unicode="н" d="M105 0v1010h399v-361h188v361h399v-1010h-399v412h-188v-412h-399z"/>
<glyph glyph-name="afii10080" horiz-adv-x="1217" unicode="о" d="M608 221q93 0 113.5 96.5t20.5 201.5q0 143 -29 206t-104 63q-69 0 -101 -65t-32 -214q0 -175 33 -231.5t99 -56.5zM602 -21q-253 0 -402 157.5t-149 369.5q0 228 155.5 380t404.5 152q251 0 403.5 -150t152.5 -376q0 -228 -154.5 -380.5t-410.5 -152.5z"/>
<glyph glyph-name="afii10081" horiz-adv-x="1166" unicode="п" d="M105 0v1010h956v-1010h-399v791h-158v-791h-399z"/>
<glyph glyph-name="afii10082" d="M504 372q0 -68 31 -105.5t77 -37.5q72 0 99 66.5t27 204.5q0 159 -31 223.5t-93 64.5q-37 0 -73.5 -29t-36.5 -95v-292zM504 -321h-399v1338h367v-144q77 165 287 165q182 0 285 -141.5t103 -385.5t-105.5 -388t-278.5 -144q-170 0 -259 130v-430z" unicode="р"/>
<glyph glyph-name="afii10083" horiz-adv-x="1071" unicode="с" d="M718 410l340 -29q-24 -178 -149.5 -290t-333.5 -112q-233 0 -378.5 146.5t-145.5 375.5q0 234 144.5 385.5t375.5 151.5q205 0 334 -114.5t148 -289.5l-349 -29q-22 161 -122 161q-64 0 -93.5 -58.5t-29.5 -203.5q0 -125 29.5 -185t102.5 -60q107 0 127 151z"/>
<glyph glyph-name="afii10084" horiz-adv-x="872" unicode="т" d="M243 0v756h-277v254h940v-254h-264v-756h-399z"/>
<glyph glyph-name="afii10085" horiz-adv-x="1049" unicode="у" d="M1055 1017l-399 -1102q-46 -125 -132 -195.5t-265 -70.5q-43 0 -200 9v283q78 -12 144 -12q172 0 172 76q0 25 -17 69l-365 943h427l168 -542l176 542h291z"/>
<glyph glyph-name="afii10086" horiz-adv-x="1527" unicode="ф" d="M932 186q175 87 175 324q0 107 -46 197t-129 128v-649zM596 835q-176 -88 -176 -325t176 -324v649zM578 -341v320q-197 15 -311 93.5t-161.5 185.5t-47.5 239q0 227 140 366.5t380 164.5v337h372v-337q240 -25 380 -165t140 -367q0 -226 -135 -363t-385 -154v-320h-372z "/>
<glyph glyph-name="afii10087" horiz-adv-x="1133" unicode="х" d="M1146 0h-450l-187 324l-199 -324h-324l357 539l-313 478h444l105 -190q7 -13 17 -30q5 -8 14 -26q11 17 27 46q2 5 11 21l104 179h329l-298 -462z"/>
<glyph glyph-name="afii10088" horiz-adv-x="1207" unicode="ц" d="M105 0v1010h399v-756h186v756h398v-756h146v-486h-236l-34 232h-859z"/>
<glyph glyph-name="afii10089" horiz-adv-x="1166" unicode="ч" d="M663 0v349q-121 -71 -271 -71q-310 0 -310 318v414h399v-387q0 -60 14.5 -81t63.5 -21q55 0 104 23v466h398v-1010h-398z"/>
<glyph glyph-name="afii10090" horiz-adv-x="1778" unicode="ш" d="M105 0v1010h399v-756h185v756h399v-756h186v756h398v-1010h-1567z"/>
<glyph glyph-name="afii10091" horiz-adv-x="1791" unicode="щ" d="M105 0v1010h399v-756h185v756h399v-756h186v756h398v-756h146v-486h-236l-34 232h-1443z"/>
<glyph glyph-name="afii10092" horiz-adv-x="1226" unicode="ъ" d="M589 229h131q67 0 87.5 27.5t20.5 81.5q0 52 -19 80t-89 28h-131v-217zM204 0v756h-259v254h658v-344h185q194 0 291.5 -89t97.5 -245q0 -98 -44 -182.5t-149.5 -117t-195.5 -32.5h-584z"/>
<glyph glyph-name="afii10093" horiz-adv-x="1692" unicode="ы" d="M1188 0v1010h399v-1010h-399zM490 229h130q67 0 88 27.5t21 81.5q0 64 -26 86t-83 22h-130v-217zM105 0v1010h399v-344h185q193 0 291 -89t98 -245q0 -98 -44.5 -182.5t-149.5 -117t-195 -32.5h-584z"/>
<glyph glyph-name="afii10094" horiz-adv-x="1126" unicode="ь" d="M490 229h130q67 0 88 27.5t21 81.5q0 64 -26 86t-83 22h-130v-217zM105 0v1010h399v-344h185q193 0 291 -89t98 -245q0 -98 -44.5 -182.5t-149.5 -117t-195 -32.5h-584z"/>
<glyph glyph-name="afii10095" horiz-adv-x="1137" unicode="э" d="M268 402v219h388q-1 80 -30 124t-106 44q-98 0 -115 -93l-373 52q113 283 484 283q276 0 423 -154t147 -374q0 -219 -144.5 -371.5t-442.5 -152.5q-357 0 -478 293l369 50q23 -102 126 -102q140 0 140 160v22h-388z"/>
<glyph glyph-name="afii10096" horiz-adv-x="1780" unicode="ю" d="M1167 789q-72 0 -105.5 -58.5t-33.5 -225.5q0 -156 31.5 -216t112.5 -60q70 0 101 57.5t31 219.5q0 157 -29 220t-108 63zM504 393v-393h-399v1010h399v-378h122q42 185 188 292t357 107q250 0 403.5 -146.5t153.5 -379.5q0 -232 -153.5 -379t-403.5 -147 q-217 0 -364 112t-184 302h-119z"/>
<glyph glyph-name="afii10097" horiz-adv-x="1137" unicode="я" d="M647 603v186h-140q-85 0 -85 -97q0 -89 85 -89h140zM633 0v379h-161l-148 -379h-310l205 453q-160 62 -160 243q0 136 92 225t259 89h622v-1010h-399z"/>
<glyph glyph-name="afii10071" d="M751 626q-1 103 -41.5 138.5t-100.5 35.5q-142 0 -142 -174h284zM777 362l372 -25q-33 -150 -168.5 -255.5t-366.5 -105.5q-257 0 -410 148.5t-153 368.5q0 228 151 385t403 157q244 0 394.5 -148t150.5 -403q0 -21 -1 -58h-681q2 -96 34 -142.5t122 -46.5q130 0 153 125 zM782 1188q-55 0 -94.5 39t-39.5 93t39 92.5t94 38.5t93.5 -38.5t38.5 -92.5q0 -55 -39 -93.5t-92 -38.5zM421 1188q-55 0 -94 38.5t-39 93.5q0 53 38.5 92t94.5 39t94 -39.5t38 -92.5q0 -54 -39 -92.5t-93 -38.5z" unicode="ё"/>
<glyph glyph-name="afii10099" horiz-adv-x="1196" unicode="ђ" d="M119 0v1094h-150v189h150v103h378v-103h390v-189h-390v-252q108 141 288 141q141 0 220.5 -74.5t88 -233t8.5 -410.5q0 -254 -20.5 -367.5t-107.5 -183t-264 -69.5q-33 0 -94 4l-19 246q85 0 105.5 58.5t20.5 347.5q0 273 -19.5 338.5t-88.5 65.5q-63 0 -90.5 -39 t-27.5 -145v-521h-378z"/>
<glyph glyph-name="afii10100" horiz-adv-x="855" unicode="ѓ" d="M105 0v1010h723v-254h-324v-756h-399zM244 1305l457 224l73 -195l-478 -166z"/>
<glyph glyph-name="afii10101" horiz-adv-x="1151" unicode="є" d="M869 621v-219h-388v-24q0 -60 31 -109t109 -49q103 0 126 102l369 -50q-121 -293 -471 -293q-188 0 -311 55.5t-203 180.5t-80 288q0 220 147 374t424 154q370 0 483 -283l-372 -52q-17 93 -119 93q-132 0 -133 -168h388z"/>
<glyph glyph-name="afii10102" horiz-adv-x="1085" unicode="ѕ" d="M15 288l315 43q27 -110 214 -110q155 0 155 60q0 26 -30 40.5t-142 29.5q-310 43 -387 134.5t-77 203.5q0 156 130 252.5t341 96.5q370 0 472 -267l-302 -57q-42 90 -177 90q-64 0 -95.5 -17.5t-31.5 -34.5q0 -50 96 -61q250 -28 339 -57t152 -106t63 -186 q0 -167 -139.5 -265t-384.5 -98q-413 0 -511 309z"/>
<glyph glyph-name="afii10103" horiz-adv-x="609" unicode="і" d="M504 1017v-1017h-399v1017h399zM504 1408v-316h-399v316h399z"/>
<glyph glyph-name="afii10104" horiz-adv-x="609" unicode="ї" d="M504 1014v-1017h-399v1017h399zM486 1188q-55 0 -94.5 39t-39.5 93t39 92.5t94 38.5t93.5 -38.5t38.5 -92.5q0 -55 -39 -93.5t-92 -38.5zM125 1188q-55 0 -94 38.5t-39 93.5q0 53 38.5 92t94.5 39t94 -39.5t38 -92.5q0 -54 -39 -92.5t-93 -38.5z"/>
<glyph glyph-name="afii10105" horiz-adv-x="609" unicode="ј" d="M504 1017v-957q0 -145 -25.5 -225t-113.5 -135t-249 -55q-105 0 -203 19v291q44 -19 88 -19q105 0 105 124v957h398zM504 1406v-314h-398v314h398z"/>
<glyph glyph-name="afii10106" horiz-adv-x="1501" unicode="љ" d="M873 229h135q51 0 69.5 26t18.5 87q0 55 -17.5 79.5t-70.5 24.5h-181zM794 666h269q203 0 296.5 -93t93.5 -241q0 -98 -44.5 -182.5t-150 -117t-195.5 -32.5h-516l-95 684h-14l-204 -684h-282l335 1010h432z"/>
<glyph glyph-name="afii10107" horiz-adv-x="1713" unicode="њ" d="M1077 229h144q51 0 69.5 26t18.5 87q0 55 -18 79.5t-70 24.5h-144v-217zM1077 666h199q194 0 291.5 -89t97.5 -245q0 -98 -44 -182.5t-149.5 -117t-195.5 -32.5h-584v412h-202v-412h-385v1010h385v-361h202v361h385v-344z"/>
<glyph glyph-name="afii10108" horiz-adv-x="1217" unicode="ћ" d="M119 1283v103h399v-103h369v-189h-369v-252q108 141 282 141q88 0 154.5 -30t102.5 -78.5t49 -93.5t13 -174v-607h-399v557q0 101 -26.5 124.5t-61.5 23.5q-61 0 -87.5 -40t-26.5 -144v-521h-399v1094h-150v189h150z"/>
<glyph glyph-name="afii10109" horiz-adv-x="1162" unicode="ќ" d="M874 667l342 -667h-412l-191 407l-111 -127v-280h-397v1010h397v-380q34 51 71 93l255 287h353zM425 1305l457 224l73 -195l-478 -166z"/>
<glyph glyph-name="afii10110" horiz-adv-x="1049" unicode="ў" d="M1055 1014l-399 -1102q-46 -125 -132 -195.5t-265 -70.5q-43 0 -200 9v283q78 -12 144 -12q172 0 172 76q0 25 -17 69l-365 943h427l168 -542l176 542h291zM780 1495h176q-35 -153 -137 -233.5t-226 -80.5q-122 0 -224 77t-141 237h176q69 -142 190 -142q122 0 186 142z "/>
<glyph glyph-name="afii10193" horiz-adv-x="1193" unicode="џ" d="M105 0v1010h399v-756h186v756h398v-1010h-344l-29 -232h-237l-29 232h-344z"/>
<glyph glyph-name="afii10050" horiz-adv-x="1001" unicode="Ґ" d="M1015 1625v-582h-477v-1043h-419v1365h599v260h297z"/>
<glyph glyph-name="afii10098" horiz-adv-x="855" unicode="ґ" d="M557 1010v246h271v-500h-324v-756h-399v1010h452z"/>
<glyph glyph-name="Wgrave" horiz-adv-x="1843" unicode="Ẁ" d="M1829 1365l-362 -1365h-352l-191 753l-180 -753h-367l-363 1365h394l191 -787l186 787h330l202 -787l191 787h321zM1213 1619l-52 -137l-478 166l73 195z"/>
<glyph glyph-name="wgrave" horiz-adv-x="1521" unicode="ẁ" d="M1507 1017l-322 -1017h-287l-133 551l-139 -551h-284l-328 1017h392l134 -498l128 498h294l127 -498l141 498h277zM1080 1298l-52 -137l-478 166l73 195z"/>
<glyph glyph-name="Wacute" horiz-adv-x="1843" unicode="Ẃ" d="M1829 1365l-362 -1365h-352l-191 753l-180 -753h-367l-363 1365h394l191 -787l186 787h330l202 -787l191 787h321zM683 1619l457 224l73 -195l-478 -166z"/>
<glyph glyph-name="wacute" horiz-adv-x="1521" unicode="ẃ" d="M1507 1017l-322 -1017h-287l-133 551l-139 -551h-284l-328 1017h392l134 -498l128 498h294l127 -498l141 498h277zM536 1298l457 224l73 -195l-478 -166z"/>
<glyph glyph-name="Wdieresis" horiz-adv-x="1843" unicode="Ẅ" d="M1829 1365l-362 -1365h-352l-191 753l-180 -753h-367l-363 1365h394l191 -787l186 787h330l202 -787l191 787h321zM1127 1511q-55 0 -94.5 39t-39.5 93t39 92.5t94 38.5t93.5 -38.5t38.5 -92.5q0 -55 -39 -93.5t-92 -38.5zM766 1511q-55 0 -94 38.5t-39 93.5 q0 53 38.5 92t94.5 39t94 -39.5t38 -92.5q0 -54 -39 -92.5t-93 -38.5z"/>
<glyph glyph-name="wdieresis" horiz-adv-x="1521" unicode="ẅ" d="M1507 1017l-322 -1017h-287l-133 551l-139 -551h-284l-328 1017h392l134 -498l128 498h294l127 -498l141 498h277zM997 1188q-55 0 -94.5 39t-39.5 93t39 92.5t94 38.5t93.5 -38.5t38.5 -92.5q0 -55 -39 -93.5t-92 -38.5zM636 1188q-55 0 -94 38.5t-39 93.5q0 53 38.5 92 t94.5 39t94 -39.5t38 -92.5q0 -54 -39 -92.5t-93 -38.5z"/>
<glyph glyph-name="Ygrave" horiz-adv-x="1211" unicode="Ỳ" d="M1252 1365l-427 -787v-578h-407v578l-459 787h459l239 -449l229 449h366zM898 1619l-52 -137l-478 166l73 195z"/>
<glyph glyph-name="ygrave" horiz-adv-x="1049" unicode="ỳ" d="M1055 1017l-399 -1102q-46 -125 -132 -195.5t-265 -70.5q-43 0 -200 9v283q78 -12 144 -12q172 0 172 76q0 25 -17 69l-365 943h427l168 -542l176 542h291zM857 1298l-52 -137l-478 166l73 195z"/>
<glyph glyph-name="endash" d="M1092 673v-314h-984v314h984z" unicode="–"/>
<glyph glyph-name="emdash" horiz-adv-x="1365" unicode="—" d="M1454 673v-314h-1544v314h1544z"/>
<glyph glyph-name="afii00208" horiz-adv-x="1365" unicode="―" d="M1454 673v-314h-1544v314h1544z"/>
<glyph glyph-name="underscoredbl" horiz-adv-x="1024" unicode="‗" d="M0 -339h1024v-159h-1024v159zM0 -99h1024v-159h-1024v159z"/>
<glyph glyph-name="quoteleft" horiz-adv-x="563" unicode="‘" d="M109 775v288l188 302h157l-137 -271h137v-319h-345z"/>
<glyph glyph-name="quoteright" horiz-adv-x="563" unicode="’" d="M454 1365v-287l-187 -303h-158l138 272h-138v318h345z"/>
<glyph glyph-name="quotesinglbase" horiz-adv-x="563" unicode="‚" d="M454 318v-287l-187 -303h-158l138 272h-138v318h345z"/>
<glyph glyph-name="quotereversed" horiz-adv-x="563" unicode="‛" d="M109 1365h345v-318h-137l137 -272h-157l-188 303v287z"/>
<glyph glyph-name="quotedblleft" horiz-adv-x="939" unicode="“" d="M102 781v299l175 285h158l-140 -267h140v-317h-333zM505 781v299l178 285h154l-137 -267h137v-317h-332z"/>
<glyph glyph-name="quotedblright" horiz-adv-x="939" unicode="”" d="M837 1365v-299l-175 -285h-159l140 268h-140v316h334zM432 1365v-299l-177 -285h-153l136 268h-136v316h330z"/>
<glyph glyph-name="quotedblbase" horiz-adv-x="939" unicode="„" d="M837 317v-299l-175 -286h-159l140 268h-140v317h334zM432 317v-299l-177 -286h-153l136 268h-136v317h330z"/>
<glyph glyph-name="dagger" d="M416 1365h369v-330h337v-299h-337v-1057h-369v1057h-337v299h337v330z" unicode="†"/>
<glyph glyph-name="daggerdbl" d="M416 1365h369v-330h337v-299h-337v-414h337v-299h-337v-344h-369v344h-337v299h337v414h-337v299h337v330z" unicode="‡"/>
<glyph glyph-name="bullet" horiz-adv-x="1365" unicode="•" d="M964 696q0 -117 -82.5 -201.5t-198.5 -84.5q-117 0 -199.5 84.5t-82.5 201.5q0 118 82.5 202t199.5 84q116 0 198.5 -84t82.5 -202z"/>
<glyph glyph-name="ellipsis" horiz-adv-x="1754" unicode="…" d="M1652 365v-365h-380v365h380zM1067 365v-365h-381v365h381zM482 365v-365h-380v365h380z"/>
<glyph glyph-name="perthousand" horiz-adv-x="2131" unicode="‰" d="M1792 139q71 0 71 200q0 91 -13.5 148.5t-56.5 57.5q-69 0 -69 -192q0 -139 18 -176.5t50 -37.5zM1790 -10q-121 0 -198 93t-77 260q0 163 76 257t203 94q133 0 204 -100.5t71 -256.5q0 -159 -76.5 -253t-202.5 -94zM1116 139q71 0 71 200q0 91 -13 148.5t-56 57.5 q-70 0 -70 -192q0 -122 14.5 -168t53.5 -46zM1114 -10q-126 0 -200.5 96.5t-74.5 256.5q0 163 76 257t203 94q123 0 199.5 -93.5t76.5 -263.5q0 -159 -77 -253t-203 -94zM1234 1365l-829 -1365h-189l835 1365h183zM338 822q71 0 71 200q0 91 -13.5 148t-56.5 57 q-69 0 -69 -193q0 -119 14.5 -165.5t53.5 -46.5zM337 673q-127 0 -201.5 96.5t-74.5 256.5q0 163 76.5 256.5t203.5 93.5q132 0 204 -99.5t72 -256.5q0 -160 -77 -253.5t-203 -93.5z"/>
<glyph glyph-name="minute" horiz-adv-x="461" unicode="′" d="M262 789h-195l141 576h295z"/>
<glyph glyph-name="second" horiz-adv-x="845" unicode="″" d="M674 789h-196l142 576h295zM248 789h-195l141 576h295z"/>
<glyph glyph-name="guilsinglleft" horiz-adv-x="452" unicode="‹" d="M377 784l-106 -293l106 -271h-142l-173 271l173 293h142z"/>
<glyph glyph-name="guilsinglright" horiz-adv-x="452" unicode="›" d="M75 220l106 292l-106 272h142l173 -272l-173 -292h-142z"/>
<glyph glyph-name="exclamdbl" horiz-adv-x="1199" unicode="‼" d="M1070 365v-365h-387v365h387zM516 365v-365h-386v365h386zM1116 1365l-113 -905h-253l-107 905h473zM563 1365l-114 -905h-253l-107 905h474z"/>
<glyph glyph-name="uni203E" d="M-42 1869h1286v-74h-1286v74z" unicode="‾"/>
<glyph glyph-name="uni2044" horiz-adv-x="218" unicode="⁄" d="M611 1365l-829 -1365h-175l834 1365h170z"/>
<glyph glyph-name="nsuperior" horiz-adv-x="787" unicode="ⁿ" d="M712 546h-269v385q0 65 -41 65q-58 0 -58 -83v-367h-269v614h251l4 -53q5 18 6 19t11 6.5t47.5 19t55 17t42.5 3.5q81 0 134.5 -31t69.5 -71t16 -133v-391z"/>
<glyph glyph-name="franc" horiz-adv-x="1120" unicode="₣" d="M527 364h211v-201h-211v-163h-408v163h-109v201h109v1001h987v-325h-579v-222h445v-307h-445v-147z"/>
<glyph glyph-name="lira" d="M98 530v137h164l-17 96h-147v136h124q-8 64 -8 107q0 192 152 302.5t349 110.5q332 0 437 -288l-302 -107q-41 112 -122 112q-50 0 -80.5 -32t-30.5 -87q0 -40 13 -118h220v-136h-198q6 -38 13 -96h185v-137h-185q-19 -141 -139 -236h169q153 0 170 127l321 -62 q-33 -160 -156 -259.5t-303 -99.5h-689v294h60q101 0 145.5 53t44.5 128q0 22 -4 55h-186z" unicode="₤"/>
<glyph glyph-name="peseta" horiz-adv-x="2379" unicode="₧" d="M1682 175l204 28q15 -67 132 -67q90 0 90 37q0 17 -20 27t-136 24q-238 31 -238 191q0 92 83 151.5t226 59.5q233 0 300 -162l-200 -37q-27 54 -110 54q-68 0 -68 -32q0 -17 20.5 -25t112.5 -19q100 -13 150 -31t85 -63t35 -103q0 -98 -87.5 -159t-256.5 -61 q-252 0 -322 187zM1639 614v-167h-126v-214q0 -35 9.5 -45.5t37.5 -10.5q29 0 79 13v-182q-82 -16 -156 -16q-231 0 -231 202v253h-94v167h107l16 191l238 8l-6 -199h126zM538 789h99q185 0 185 136q0 128 -171 128h-113v-264zM544 496v-496h-391v1365h471q218 0 331.5 -50 t180 -153t66.5 -231q0 -195 -136 -315t-363 -120h-159z"/>
<glyph glyph-name="Euro" horiz-adv-x="1200" unicode="€" d="M1184 446q-43 -246 -165.5 -356t-348.5 -110q-479 0 -553 497h-86v154h73q-2 13 -2 41q0 42 2 61h-73v154h88q87 499 545 499q222 0 352.5 -114t157.5 -334l-371 -20q-22 157 -125 157q-68 0 -103.5 -45.5t-50.5 -142.5h174v-154h-184q-2 -26 -2 -51q0 -26 2 -51h184 v-154h-170q35 -182 148 -182q59 0 90 34t55 140z"/>
<glyph glyph-name="afii61248" horiz-adv-x="1945" unicode="℅" d="M1469 145q59 0 73 61.5t14 122.5q0 105 -20.5 143.5t-68.5 38.5q-90 0 -90 -180q0 -86 16.5 -136t75.5 -50zM1461 -21q-182 0 -285.5 106.5t-103.5 244.5q0 151 110 252.5t286 101.5q175 0 284 -99t109 -258q0 -143 -108 -245.5t-292 -102.5zM1456 1365l-829 -1365h-176 l835 1365h170zM551 979l246 -20q-16 -123 -105.5 -198t-237.5 -75q-175 0 -272.5 103t-97.5 246q0 155 102.5 256.5t266.5 101.5q144 0 236 -76.5t105 -198.5l-252 -20q-16 107 -82 107q-43 0 -62.5 -37.5t-19.5 -131.5q0 -157 85 -157q75 0 88 100z"/>
<glyph glyph-name="afii61289" d="M653 729q90 100 147.5 224t57.5 219q0 74 -35 74q-40 0 -82 -131t-88 -386zM623 542q-56 -292 -56 -372q0 -55 29 -55q38 0 83 96q20 42 47 42q38 0 38 -45q0 -81 -68.5 -160.5t-161.5 -79.5q-76 0 -121 64.5t-45 235.5q0 34 3 91q-52 -55 -68 -55q-13 0 -26.5 15.5 t-13.5 41.5t27 57q68 76 97 112q61 353 166.5 603t264.5 250q80 0 123 -55.5t43 -137.5q0 -288 -361 -648z" unicode="ℓ"/>
<glyph glyph-name="afii61352" horiz-adv-x="2225" unicode="№" d="M2139 314v-314h-711v314h711zM1782 607q42 0 57 42t15 129q0 70 -14 110t-57 40q-72 0 -72 -158q0 -73 12.5 -118t58.5 -45zM1778 421q-170 0 -278 100.5t-108 247.5q0 150 109.5 250.5t282.5 100.5q172 0 280.5 -97.5t108.5 -255.5q0 -143 -107.5 -244.5t-287.5 -101.5z M1286 0h-341l-374 603q-72 116 -145 282q33 -132 33 -224v-661h-340v1365h396l318 -500q95 -149 144 -262q-32 175 -32 358v404h341v-1365z"/>
<glyph glyph-name="trademark" horiz-adv-x="1638" unicode="™" d="M1576 1365v-778h-259v475l-134 -475h-181l-140 478v-478h-213v778h353l112 -375l106 375h356zM426 1168v-581h-265v581h-172v197h609v-197h-172z"/>
<glyph glyph-name="uni2126" horiz-adv-x="1573" unicode="Ω" d="M1506 0h-604l33 311q161 59 226 200t65 313q0 227 -107 373t-331 146t-331 -146t-107 -373q0 -172 65 -313t226 -200l33 -311h-604v332h30q16 -66 40 -95.5t96 -29.5h323l-4 57q-238 65 -341 221t-103 332q0 259 192 425.5t485 166.5t485 -166.5t192 -425.5 q0 -176 -103 -332t-341 -221l-4 -57h323q72 0 96 29.5t40 95.5h30v-332z"/>
<glyph glyph-name="estimated" horiz-adv-x="1229" unicode="℮" d="M917 605v297q-124 121 -300 121q-174 0 -296 -121v-297h596zM321 531v-371q120 -121 298 -121q254 0 395 246l72 -43q-118 -170 -231.5 -223t-235.5 -53q-232 0 -380.5 158.5t-148.5 406.5q0 252 149.5 408.5t379.5 156.5q214 0 366 -142t163 -423h-827z"/>
<glyph glyph-name="oneeighth" horiz-adv-x="1802" unicode="⅛" d="M1336 314q-57 -32 -57 -80q0 -33 32 -56.5t95 -23.5q101 0 101 59q0 42 -73 67zM1456 513q51 23 51 69q0 35 -30 57t-80 22q-82 0 -82 -55q0 -41 62 -64zM1634 446q138 -68 138 -201q0 -123 -104.5 -190t-275.5 -67q-172 0 -263.5 63.5t-91.5 166.5q0 127 132 183 q-103 60 -103 175q0 110 91.5 182.5t254.5 72.5q147 0 238.5 -60t91.5 -162q0 -100 -108 -163zM1384 1365l-829 -1365h-216l834 1365h211zM491 737h141v-191h-585v191h179v371q-116 -48 -195 -58v193q194 39 259 135h201v-641z"/>
<glyph glyph-name="threeeighths" horiz-adv-x="1802" unicode="⅜" d="M1353 314q-58 -32 -58 -80q0 -33 32.5 -56.5t95.5 -23.5q101 0 101 59q0 42 -73 67zM1473 513q51 23 51 69q0 35 -30 57t-80 22q-82 0 -82 -54q0 -42 62 -65zM1651 446q138 -67 138 -201q0 -122 -104.5 -189.5t-275.5 -67.5q-172 0 -263.5 63.5t-91.5 166.5 q0 127 132 183q-103 60 -103 175q0 110 91 182.5t255 72.5q147 0 238 -60t91 -162q0 -99 -107 -163zM1442 1365l-829 -1365h-216l834 1365h211zM0 803l243 28q17 -111 126 -111q105 0 105 83q0 79 -113 79h-113v167h96q109 0 109 71q0 72 -89 72q-88 0 -106 -93l-226 32 q28 119 125.5 183t229.5 64q149 0 238.5 -64t89.5 -169q0 -124 -120 -171q146 -48 146 -190q0 -120 -99 -185t-256 -65q-316 0 -386 269z"/>
<glyph glyph-name="fiveeighths" horiz-adv-x="1802" unicode="⅝" d="M1348 314q-58 -32 -58 -80q0 -33 32.5 -56.5t95.5 -23.5q101 0 101 59q0 42 -73 67zM1468 513q51 23 51 69q0 33 -28.5 56t-82.5 23q-81 0 -81 -54q0 -42 62 -65zM1646 446q137 -67 137 -201q0 -122 -104 -189.5t-275 -67.5q-172 0 -263.5 63.5t-91.5 166.5 q0 127 132 183q-103 59 -103 175q0 110 91.5 182.5t254.5 72.5q147 0 238 -60t91 -162q0 -100 -107 -163zM1424 1365l-830 -1365h-216l835 1365h211zM668 1176h-371l-10 -120q69 40 155 40q116 0 205 -73t89 -197q0 -130 -102.5 -211t-266.5 -81q-133 0 -235.5 67 t-125.5 191l240 27q21 -89 120 -89q48 0 76 26.5t28 66.5q0 43 -31.5 67.5t-75.5 24.5q-66 0 -101 -51l-212 27l39 474h604z"/>
<glyph glyph-name="seveneighths" horiz-adv-x="1802" unicode="⅞" d="M1302 314q-57 -32 -57 -80q0 -33 32 -56.5t96 -23.5q100 0 100 59q0 42 -72 67zM1422 513q51 23 51 69q0 35 -29.5 57t-80.5 22q-81 0 -81 -54q0 -42 61 -65zM1600 446q138 -67 138 -201q0 -122 -104 -189.5t-276 -67.5q-171 0 -263 63.5t-92 166.5q0 127 132 183 q-103 60 -103 175q0 110 91.5 182.5t254.5 72.5q147 0 238.5 -60t91.5 -162q0 -100 -108 -163zM1310 1365l-829 -1365h-217l835 1365h211zM692 1365v-159q-97 -103 -166.5 -274.5t-69.5 -329.5q0 -17 3 -56h-305q0 160 81.5 328.5t192.5 276.5h-404l20 214h648z"/>
<glyph glyph-name="arrowleft" horiz-adv-x="2048" unicode="←" d="M492 876h76q-81 -170 -195 -309h1595v-101h-1595q102 -102 198 -309h-78q-223 253 -414 341v45q177 71 413 333z"/>
<glyph glyph-name="arrowup" horiz-adv-x="1024" unicode="↑" d="M153 926q262 237 333 413h46q87 -191 340 -414v-77q-207 95 -309 197v-1474h-101v1474q-139 -114 -309 -195v76z"/>
<glyph glyph-name="arrowright" horiz-adv-x="2048" unicode="→" d="M1555 876q237 -262 413 -333v-45q-191 -88 -414 -341h-77q95 207 197 309h-1595v101h1595q-114 139 -195 309h76z"/>
<glyph glyph-name="arrowdown" horiz-adv-x="1024" unicode="↓" d="M153 -16v76q170 -81 309 -195v1474h101v-1474q102 102 309 197v-77q-253 -223 -340 -414h-46q-71 176 -333 413z"/>
<glyph glyph-name="arrowboth" horiz-adv-x="2048" unicode="↔" d="M1968 540v-45q-181 -79 -406 -337h-80q69 172 194 311h-1305q125 -139 194 -311h-80q-224 258 -406 337v45q182 79 406 338h80q-69 -172 -194 -311h1305q-125 139 -194 311h80q225 -259 406 -338z"/>
<glyph glyph-name="arrowupdn" horiz-adv-x="1024" unicode="↕" d="M489 1463h45q79 -182 337 -407v-80q-171 69 -311 195v-1306q140 126 311 194v-79q-258 -225 -337 -407h-45q-79 182 -337 407v79q171 -68 311 -194v1306q-140 -126 -311 -195v80q258 225 337 407z"/>
<glyph glyph-name="arrowupdnbse" horiz-adv-x="1024" unicode="↨" d="M154 -522h717v-98h-717v98zM489 1463h45q79 -182 337 -407v-80q-171 69 -311 195v-1306q140 126 311 194v-79q-258 -225 -337 -407h-45q-79 182 -337 407v79q171 -68 311 -194v1306q-140 -126 -311 -195v80q258 225 337 407z"/>
<glyph glyph-name="partialdiff" horiz-adv-x="1012" unicode="∂" d="M911 629q-81 225 -284 225q-178 0 -286 -190.5t-108 -399.5q0 -108 54 -172.5t143 -64.5q136 0 279.5 162.5t201.5 439.5zM295 1120h-45q131 303 379 303q161 0 263.5 -127t102.5 -376q0 -358 -164.5 -654.5t-427.5 -296.5q-155 0 -246 91t-91 245q0 239 166.5 420.5 t383.5 181.5q222 0 312 -190h4q10 144 10 186q0 175 -92.5 276t-253.5 101q-194 0 -301 -160z"/>
<glyph glyph-name="uni2206" horiz-adv-x="1253" unicode="∆" d="M594 1059l-447 -959h844zM668 1409l577 -1409h-1233z"/>
<glyph glyph-name="product" horiz-adv-x="1686" unicode="∏" d="M1645 -207h-629v47q120 0 159.5 41t39.5 125v1419h-734v-1419q0 -84 39.5 -125t159.5 -41v-47h-629v47q122 0 160.5 41t38.5 125v1282q0 101 -48.5 152t-146.5 51v47h1586v-47q-98 0 -146.5 -51t-48.5 -152v-1282q0 -84 38.5 -125t160.5 -41v-47z"/>
<glyph glyph-name="summation" horiz-adv-x="1460" unicode="∑" d="M1423 238q-32 -125 -54 -240t-34 -219q-63 11 -102.5 16.5t-54.5 5.5h-1031q-20 0 -59 -3t-59 -3l714 815l-710 930q70 -7 123 -10.5t90 -3.5h1018l12 -326h-41q-31 102 -52.5 141t-81.5 66q-30 13 -74.5 20t-104.5 7h-539l559 -734l-602 -694h760q127 0 177.5 52 t98.5 180h47z"/>
<glyph glyph-name="minus" d="M1098 816v-253h-995v253h995z" unicode="−"/>
<glyph glyph-name="fraction" horiz-adv-x="218" unicode="∕" d="M611 1365l-829 -1365h-175l834 1365h170z"/>
<glyph glyph-name="periodcentered" horiz-adv-x="380" unicode="∙" d="M380 865v-365h-380v365h380z"/>
<glyph glyph-name="radical" horiz-adv-x="1124" unicode="√" d="M1055 1868l-307 -1946l-498 1028l-197 -96l-33 68l299 147l404 -825l260 1634z"/>
<glyph glyph-name="infinity" horiz-adv-x="1460" unicode="∞" d="M614 557l11 33q-96 215 -267 215q-110 0 -179.5 -76.5t-69.5 -198.5q0 -123 66.5 -207.5t162.5 -84.5q82 0 149.5 65t126.5 254zM750 465q64 -138 134.5 -201t176.5 -63q126 0 207.5 91t81.5 234q0 140 -84 240t-199 100q-55 0 -97.5 -21.5t-74.5 -62t-64 -116.5z M653 668q71 169 159 222.5t212 53.5q161 0 272 -116.5t111 -301.5q0 -186 -111.5 -303t-238.5 -117q-95 0 -170.5 63t-165.5 224q-117 -233 -324 -233q-149 0 -246.5 104.5t-97.5 263.5q0 157 89 262t218 105q80 0 149 -42t144 -185z"/>
<glyph glyph-name="orthogonal" horiz-adv-x="2005" unicode="∟" d="M362 1279h100v-1179h1181v-100h-1281v1279z"/>
<glyph glyph-name="intersection" horiz-adv-x="1472" unicode="∩" d="M302 0h-110v473q0 265 13 373t76 210t188 171.5t267 69.5q144 0 268.5 -70t186 -167.5t76 -206.5t14.5 -380v-473h-109v480q0 232 -12 333t-60 182.5t-149.5 138.5t-214.5 57q-114 0 -215.5 -58t-148 -137t-58.5 -181.5t-12 -334.5v-480z"/>
<glyph glyph-name="integral" horiz-adv-x="561" unicode="∫" d="M602 1760q0 -39 -29.5 -64t-75.5 -25q-37 0 -60 25t-44 25q-18 0 -27.5 -14.5t-9.5 -43.5q0 -34 19.5 -256t19.5 -551q0 -505 -30 -709.5t-79 -282.5q-26 -41 -67.5 -62t-85.5 -21q-49 0 -86 35t-37 85q0 38 25.5 65t64.5 27q34 0 65.5 -33t44.5 -33q25 0 39.5 44.5 t14.5 153.5q0 37 -6 197t-6 562q0 481 17 638.5t41 215.5q29 70 69 104t84 34q57 0 98 -32.5t41 -83.5z"/>
<glyph glyph-name="approxequal" horiz-adv-x="1124" unicode="≈" d="M1022 487h51q-21 -155 -95.5 -238t-186.5 -83q-96 0 -268.5 97t-246.5 97q-149 0 -178 -186h-47q20 153 93.5 236.5t181.5 83.5q47 0 112 -21.5t219 -103.5q118 -62 193 -62q144 0 172 180zM1022 874h51q-21 -155 -95.5 -238t-186.5 -83q-97 0 -304 117q-139 78 -211 78 q-149 0 -178 -187h-47q20 154 93.5 238t181.5 84q47 0 107 -19.5t224 -107.5q118 -62 193 -62q144 0 172 180z"/>
<glyph glyph-name="notequal" horiz-adv-x="1124" unicode="≠" d="M1106 279h-621l-184 -330l-100 57l151 273h-321v112h385l157 285h-542v112h606l186 336l101 -57l-156 -279h338v-112h-399l-160 -285h559v-112z"/>
<glyph glyph-name="equivalence" d="M157 469h887v-252h-887v252zM157 812h887v-252h-887v252zM157 1155h887v-252h-887v252z" unicode="≡"/>
<glyph glyph-name="lessequal" horiz-adv-x="1124" unicode="≤" d="M1077 0h-1018v112h1018v-112zM1077 240l-1018 471v127l1018 471v-127l-887 -408l887 -407v-127z"/>
<glyph glyph-name="greaterequal" horiz-adv-x="1124" unicode="≥" d="M1077 0h-1018v112h1018v-112zM1077 711l-1018 -471v127l887 407l-887 408v127l1018 -471v-127z"/>
<glyph glyph-name="house" horiz-adv-x="1229" unicode="⌂" d="M234 81h761v519l-381 427l-380 -427v-519zM153 0v634l461 519l462 -519v-634h-923z"/>
<glyph glyph-name="revlogicalnot" d="M438 0h-281v554h887v-253h-606v-301z" unicode="⌐"/>
<glyph glyph-name="integraltp" horiz-adv-x="1237" unicode="⌠" d="M691 -515h-145v1811q0 219 89.5 330t202.5 111q67 0 102.5 -32.5t35.5 -76.5q0 -40 -25.5 -66t-62.5 -26q-30 0 -57 15q-18 10 -41.5 46.5t-46.5 36.5q-17 0 -31 -12q-10 -8 -14 -27q-7 -33 -7 -139v-1971z"/>
<glyph glyph-name="integralbt" horiz-adv-x="1237" unicode="⌡" d="M546 1737h145v-1811q0 -219 -89.5 -330t-202.5 -111q-67 0 -102.5 32.5t-35.5 76.5q0 40 25.5 66t61.5 26q31 0 59 -16q18 -10 41 -46t46 -36q17 0 31 11q10 8 14 29q7 32 7 138v1971z"/>
<glyph glyph-name="SF100000" horiz-adv-x="1451" unicode="─" d="M1473 534h-1496v175h1496v-175z"/>
<glyph glyph-name="SF110000" horiz-adv-x="1451" unicode="│" d="M638 -621v2485h175v-2485h-175z"/>
<glyph glyph-name="SF010000" horiz-adv-x="1451" unicode="┌" d="M1474 709v-175h-661v-1155h-175v1330h836z"/>
<glyph glyph-name="SF030000" horiz-adv-x="1451" unicode="┐" d="M637 534h-660v175h835v-1330h-175v1155z"/>
<glyph glyph-name="SF020000" horiz-adv-x="1451" unicode="└" d="M638 534v1330h175v-1155h661v-175h-836z"/>
<glyph glyph-name="SF040000" horiz-adv-x="1451" unicode="┘" d="M812 534h-835v175h660v1155h175v-1330z"/>
<glyph glyph-name="SF080000" horiz-adv-x="1451" unicode="├" d="M638 -621v2485h175v-1155h661v-175h-661v-1155h-175z"/>
<glyph glyph-name="SF090000" horiz-adv-x="1451" unicode="┤" d="M637 -621v1155h-660v175h660v1155h175v-2485h-175z"/>
<glyph glyph-name="SF060000" horiz-adv-x="1451" unicode="┬" d="M637 534h-660v175h1496v-175h-661v-1155h-175v1155z"/>
<glyph glyph-name="SF070000" horiz-adv-x="1451" unicode="┴" d="M1473 534h-1496v175h660v1155h175v-1155h661v-175z"/>
<glyph glyph-name="SF050000" horiz-adv-x="1451" unicode="┼" d="M637 534h-660v175h660v1155h175v-1155h661v-175h-661v-1155h-175v1155z"/>
<glyph glyph-name="SF430000" horiz-adv-x="1451" unicode="═" d="M1473 344h-1496v175h1496v-175zM1473 724h-1496v175h1496v-175z"/>
<glyph glyph-name="SF240000" horiz-adv-x="1451" unicode="║" d="M448 -621v2485h175v-2485h-175zM829 -621v2485h175v-2485h-175z"/>
<glyph glyph-name="SF510000" horiz-adv-x="1451" unicode="╒" d="M638 -621v1520h836v-175h-661v-205h661v-175h-661v-965h-175z"/>
<glyph glyph-name="SF520000" horiz-adv-x="1451" unicode="╓" d="M448 -621v1330h1027v-175h-471v-1155h-175v1155h-206v-1155h-175z"/>
<glyph glyph-name="SF390000" horiz-adv-x="1451" unicode="╔" d="M1004 344v-965h-175v1140h645v-175h-470zM623 -621h-175v1520h1026v-175h-851v-1345z"/>
<glyph glyph-name="SF220000" horiz-adv-x="1451" unicode="╕" d="M637 344h-660v175h660v205h-660v175h835v-1520h-175v965z"/>
<glyph glyph-name="SF210000" horiz-adv-x="1451" unicode="╖" d="M448 -621v1155h-471v175h1026v-1330h-175v1155h-206v-1155h-174z"/>
<glyph glyph-name="SF250000" horiz-adv-x="1451" unicode="╗" d="M447 344h-470v175h645v-1140h-175v965zM828 -621v1345h-851v175h1026v-1520h-175z"/>
<glyph glyph-name="SF500000" horiz-adv-x="1451" unicode="╘" d="M638 344v1520h175v-965h661v-175h-661v-205h661v-175h-836z"/>
<glyph glyph-name="SF490000" horiz-adv-x="1451" unicode="╙" d="M1475 534h-1027v1330h175v-1155h206v1155h175v-1155h471v-175z"/>
<glyph glyph-name="SF380000" horiz-adv-x="1451" unicode="╚" d="M1004 899h470v-175h-645v1140h175v-965zM623 1864v-1345h850v-175h-1025v1520h175z"/>
<glyph glyph-name="SF280000" horiz-adv-x="1451" unicode="╛" d="M812 344h-835v175h660v205h-660v175h660v965h175v-1520z"/>
<glyph glyph-name="SF270000" horiz-adv-x="1451" unicode="╜" d="M1003 534h-1026v175h470v1155h175v-1155h206v1155h175v-1330z"/>
<glyph glyph-name="SF260000" horiz-adv-x="1451" unicode="╝" d="M447 899v965h175v-1140h-645v175h470zM828 1864h175v-1520h-1026v175h851v1345z"/>
<glyph glyph-name="SF360000" horiz-adv-x="1451" unicode="╞" d="M638 -621v2485h175v-965h661v-175h-661v-205h661v-175h-661v-965h-175z"/>
<glyph glyph-name="SF370000" horiz-adv-x="1451" unicode="╟" d="M448 -621v2485h175v-2485h-175zM829 -621v2485h175v-1155h470v-175h-470v-1155h-175z"/>
<glyph glyph-name="SF420000" horiz-adv-x="1451" unicode="╠" d="M829 -621v1140h645v-175h-470v-965h-175zM829 724v1140h175v-965h470v-175h-645zM448 -621v2485h175v-2485h-175z"/>
<glyph glyph-name="SF190000" horiz-adv-x="1451" unicode="╡" d="M637 344h-660v175h660v205h-660v175h660v965h175v-2485h-175v965z"/>
<glyph glyph-name="SF200000" horiz-adv-x="1451" unicode="╢" d="M828 -621v2485h175v-2485h-175zM447 -621l1 1155h-471v175h470v1155h175v-2485h-175z"/>
<glyph glyph-name="SF230000" horiz-adv-x="1451" unicode="╣" d="M447 344h-470v175h645v-1140h-175v965zM622 1864v-1140h-645v175h470v965h175zM828 -621v2485h175v-2485h-175z"/>
<glyph glyph-name="SF470000" horiz-adv-x="1451" unicode="╤" d="M637 344h-660v175h1496v-175h-661v-965h-175v965zM1473 724h-1496v175h1496v-175z"/>
<glyph glyph-name="SF480000" horiz-adv-x="1451" unicode="╥" d="M447 -621v1155h-470v175h1496v-175h-470v-1155h-175v1155h-206v-1155h-175z"/>
<glyph glyph-name="SF410000" horiz-adv-x="1451" unicode="╦" d="M828 -621v1140h645v-175h-470v-965h-175zM447 344h-470v175h645v-1140h-175v965zM1473 724h-1496v175h1496v-175z"/>
<glyph glyph-name="SF450000" horiz-adv-x="1451" unicode="╧" d="M1473 344h-1496v175h1496v-175zM1473 724h-1496v175h660v965h175v-965h661v-175z"/>
<glyph glyph-name="SF460000" horiz-adv-x="1451" unicode="╨" d="M1473 534h-1496v175h470v1155h175v-1155h206v1155h175v-1155h470v-175z"/>
<glyph glyph-name="SF400000" horiz-adv-x="1451" unicode="╩" d="M1473 344h-1496v175h1496v-175zM1473 724h-645v1140h175v-965h470v-175zM622 724h-645v175h470v965h175v-1140z"/>
<glyph glyph-name="SF540000" horiz-adv-x="1451" unicode="╪" d="M637 344h-660v175h660v205h-660v175h660v965h175v-965h661v-175h-661v-205h661v-175h-661v-965h-175v965z"/>
<glyph glyph-name="SF530000" horiz-adv-x="1451" unicode="╫" d="M447 -621v1155h-470v175h470v1155h175v-1155h206v1155h175v-1155h470v-175h-470v-1155h-175v1155h-206v-1155h-175z"/>
<glyph glyph-name="SF440000" horiz-adv-x="1451" unicode="╬" d="M1003 344v-965h-175v1140h645v-175h-470zM447 344h-470v175h645v-1140h-175v965zM447 899v965h175v-1140h-645v175h470zM1003 899h470v-175h-645v1140h175v-965z"/>
<glyph glyph-name="upblock" horiz-adv-x="1451" unicode="▀" d="M1473 621h-1496v1243h1496v-1243z"/>
<glyph glyph-name="dnblock" horiz-adv-x="1451" unicode="▄" d="M1473 -621h-1496v1242h1496v-1242z"/>
<glyph glyph-name="block" horiz-adv-x="1451" unicode="█" d="M-23 -621v2485h1496v-2485h-1496z"/>
<glyph glyph-name="lfblock" horiz-adv-x="1451" unicode="▌" d="M-23 -621v2485h748v-2485h-748z"/>
<glyph glyph-name="rtblock" horiz-adv-x="1451" unicode="▐" d="M726 -621v2485h748v-2485h-748z"/>
<glyph glyph-name="ltshade" horiz-adv-x="1451" unicode="░" d="M1206 -379h121v-125h-121v125zM723 -379h121v-125h-121v125zM241 -379h121v-125h-121v125zM0 -130h121v-125h-121v125zM482 -130h121v-125h-121v125zM965 -130h121v-125h-121v125zM1206 120h121v-125h-121v125zM723 120h121v-125h-121v125zM241 120h121v-125h-121v125z M965 369h121v-125h-121v125zM482 369h121v-125h-121v125zM0 369h121v-125h-121v125zM241 618h121v-125h-121v125zM723 618h121v-125h-121v125zM1206 618h121v-125h-121v125zM965 867h121v-125h-121v125zM482 867h121v-125h-121v125zM0 867h121v-125h-121v125zM241 1117h121 v-125h-121v125zM723 1117h121v-125h-121v125zM1206 1117h121v-125h-121v125zM0 1366h121v-125h-121v125zM482 1366h121v-125h-121v125zM965 1366h121v-125h-121v125zM1206 1615h121v-125h-121v125zM723 1615h121v-125h-121v125zM241 1615h121v-125h-121v125zM965 1864h121 v-125h-121v125zM482 1864h121v-125h-121v125zM0 1864h121v-125h-121v125z"/>
<glyph glyph-name="shade" horiz-adv-x="1451" unicode="▒" d="M1206 -379h121v-125h-121v125zM965 -380l121 1v-125h-121v124zM724 -379h120v-125h-120v125zM482 -379h121v-125h-121v125zM241 -379h121v-125h-121v125zM0 -379h121v-125h-121v125zM121 -130h120v-125h-120v125zM362 -130h120v-125h-120v125zM603 -130h121v-125h-121 v125zM844 -130h121v-125h-121v125zM1086 -130h120v-125h-120v125zM1327 -130h120v-125h-120v125zM1206 119h121v-124h-121v124zM965 119h121v-124h-121v124zM724 119h120v-124h-120v124zM482 119h121v-124h-121v124zM241 119h121v-124h-121v124zM0 119h121v-124h-121v124z M121 369h120v-125h-120v125zM362 369h120v-125h-120v125zM603 369h121v-125h-121v125zM844 369h121v-125h-121v125zM1086 369h120v-125h-120v125zM1327 369h120v-125h-120v125zM241 618h121v-125h-121v125zM1206 618h121v-125h-121v125zM965 618h121v-125h-121v125zM724 618 h120v-125h-120v125zM482 618h121v-125h-121v125zM0 618h121v-125h-121v125zM1327 867h120v-125h-120v125zM1086 867h120v-125h-120v125zM844 867h121v-125h-121v125zM603 867h121v-125h-121v125zM362 867h120v-125h-120v125zM121 867h120v-125h-120v125zM0 1116h121v-124 h-121v124zM1206 1116h121v-124h-121v124zM965 1116h121v-124h-121v124zM724 1116h120v-124h-120v124zM482 1116h121v-124h-121v124zM241 1116h121v-124h-121v124zM1327 1366h120v-125h-120v125zM1086 1366h120v-125h-120v125zM844 1366h121v-125h-121v125zM603 1366h121 v-125h-121v125zM362 1366h120v-125h-120v125zM121 1366h120v-125h-120v125zM1206 1615h121v-125h-121v125zM965 1615h121v-125h-121v125zM724 1615h120v-125h-120v125zM482 1615h121v-125h-121v125zM241 1615h121v-125h-121v125zM0 1615h121v-125h-121v125zM1327 1864h120 v-125h-120v125zM1086 1864h120v-125h-120v125zM844 1864h121v-125h-121v125zM603 1864h121v-125h-121v125zM362 1864h120v-125h-120v125zM121 1864h120v-125h-120v125z"/>
<glyph glyph-name="dkshade" horiz-adv-x="1451" unicode="▓" d="M1086 -379v-125h120v125h-120zM844 -379v-125h121v125h-121zM603 -379v-125h121v125h-121zM362 -379v-125h120v125h-120zM121 -379v-125h120v125h-120zM362 -255v125h-121v-125h121zM603 -255v125h-121v-125h121zM844 -255v125h-120v-125h120zM1086 -255v125h-121v-125 h121zM1327 -255v125h-121v-125h121zM1086 119v-124h120v124h-120zM844 119v-124h121v124h-121zM603 119v-124h121v124h-121zM362 119v-124h120v124h-120zM121 119v-124h120v124h-120zM362 244v125h-121v-125h121zM603 244v125h-121v-125h121zM844 244v125h-120v-125h120z M1086 244v125h-121v-125h121zM1327 244v125h-121v-125h121zM1086 618v-125h120v125h-120zM844 618v-125h121v125h-121zM482 493v125h-120v-125h120zM603 618v-125h121v125h-121zM121 618v-125h120v125h-120zM1206 867v-125h121v125h-121zM965 867v-125h121v125h-121z M724 867v-125h120v125h-120zM482 867v-125h121v125h-121zM362 867h-121v-125h121v125zM1086 1116v-124h120v124h-120zM844 1116v-124h121v124h-121zM603 1116v-124h121v124h-121zM362 1116v-124h120v124h-120zM121 1116v-124h120v124h-120zM362 1366h-121v-125h121v125z M603 1366h-121v-125h121v125zM844 1366h-120v-125h120v125zM1086 1366h-121v-125h121v125zM1327 1366h-121v-125h121v125zM1086 1615v-125h120v125h-120zM844 1615v-125h121v125h-121zM603 1615v-125h121v125h-121zM362 1615v-125h120v125h-120zM121 1615v-125h120v125h-120 zM1447 1490v-374h-120v-124h120v-374h-120v-125h120v-374h-120v-124h120v-374h-120v-125h120v-124h-1447v373h121v125h-121v374h121v125h-121v373h121v125h-121v374h121v125h-121v373h121v125h120v-125h121v125h120v-125h121v125h121v-125h120v125h121v-125h121v125h120 v-125h121v125h120v-249h-120v-125h120z"/>
<glyph glyph-name="filledbox" horiz-adv-x="1237" unicode="■" d="M146 944h944v-944h-944v944z"/>
<glyph glyph-name="H22073" horiz-adv-x="1237" unicode="□" d="M222 868v-792h792v792h-792zM146 944h944v-944h-944v944z"/>
<glyph glyph-name="H18543" horiz-adv-x="727" unicode="▪" d="M635 948v-543h-543v543h543z"/>
<glyph glyph-name="H18551" horiz-adv-x="727" unicode="▫" d="M559 872h-391v-391h391v391zM635 948v-543h-543v543h543z"/>
<glyph glyph-name="filledrect" horiz-adv-x="2048" unicode="▬" d="M0 703h2047v-386h-2047v386z"/>
<glyph glyph-name="triagup" horiz-adv-x="2027" unicode="▲" d="M304 0l710 1419l710 -1419h-1420z"/>
<glyph glyph-name="triagrt" horiz-adv-x="2027" unicode="►" d="M288 1417l1451 -724l-1451 -724v1448z"/>
<glyph glyph-name="triagdn" horiz-adv-x="2027" unicode="▼" d="M1724 1388l-710 -1419l-710 1419h1420z"/>
<glyph glyph-name="triaglf" horiz-adv-x="2027" unicode="◄" d="M1739 1417v-1448l-1451 724z"/>
<glyph glyph-name="lozenge" horiz-adv-x="1012" unicode="◊" d="M839 763l-335 652l-335 -652l335 -652zM962 763l-397 -763h-122l-397 763l397 763h122z"/>
<glyph glyph-name="circle" horiz-adv-x="1237" unicode="○" d="M619 942q-93 0 -180 -47t-136 -135t-49 -182q0 -151 107 -258t258 -107t257.5 107t106.5 258q0 94 -49 182t-136 135t-179 47zM619 1018q110 0 216 -57t165 -163t59 -220q0 -183 -129 -312t-311 -129q-183 0 -312 129t-129 312q0 115 59 220.5t165 162.5t217 57z"/>
<glyph glyph-name="H18533" horiz-adv-x="1237" unicode="●" d="M1059 578q0 -182 -129.5 -311.5t-310.5 -129.5q-183 0 -312 129t-129 312q0 182 129.5 311t311.5 129q181 0 310.5 -129.5t129.5 -310.5z"/>
<glyph glyph-name="invbullet" horiz-adv-x="1237" unicode="◘" d="M618 692q-84 0 -143 -59t-59 -143q0 -83 59.5 -142.5t142.5 -59.5q84 0 143 59.5t59 142.5q0 84 -59 143t-143 59zM128 0v980h980v-980h-980z"/>
<glyph glyph-name="invcircle" horiz-adv-x="1237" unicode="◙" d="M620 942q91 0 178.5 -47t136.5 -134.5t49 -183.5q0 -151 -106.5 -257.5t-257.5 -106.5q-152 0 -258.5 106.5t-106.5 257.5q0 96 49 183.5t136.5 134.5t179.5 47zM619 1018q-111 0 -216.5 -57t-164.5 -163t-59 -221q0 -182 129 -311t311 -129q183 0 312 129t129 311 q0 115 -59 221t-164.5 163t-217.5 57zM42 0v1155h1155v-1155h-1155z"/>
<glyph glyph-name="openbullet" horiz-adv-x="727" unicode="◦" d="M574 676q0 87 -62 148.5t-148 61.5t-148 -61.5t-62 -148.5q0 -86 61.5 -148t148.5 -62t148.5 62t61.5 148zM649 676q0 -118 -83.5 -202t-201.5 -84t-202 84t-84 202t84 202t202 84t201.5 -84t83.5 -202z"/>
<glyph glyph-name="smileface" horiz-adv-x="2048" unicode="☺" d="M730 313l62 36q79 -144 232 -144t231 144l63 -36q-50 -95 -123.5 -145t-170.5 -50q-98 0 -171 50t-123 145zM1268 731q34 0 57.5 -23.5t23.5 -57.5q0 -33 -23.5 -57t-57.5 -24q-33 0 -57 24t-24 57q0 34 23.5 57.5t57.5 23.5zM779 731q34 0 57.5 -23.5t23.5 -57.5 q0 -33 -23.5 -57t-57.5 -24q-33 0 -57 24t-24 57q0 34 24 57.5t57 23.5zM1024 1063q-137 0 -267.5 -70.5t-204 -201.5t-73.5 -273q0 -141 72 -270.5t202 -201.5t271 -72t271 72t202 201.5t72 270.5q0 142 -73.5 273t-204 201.5t-267.5 70.5zM1024 1156q160 0 313 -82.5 t239 -236t86 -319.5q0 -165 -84.5 -316.5t-236.5 -236t-317 -84.5q-166 0 -317.5 84.5t-236 236t-84.5 316.5q0 166 85.5 319.5t238.5 236t314 82.5z"/>
<glyph glyph-name="invsmileface" horiz-adv-x="2048" unicode="☻" d="M730 313q50 -95 123 -145t171 -50q97 0 170.5 50t123.5 145l-63 36q-78 -144 -231 -144t-232 144zM1268 731q-34 0 -57.5 -23.5t-23.5 -57.5q0 -33 24 -57t57 -24q34 0 57.5 24t23.5 57q0 34 -23.5 57.5t-57.5 23.5zM779 731q-33 0 -57 -23.5t-24 -57.5q0 -33 24 -57 t57 -24q34 0 57.5 24t23.5 57q0 34 -23.5 57.5t-57.5 23.5zM1024 1156q160 0 313 -82.5t239 -236t86 -319.5q0 -165 -84.5 -316.5t-236.5 -236t-317 -84.5q-166 0 -317.5 84.5t-236 236t-84.5 316.5q0 166 85.5 319.5t238.5 236t314 82.5z"/>
<glyph glyph-name="sun" horiz-adv-x="1877" unicode="☼" d="M937 1211q-129 0 -252 -66t-191.5 -189.5t-68.5 -256.5t67.5 -255t189.5 -190t255 -68t255 68t190 190t68 255t-69 256.5t-192 189.5t-252 66zM902 1621h76v-337q102 -7 181.5 -38.5t167.5 -102.5l290 284l52 -53l-286 -286q73 -95 103 -169q38 -96 41 -185h335v-69h-335 q-19 -193 -143 -351l285 -291l-57 -50l-283 282q-98 -72 -171 -100.5t-180 -40.5v-337h-76v337q-112 15 -188.5 46t-156.5 92l-294 -278l-51 51l285 286q-66 84 -100 166t-45 188h-336v69h336q9 106 42 185.5t102 163.5l-284 287l48 57l292 -282q101 70 179.5 100.5 t170.5 38.5v337z"/>
<glyph glyph-name="female" horiz-adv-x="1536" unicode="♀" d="M767 1451q-118 0 -230.5 -60.5t-175.5 -173.5t-63 -235q0 -195 137.5 -332.5t331.5 -137.5q195 0 332.5 137.5t137.5 332.5q0 122 -63 235t-175.5 173.5t-231.5 60.5zM796 461v-402h459v-59h-459v-439h-59v439h-460v59h460v402q-103 0 -225.5 65.5t-195 191t-72.5 265.5 q0 136 69.5 261t193.5 194t261 69q136 0 260.5 -69.5t193.5 -194t69 -260.5q0 -209 -143.5 -360.5t-351.5 -161.5z"/>
<glyph glyph-name="male" horiz-adv-x="1536" unicode="♂" d="M634 731q-118 0 -230.5 -60.5t-175.5 -173.5t-63 -235q0 -195 137.5 -332.5t331.5 -137.5q195 0 332.5 137.5t137.5 332.5q0 122 -63 235t-175.5 173.5t-231.5 60.5zM1216 1620l36 -16l163 -666l-57 -15l-142 581l-358 -768q148 -75 224 -202t76 -272q0 -136 -69 -260.5 t-193.5 -194t-261.5 -69.5q-136 0 -260.5 69.5t-193.5 194t-69 260.5q0 217 153.5 370t372.5 153q78 0 166 -27l360 771l-537 -265l-24 53z"/>
<glyph glyph-name="spade" horiz-adv-x="1344" unicode="♠" d="M673 1231q26 -108 80 -193t192.5 -210.5t175.5 -193t37 -136.5q0 -95 -64 -159t-154 -64q-82 0 -154 57q-54 42 -101 133q1 -147 38.5 -233.5t119.5 -136t219 -58.5l7 -37h-792l7 37q184 0 283.5 105.5t99.5 306.5v16q-45 -95 -111.5 -142.5t-149.5 -47.5q-90 0 -155 65 t-65 154q0 74 32 133q45 83 146.5 166t149.5 137q74 83 107.5 148t51.5 153z"/>
<glyph glyph-name="club" horiz-adv-x="1344" unicode="♣" d="M1098 0h-848l8 34q165 35 219 69q81 51 132.5 151t51.5 210q0 16 -1 47q-61 -124 -148.5 -181t-178.5 -57q-116 0 -197 81t-81 199q0 116 74 195.5t165 81.5q63 -2 166 -53q-42 69 -54.5 105t-12.5 77q0 115 79 193.5t198 78.5q117 0 197.5 -78.5t80.5 -189.5 q0 -88 -69 -186q84 40 101 45q27 8 61 8q100 0 173.5 -78.5t73.5 -194.5q0 -120 -80.5 -201.5t-196.5 -82.5q-77 4 -134.5 33t-107.5 80q-35 37 -87 125q4 -159 48.5 -251.5t136.5 -153.5q62 -41 223 -72z"/>
<glyph glyph-name="heart" horiz-adv-x="1344" unicode="♥" d="M674 -24q-31 118 -88.5 221.5t-222.5 321.5q-121 160 -149 203q-46 70 -66.5 128.5t-20.5 118.5q0 111 74 186t180 76q113 -1 194 -79q61 -58 99 -173q32 112 92 171q83 81 191 81q109 0 184.5 -74t75.5 -176q0 -91 -43.5 -188t-170.5 -257q-164 -207 -239 -340 q-59 -105 -90 -220z"/>
<glyph glyph-name="diamond" horiz-adv-x="1344" unicode="♦" d="M671 1234q88 -154 218 -327q150 -200 242 -303q-74 -78 -242 -302q-136 -182 -218 -326q-27 52 -74 121q-81 120 -201 279q-26 35 -183 228q101 115 260 328q118 158 198 302z"/>
<glyph glyph-name="musicalnote" horiz-adv-x="1024" unicode="♪" d="M486 1363h38q172 0 227 -14q79 -20 139 -77q45 -42 71 -118.5t26 -178.5v-103h-99v43q0 68 -28.5 115.5t-84.5 72.5q-73 32 -162 32h-28v-835q0 -121 -32 -188.5t-110 -108t-170 -40.5q-109 0 -172.5 61.5t-63.5 161.5q0 105 76 176.5t199 71.5q78 0 174 -46v975z"/>
<glyph glyph-name="musicalnotedbl" horiz-adv-x="1536" unicode="♫" d="M534 1271l796 248v-1108q0 -124 -31.5 -187t-107 -104t-170.5 -41q-109 0 -174 62.5t-65 161.5q0 100 77 172.5t199 72.5q40 0 70.5 -7t99.5 -36v724l-595 -185v-836q0 -121 -32 -188.5t-110 -107.5t-170 -40q-109 0 -172.5 61.5t-63.5 160.5q0 105 76 176.5t199 71.5 q78 0 174 -46v975z"/>
<glyph glyph-name="uniF001" horiz-adv-x="1274" unicode="" d="M1169 0h-393v1017h393v-1017zM1169 1406v-314h-393v314h393zM672 758h-137v-758h-377v758h-121v259h121q0 160 28.5 239.5t119 128.5t245.5 49q58 0 121 -7v-262l-15 1q-49 0 -77.5 -17.5t-36.5 -42.5t-8 -89h137v-259z"/>
<glyph glyph-name="uniF002" horiz-adv-x="1273" unicode="" d="M1169 0h-394v1365h394v-1365zM671 758h-136v-758h-377v758h-120v259h120q-1 35 -1 51q0 192 91.5 279t300.5 87q60 0 122 -7v-262q-83 0 -109.5 -24.5t-26.5 -99.5v-24h136v-259z"/>
<glyph glyph-name="uniF004" horiz-adv-x="1024" unicode="" d="M679 1365l-141 -421h-107l24 421h224z"/>
<glyph glyph-name="uniF005" horiz-adv-x="1024" unicode="" d="M649 -116l-141 -404h-107l25 404h223z"/>
<glyph glyph-name="uniF006" horiz-adv-x="1124" unicode="" d="M1085 309q-5 -155 -75.5 -248.5t-167.5 -93.5q-79 0 -138.5 91.5t-59.5 281.5q0 42 2 80t5 72l35 329h-231q-60 -624 -98.5 -742.5t-130.5 -118.5q-39 0 -74 31t-35 82q0 46 72.5 128.5t80.5 150.5l60 469h-97q-40 0 -78.5 -19.5t-56.5 -45.5l-43 -64h-35 q49 152 120.5 228.5t164.5 76.5h764v-176h-258q-12 -120 -18.5 -240t-6.5 -241q0 -82 38 -133t95 -51q35 0 73.5 28.5t43.5 74.5q3 22 4.5 34.5t1.5 15.5h43z"/>
<glyph glyph-name="fi" horiz-adv-x="1274" unicode="ﬁ" d="M1169 0h-393v1017h393v-1017zM1169 1406v-314h-393v314h393zM672 758h-137v-758h-377v758h-121v259h121q0 160 28.5 239.5t119 128.5t245.5 49q58 0 121 -7v-262l-15 1q-49 0 -77.5 -17.5t-36.5 -42.5t-8 -89h137v-259z"/>
<glyph glyph-name="fl" horiz-adv-x="1273" unicode="ﬂ" d="M1169 0h-394v1365h394v-1365zM671 758h-136v-758h-377v758h-120v259h120q-1 35 -1 51q0 192 91.5 279t300.5 87q60 0 122 -7v-262q-83 0 -109.5 -24.5t-26.5 -99.5v-24h136v-259z"/>
<glyph glyph-name="francOld" d="M1180 0h-259v614h229v-69q46 79 158 79q21 0 42 -3v-224q-38 8 -57 8q-113 0 -113 -123v-282zM818 511h-308v-511h-391v1365h969v-325h-578v-222h308v-307z" horiz-adv-x="1372"/>
</font>
</defs>
</svg>
